<svg xmlns="http://www.w3.org/2000/svg" width="235" height="40" viewBox="0 0 235 40"><defs><style>.a{fill:none;}.b{fill:#003288;}</style></defs><g transform="translate(7495 6577)"><rect class="a" width="235" height="40" transform="translate(-7495 -6577)"/><g transform="translate(-7495 -6574)"><path class="b" d="M7507.769,7201.225V7179h2.686v22.225ZM7495,7196.794v-10.229h6.582v-4.583H7495v-2.312h9.223v9.2h-6.565v5.625h7.905v2.3Z" transform="translate(-7275.454 -7173.008)"/><path class="b" d="M318.319,27.052V22.514h5.6V20.232H312.733v-2.8h10.936V15.122H312.733V12.588h11.182v-2.28H310.032V22.514h5.536v4.538h-7.1v2.327h16.953V27.052Z" transform="translate(-108.494 -3.625)"/><path class="b" d="M7495,7198.292v-2.312h16.909v2.312Zm8.5-12.6c-1.388,3.41-6.457,5.927-6.457,5.927l-1.3-2.04a9.919,9.919,0,0,0,6.236-9.536c0-.275,0-1.044,0-1.044h3.054v1.044a9.918,9.918,0,0,0,6.229,9.536l-1.292,2.04S7504.913,7189.148,7503.5,7185.692Z" transform="translate(-7314.271 -7172.525)"/><path class="b" d="M7497.852,7201.341v-5.29h10.989v-.944h-10.989v-2.174h13.705v5.1H7500.57v1.135h11.047v2.168Zm.92-9.111v-3.514H7495v-2.271h9.965v-7.214h2.565v12.962h-2.565v-.812h-2.483v-2.019h2.483v-.645h-3.452v3.514Zm10.1-.038v-13.155h2.681v13.155Zm-13.081-9.673c0-1.94,1.845-3.52,4.111-3.52a3.85,3.85,0,0,1,4.108,3.52c0,1.932-1.838,3.514-4.108,3.514S7495.8,7184.452,7495.8,7182.52Zm2.275,0a1.862,1.862,0,1,0,1.836-1.555A1.72,1.72,0,0,0,7498.071,7182.52Z" transform="translate(-7333.1 -7173.139)"/><path class="b" d="M7497.545,7196.4c0-2.988,3.348-5.413,7.485-5.413s7.483,2.425,7.483,5.413-3.349,5.415-7.483,5.415S7497.545,7199.4,7497.545,7196.4Zm2.833,0c0,1.67,2.085,3.024,4.651,3.024s4.655-1.354,4.655-3.024-2.089-3.024-4.655-3.024S7500.378,7194.738,7500.378,7196.4Zm8.9-5.716V7186h-3.662v-2.387h3.618V7179h2.872v11.688Zm-8.511-5.474c-.852,2.711-4.29,4.976-4.29,4.976l-1.476-2.032c4.81-2.408,4.437-8.735,4.437-8.735h2.653s-.375,6.328,4.432,8.735l-1.469,2.032S7501.613,7187.926,7500.765,7185.214Z" transform="translate(-7352.86 -7173.101)"/><path class="b" d="M7498.555,7201.216v-9.569h13.5v9.569Zm2.755-2.336h7.981v-4.9h-7.981Zm7.875-8.192V7179h2.874v4.611h2.433V7186h-2.433v4.688Zm-8.111-5.473c-.851,2.71-4.6,5.186-4.6,5.186l-1.471-2.033c5.129-2.618,4.75-8.945,4.75-8.945h2.653s-.366,6.327,4.749,8.945l-1.475,2.033S7501.923,7187.924,7501.074,7185.214Z" transform="translate(-7372.264 -7173.101)"/><path class="b" d="M7522.052,7213.578h0c-7.659,0-14.192-.735-18.894-2.126a18.236,18.236,0,0,1-5.639-2.582,5.7,5.7,0,0,1-2.451-3.527c-.375-2.153.869-4.507,3.7-7a47.777,47.777,0,0,1,12.038-7.13,2.489,2.489,0,0,0-1,1.676,3.762,3.762,0,0,0,.021,1.454c.272,1.259,1.648,2.012,2.863,2.677.9.494,1.752.959,1.99,1.554a1.467,1.467,0,0,1,.024.8.942.942,0,0,1-1.051.725.962.962,0,0,1-1.085-.98v-1.042h-2.89v.833a2.757,2.757,0,0,0,1.2,2.462,4.876,4.876,0,0,0,2.716.663c2.229,0,3.581-.873,3.807-2.458a5.548,5.548,0,0,0-.011-1.77c-.261-1.295-1.7-2.058-2.975-2.73-.936-.5-1.741-.921-1.87-1.457a1.446,1.446,0,0,1-.013-.566.894.894,0,0,1,.986-.723.917.917,0,0,1,1,.977v.666h2.688v-.757c0-1.8-1.222-2.712-3.632-2.712a6.614,6.614,0,0,0-1.474.152,125.386,125.386,0,0,1,14.742-5.1,177.117,177.117,0,0,1,17.678-3.993A164.29,164.29,0,0,1,7572.1,7179c7.658,0,14.19.735,18.889,2.125a18.222,18.222,0,0,1,5.637,2.581,5.7,5.7,0,0,1,2.449,3.525c.369,2.111-.821,4.419-3.537,6.859a45.943,45.943,0,0,1-11.6,7.006,2.565,2.565,0,0,0,1.045-1.93,6.733,6.733,0,0,0,.038-.709v-2.892h-3.817v1.572h1.1v1.564a2.391,2.391,0,0,1-.023.408,1,1,0,0,1-1.1.782.991.991,0,0,1-1.1-.782,1.912,1.912,0,0,1-.028-.408v-4.925a2.492,2.492,0,0,1,.043-.507,1.126,1.126,0,0,1,2.146,0,2.363,2.363,0,0,1,.036.41v.6h2.716v-.358a6.316,6.316,0,0,0-.023-.709c-.218-2.2-2.175-2.661-3.778-2.661-2.269,0-3.577.92-3.785,2.661-.019.172-.044.514-.044.709l0,4.534c0,.2.008.354.039.709.214,2.312,2.468,2.657,3.792,2.657a6.255,6.255,0,0,0,1.454-.159c-8.987,3.885-20.713,7.2-33.019,9.347A164.334,164.334,0,0,1,7522.052,7213.578Zm22.685-15.513,0,.82c0,2.693,2.43,3.1,3.878,3.1,2.207,0,3.545-.865,3.768-2.436a5.307,5.307,0,0,0-.01-1.751c-.26-1.282-1.687-2.038-2.947-2.7l0,0c-.923-.488-1.719-.91-1.847-1.44a1.358,1.358,0,0,1-.011-.557.883.883,0,0,1,.975-.715.906.906,0,0,1,.988.963V7194h2.665v-.748c0-1.781-1.21-2.684-3.6-2.684-1.527,0-3.412.41-3.725,2.363a3.614,3.614,0,0,0,.025,1.438c.264,1.247,1.625,1.992,2.827,2.65.894.49,1.736.952,1.972,1.543a1.379,1.379,0,0,1,.021.786.925.925,0,0,1-1.038.717.959.959,0,0,1-1.074-.965l0-1.032Zm10.209-7.22v7.721c-.008.2.016.611.023.708.167,1.767,1.432,2.663,3.759,2.663s3.592-.9,3.76-2.663c.01-.1.027-.5.023-.708v-7.721h-2.726v7.965a2.024,2.024,0,0,1-.024.412,1.074,1.074,0,0,1-2.068,0,2.548,2.548,0,0,1-.025-.412v-7.965Zm-33.743,0-2,10.768h2.907l1.475-9.771h.059l1.436,9.772h2.894l-1.983-10.768Zm9.163,0-.238,10.768h2.7l.067-9.683h.059l1.8,9.683h2.732l1.8-9.682h.058l.07,9.683h2.691l-.234-10.768h-4.391l-1.328,8.23h-.061l-1.328-8.23Zm37.648,1.911h.055l2.663,8.746h3.83v-10.657H7571.9l.149,8.452h-.061l-2.474-8.452h-4v10.657h2.649l-.147-8.745Z" transform="translate(-7495 -7179)"/></g></g></svg>