<?xml version="1.0" encoding="UTF-8"?>
<svg id="Layer_2" data-name="Layer 2" xmlns="http://www.w3.org/2000/svg" xmlns:xlink="http://www.w3.org/1999/xlink" viewBox="0 0 1591.84 369.04">
  <defs>
    <style>
      .cls-1 {
        fill: url(#linear-gradient);
      }

      .cls-2 {
        fill: #fdb933;
      }

      .cls-3 {
        fill: url(#_무제_그라디언트_2-4);
      }

      .cls-4 {
        fill: url(#_무제_그라디언트_2-2);
      }

      .cls-5 {
        fill: url(#_무제_그라디언트_2-5);
      }

      .cls-6 {
        fill: url(#_무제_그라디언트_2-6);
      }

      .cls-7 {
        fill: url(#_무제_그라디언트_2-3);
      }

      .cls-8 {
        fill: url(#linear-gradient-3);
      }

      .cls-9 {
        fill: url(#linear-gradient-4);
      }

      .cls-10 {
        fill: url(#linear-gradient-2);
      }

      .cls-11 {
        fill: url(#_무제_그라디언트_2);
      }
    </style>
    <linearGradient id="linear-gradient" x1="225.57" y1="318.15" x2="312.56" y2="94.75" gradientTransform="translate(-1.25)" gradientUnits="userSpaceOnUse">
      <stop offset=".1" stop-color="#00b8ec"/>
      <stop offset="1" stop-color="#005da4"/>
    </linearGradient>
    <linearGradient id="linear-gradient-2" x1="23.54" y1="136.09" x2="64.38" y2="250.87" gradientTransform="translate(-1.25)" gradientUnits="userSpaceOnUse">
      <stop offset=".1" stop-color="#00b8ec"/>
      <stop offset="1" stop-color="#005da4"/>
    </linearGradient>
    <linearGradient id="linear-gradient-3" x1="104.18" y1="319.65" x2="145.36" y2="206.92" xlink:href="#linear-gradient-2"/>
    <linearGradient id="linear-gradient-4" x1="146.15" y1="164.68" x2="169.61" y2="223.32" xlink:href="#linear-gradient-2"/>
    <linearGradient id="_무제_그라디언트_2" data-name="무제 그라디언트 2" x1="393.13" y1="238.03" x2="1571.86" y2="50.09" gradientUnits="userSpaceOnUse">
      <stop offset="0" stop-color="#00b8ec"/>
      <stop offset="1" stop-color="#005da4"/>
    </linearGradient>
    <linearGradient id="_무제_그라디언트_2-2" data-name="무제 그라디언트 2" x1="397.62" y1="266.23" x2="1576.36" y2="78.29" xlink:href="#_무제_그라디언트_2"/>
    <linearGradient id="_무제_그라디언트_2-3" data-name="무제 그라디언트 2" x1="401.41" y1="289.99" x2="1580.15" y2="102.06" xlink:href="#_무제_그라디언트_2"/>
    <linearGradient id="_무제_그라디언트_2-4" data-name="무제 그라디언트 2" x1="447.8" y1="323.01" x2="1550.29" y2="147.22" xlink:href="#_무제_그라디언트_2"/>
    <linearGradient id="_무제_그라디언트_2-5" data-name="무제 그라디언트 2" x1="449.88" y1="354.43" x2="1552.38" y2="178.65" xlink:href="#_무제_그라디언트_2"/>
    <linearGradient id="_무제_그라디언트_2-6" data-name="무제 그라디언트 2" x1="453.17" y1="399.47" x2="1555.66" y2="223.68" xlink:href="#_무제_그라디언트_2"/>
  </defs>
  <g id="Layer_1-2" data-name="Layer 1">
    <g>
      <path class="cls-1" d="m310.69,57.65c-14.14,0-26.8,8.77-31.77,22.01l-42.57,113.79-53.01,141.69,4.38,11.68c4.69,12.65,16.79,22.21,31.84,22.21,14.14,0,26.8-8.77,31.77-22.01l91.13-243.54c8.32-22.18-8.08-45.84-31.77-45.84Z"/>
      <path class="cls-10" d="m92.22,229.26l-26.5-70.08c-4.97-13.24-17.62-22.01-31.77-22.01-23.69,0-40.08,23.66-31.76,45.84l54.12,142.01,35.91-95.75Z"/>
      <path class="cls-8" d="m158.05,137.16c-14.14,0-26.8,8.77-31.77,22.01l-3.33,8.89-52.2,139.19h0s-10.5,28-10.5,28l4.44,11.57c4.69,12.65,16.79,22.21,31.84,22.21,14.14,0,26.8-8.77,31.77-22.01l61.51-164.03c8.32-22.18-8.08-45.84-31.76-45.84Z"/>
      <circle class="cls-2" cx="337.1" cy="27.48" r="27.48" transform="translate(232.91 349.25) rotate(-76.72)"/>
      <path class="cls-9" d="m215.64,228.04l-25.82-68.86c-4.97-13.24-17.62-22.01-31.76-22.01-15.05,0-27.15,9.56-31.84,22.21l-14.79,39.43c1.73-4.01,5.72-6.83,10.37-6.83,4.71,0,8.77,2.88,10.47,6.98l47.18,125.82,36.19-96.73Z"/>
    </g>
    <g>
      <path class="cls-11" d="m413.56,233.91v-14.14c0-6.46,1.54-7.99,7.99-7.99h9.53c22.76-.62,41.2-9.53,41.2-35.05,0-23.37-15.37-35.05-38.13-35.05s-36.28,11.68-39.05,39.97h-34.75c.62-43.66,31.36-69.19,74.41-69.19,37.51,0,72.57,19.99,72.57,63.34,0,26.45-14.14,45.51-41.2,51.35,31.06,5.23,45.82,25.52,45.82,55.96,0,46.43-39.05,67.34-78.41,67.34-45.2,0-75.03-27.37-75.95-73.49h34.13c3.08,31.06,16.91,44.28,43.05,44.28s42.43-13.53,42.43-40.59-20.6-37.82-43.97-38.74h-11.68c-6.46,0-7.99-1.54-7.99-7.99Z"/>
      <path class="cls-4" d="m531.32,238.21c0-81.49,34.13-124.53,80.26-124.53,39.36,0,66.11,24.6,71.03,65.8h-35.05c-1.23-24.91-16.3-37.21-35.67-37.21-37.51,0-47.97,51.66-49.81,75.64,10.76-14.45,31.36-23.37,53.2-23.37,42.74,0,69.8,31.98,69.8,77.49,0,42.74-27.98,78.41-73.8,78.41-35.05,0-61.81-21.83-71.34-49.51-6.15-16.91-8.61-34.75-8.61-62.73Zm77.8-16.6c-23.68,0-40.59,20.91-40.59,47.05,0,31.36,15.99,52.89,39.97,52.89,27.06,0,42.13-20.6,42.13-50.12s-13.84-49.81-41.51-49.81Z"/>
      <path class="cls-7" d="m779.15,108.45c64.57,0,78.41,64.88,78.41,121.46s-13.84,121.15-78.41,121.15-76.57-64.27-76.57-121.15,12.3-121.46,76.57-121.46Zm0,29.21c-37.82,0-40.9,59.04-40.9,92.25s3.08,91.63,40.9,91.63,42.74-58.42,42.74-91.63-4.61-92.25-42.74-92.25Z"/>
      <path class="cls-3" d="m877.94,207.96h101.81v-29.91h33.94v29.91h101.52v25.6h-237.27v-25.6Zm10.64-38.25c51.19-9.2,90.31-27.61,90.31-61.26v-7.19h35.66v7.19c-.29,33.07,42.85,53.49,89.44,61.55l-18.98,23.01c-33.65-7.48-73.05-23.87-88.01-46.88-14.67,21.86-49.18,38.25-89.16,46.88l-19.27-23.3Zm188.96,145.81h-133.45v17.83h146.97v24.16h-175.73c-6.04,0-8.05-2.01-8.05-8.05v-48.03c0-6.04,2.01-8.05,8.05-8.05h133.45v-16.97h-141.5v-24.45h169.97c6.04,0,8.34,2.01,8.34,8.05v47.45c0,6.04-2.01,8.05-8.05,8.05Z"/>
      <path class="cls-5" d="m1360.2,283.6h-101.24v75.64h-33.07v-75.64h-102.96v-27.32h237.27v27.32Zm-39.98-99.22h-134.6v23.58h147.83v26.46h-171.99c-6.04,0-8.05-2.01-8.05-8.05v-60.4c0-6.04,2.01-8.05,8.05-8.05h134.88v-22.72h-142.94v-26.75h166.81c6.04,0,8.05,2.01,8.05,8.05v59.82c0,6.04-2.01,8.05-8.05,8.05Z"/>
      <path class="cls-6" d="m1464.43,107.3v37.96c0,34.22,26.75,67.59,62.98,80.24l-20.71,24.45c-24.73-12.65-48.61-32.21-59.53-51.48-6.9,19.85-31.92,43.14-58.67,58.1l-25.6-21.86c42.28-20.71,66.72-52.34,67.01-88.87v-38.54h34.51Zm-43.14,247.05c-6.04,0-7.76-2.01-7.76-8.05v-73.91h32.79v54.36h145.53v27.61h-170.55Zm164.51-252.51v189.24h-31.92v-88.58h-47.17v-27.03h47.17v-24.16h-47.17v-27.03h46.88v-22.43h32.21Z"/>
    </g>
  </g>
</svg>