<?xml version="1.0" encoding="utf-8"?>
<!-- Generator: Adobe Illustrator 26.5.0, SVG Export Plug-In . SVG Version: 6.00 Build 0)  -->
<svg version="1.1" xmlns="http://www.w3.org/2000/svg" xmlns:xlink="http://www.w3.org/1999/xlink" x="0px" y="0px"
	 viewBox="0 0 380 300" style="enable-background:new 0 0 380 300;" xml:space="preserve">
<style type="text/css">
	.st0{fill:#F5F5F5;}
	.st1{fill:none;stroke:#00C0F3;stroke-width:2;stroke-linecap:round;}
	.st2{fill:none;stroke:#00C0F3;stroke-width:2.001;stroke-linecap:round;stroke-miterlimit:4.0021;}
	.st3{fill:#D1D1D1;}
	.st4{fill:#005B92;}
	.st5{fill:#0077C0;}
	.st6{fill:#FFFFFF;}
	.st7{fill-rule:evenodd;clip-rule:evenodd;}
	.st8{fill-rule:evenodd;clip-rule:evenodd;fill:#005B92;}
	.st9{fill-rule:evenodd;clip-rule:evenodd;fill:#E1F3FE;}
	.st10{fill-rule:evenodd;clip-rule:evenodd;fill:#FFFFFF;}
	.st11{fill:#85C7F1;}
	.st12{fill-rule:evenodd;clip-rule:evenodd;fill:#0077C0;}
	.st13{fill:#EFF9FF;}
	.st14{fill:#EAEBEC;}
	.st15{fill:#FDB934;}
	.st16{fill:url(#패스_15600_00000061460405628803893020000018334950961538732186_);}
	.st17{fill:url(#패스_15602_00000083062487978707309190000013313793612369759118_);}
	.st18{fill:url(#패스_15604_00000079484256667332840790000003485753643183690144_);}
	.st19{fill:url(#패스_15607_00000183929090704079677600000015097866344329863852_);}
	.st20{fill:#060030;}
	.st21{fill:#FFC7AD;}
	.st22{fill:#F3A984;}
	.st23{clip-path:url(#SVGID_00000176041304031965980890000013953629070147481500_);}
	.st24{fill:#00304D;}
</style>
<g id="Layer_1">
	<ellipse id="타원_895" class="st0" cx="190" cy="192.1" rx="170" ry="80"/>
	<g id="illust01" transform="translate(481.936 1488.613)">
		<path id="패스_14721" class="st1" d="M-324.4-1369.2l118.1,69.1"/>
		<path id="패스_14720" class="st2" d="M-340.8-1282.4l81.5-45.4"/>
		<g id="그룹_20970" transform="translate(-3.299 7.322)">
			<g id="networking" transform="translate(89.96 119.152)">
				<path id="패스_14704" class="st3" d="M-294.4-1466.9L-294.4-1466.9c-0.1,0-0.1,0-0.2,0l0,0l0,0c0,0,0,0-0.1,0s0,0-0.1,0l0,0
					l0,0c0,0-0.1,0-0.1,0.1l0,0l-15.4,9c0,0,0.1,0,0.1-0.1l0,0h0.1l0,0c0,0,0.1,0,0.2,0l0,0h0.1h0.1h0.1h0.1h0.1h0.1h0.1
					c0.1,0,0.2,0.1,0.3,0.1l22.8,13.2c0.1,0.1,0.2,0.1,0.3,0.2h0.1c0.1,0.1,0.2,0.2,0.3,0.3c0,0,0,0,0.1,0.1l0.1,0.1l0.1,0.1
					l0.1,0.1l0.1,0.1c0,0,0,0.1,0.1,0.1l0.1,0.1v0.1c0,0.1,0.1,0.1,0.1,0.2l0,0c0,0.1,0.1,0.1,0.1,0.2v0.1c0,0.1,0.1,0.1,0.1,0.2
					l0,0c0,0.1,0.1,0.1,0.1,0.2c0,0,0,0,0,0.1s0,0.1,0.1,0.2v0.1v0.1v0.1v0.1c0,0.1,0,0.1,0,0.2v0.1c0,0.1,0,0.2,0,0.4l-0.1,26.2
					c0.1,0.5-0.2,1-0.6,1.3l15.4-9c0.4-0.3,0.6-0.8,0.6-1.3l0.1-26.2c0-0.1,0-0.2,0-0.4l0,0l0,0c0-0.1,0-0.1,0-0.2v-0.1l0,0v-0.1
					v-0.1c0,0,0,0,0-0.1v-0.1c0,0,0,0,0-0.1s0-0.1,0-0.1s0,0,0-0.1l0,0c0-0.1,0-0.1-0.1-0.2l0,0l0,0c0,0,0-0.1-0.1-0.1v-0.1v-0.1
					v-0.1c0,0,0-0.1-0.1-0.1l0,0l0,0c0-0.1-0.1-0.1-0.1-0.2l0,0v-0.1c0,0,0-0.1-0.1-0.1s0,0,0-0.1l-0.1-0.1v-0.1c0,0,0,0-0.1-0.1
					l-0.1-0.1l0,0l0,0l-0.1-0.1l0,0l0,0c-0.1-0.1-0.2-0.2-0.3-0.3h-0.1c-0.1-0.1-0.2-0.1-0.3-0.2l-22.8-13.2c-0.1,0-0.2-0.1-0.3-0.1
					l0,0c0,0,0,0-0.1,0h-0.1l0,0l0,0h-0.1h-0.1h-0.1h-0.1l0,0H-294.4"/>
				<path id="패스_14660" class="st0" d="M-310.9-1456.5c0-1.3,0.9-1.8,2-1.2l22.8,13.2c1.2,0.8,2,2.1,2,3.5l-0.1,26.2
					c0,1.3-0.9,1.8-2,1.2l-22.8-13.2c-1.2-0.8-2-2.1-2-3.5L-310.9-1456.5z"/>
				<path id="패스_14703" d="M-296.3-1433.4c0-6-4.2-13.4-9.5-16.4c-4-2.3-7.4-1.5-8.8,1.7c-5.4-2.9-9.7-0.3-9.7,6
					c0,6.4,4.5,14.2,10,17.4l16.9,9.8c4.6,2.6,8.3,0.5,8.3-4.7C-289.1-1424.5-292.3-1430.4-296.3-1433.4"/>
				<g id="그룹_20983" transform="translate(0 17.361)">
					<path id="패스_14662" class="st4" d="M-318.6-1463.9L-318.6-1463.9c-0.2-0.1-0.3-0.1-0.4-0.2l0,0l0,0
						c-0.1-0.1-0.2-0.1-0.3-0.1l0,0l0,0c-0.1,0-0.2-0.1-0.4-0.1l0,0l0,0c-0.1,0-0.2-0.1-0.4-0.1l0,0l0,0c-0.1,0-0.2-0.1-0.4-0.1l0,0
						l0,0l0,0h-0.2h-0.1h-0.1l0,0h-0.1h-0.1h-0.1h-0.1l0,0h-0.1h-0.1h-0.1h-0.1l0,0h-0.2l0,0c-0.1,0-0.2,0-0.2,0l0,0
						c-0.1,0-0.1,0-0.2,0h-0.1c-0.1,0-0.1,0-0.2,0l0,0l0,0c-0.1,0-0.2,0-0.3,0l0,0c-0.1,0-0.2,0-0.2,0l0,0l0,0c-0.1,0-0.2,0-0.3,0.1
						l0,0c-0.1,0-0.2,0.1-0.3,0.1l0,0l0,0h-0.1h-0.1c0,0-0.1,0-0.1,0.1h-0.1c0,0-0.1,0-0.1,0.1h-0.1c-0.1,0-0.1,0.1-0.2,0.1
						l-2.9,1.7c0.1,0,0.1-0.1,0.2-0.1h0.1l0.1-0.1h0.1l0.1-0.1h0.1h0.1h0.1c0.1,0,0.2-0.1,0.3-0.1l0,0c0.1,0,0.2-0.1,0.3-0.1h0.1
						c0.1,0,0.2,0,0.2,0l0,0c0.1,0,0.2,0,0.3,0h0.1h0.2h0.1c0.1,0,0.1,0,0.2,0l0,0c0.1,0,0.1,0,0.2,0l0,0c0.1,0,0.1,0,0.2,0h0.1h0.1
						h0.1h0.1h0.1h0.1h0.1h0.1h0.1h0.1h0.2l0,0l0,0c0.1,0,0.2,0.1,0.4,0.1h0.1c0.1,0,0.2,0.1,0.4,0.1h0.1c0.1,0,0.2,0.1,0.3,0.1h0.1
						c0.1,0,0.2,0.1,0.3,0.1l0,0c0.1,0.1,0.2,0.1,0.4,0.2h0.1c0.1,0.1,0.2,0.1,0.3,0.2l0,0l2.9-1.7
						C-318.3-1463.8-318.4-1463.8-318.6-1463.9L-318.6-1463.9"/>
					<path id="패스_14663" class="st4" d="M-293.7-1437.5L-293.7-1437.5c0-0.1,0-0.1,0-0.2s0-0.1,0-0.2v-0.1c0-0.1,0-0.1,0-0.2
						s0-0.1,0-0.1v-0.1c0-0.1,0-0.1,0-0.2v-0.1c0-0.1,0-0.1,0-0.2s0-0.1,0-0.2v-0.1c0-0.1,0-0.1,0-0.2s0-0.1,0-0.2l0,0
						c0-0.1,0-0.2-0.1-0.3v-0.1l0,0c0-0.1-0.1-0.3-0.1-0.4l0,0l0,0c0-0.1-0.1-0.3-0.1-0.4l0,0c0-0.1,0-0.1,0-0.2s0-0.2-0.1-0.3l0,0
						c0-0.1,0-0.1-0.1-0.2c0-0.1,0-0.1-0.1-0.2c0,0,0,0,0-0.1s0-0.1-0.1-0.2c0-0.1,0-0.1-0.1-0.2v-0.1l-0.1-0.2v-0.1
						c0,0,0-0.1-0.1-0.1c0,0,0-0.1-0.1-0.2v-0.1c0-0.1-0.1-0.1-0.1-0.2l-0.1-0.1l0,0c0-0.1-0.1-0.2-0.1-0.3v-0.1l0,0
						c-0.1-0.1-0.1-0.3-0.2-0.4l0,0c-0.1-0.1-0.1-0.2-0.2-0.3c0,0,0-0.1-0.1-0.1l0,0l0,0c-0.1-0.1-0.1-0.3-0.2-0.4l-0.1-0.1
						c0-0.1-0.1-0.1-0.1-0.2c0,0,0-0.1-0.1-0.1c-0.1-0.1-0.1-0.2-0.2-0.4l-0.1-0.2c-0.1-0.2-0.2-0.3-0.3-0.5l0,0
						c-0.1-0.1-0.2-0.3-0.3-0.4l-0.1-0.1c-0.1-0.1-0.1-0.2-0.2-0.2l0,0c-0.1-0.1-0.2-0.3-0.3-0.4c0,0,0,0,0-0.1l0,0
						c-0.1-0.1-0.2-0.2-0.3-0.3l-0.1-0.1l0,0l-0.1-0.1c-0.1-0.1-0.2-0.2-0.3-0.3l0,0l-0.1-0.1c-0.1-0.1-0.1-0.1-0.2-0.2l0,0
						l-0.2-0.2c-0.1-0.1-0.1-0.1-0.2-0.2l0,0c-0.1-0.1-0.1-0.1-0.2-0.2l-0.1-0.1l0,0c-0.1-0.1-0.2-0.2-0.2-0.2l-0.1-0.1l0,0
						c-0.1-0.1-0.2-0.2-0.4-0.3l0,0l-0.1-0.1c-0.1-0.1-0.2-0.1-0.3-0.2l0,0c-0.1-0.1-0.2-0.2-0.4-0.3l0,0c0-0.1,0-0.3,0-0.4l0,0l0,0
						c0-0.1,0-0.3,0-0.4l0,0l0,0c0-0.1,0-0.2,0-0.4c0,0,0,0,0-0.1s0,0,0,0c0-0.1,0-0.3,0-0.4l0,0v-0.1c0-0.1,0-0.3-0.1-0.4l0,0l0,0
						c0-0.1,0-0.3-0.1-0.4l0,0l0,0c0-0.1-0.1-0.3-0.1-0.4l0,0l0,0c0-0.1-0.1-0.3-0.1-0.4l0,0l0,0c0-0.1-0.1-0.3-0.1-0.4l0,0l0,0
						c0-0.1-0.1-0.3-0.1-0.4l0,0c0,0,0,0,0-0.1s-0.1-0.3-0.1-0.4l0,0l0,0c0-0.1-0.1-0.3-0.1-0.4l0,0l0,0c0-0.1-0.1-0.3-0.2-0.4l0,0
						l0,0c0-0.1-0.1-0.2-0.1-0.4v-0.1l0,0c-0.1-0.1-0.1-0.3-0.2-0.4l0,0c0,0,0,0,0-0.1c-0.1-0.1-0.1-0.2-0.2-0.4l0,0l0,0
						c-0.1-0.1-0.1-0.3-0.2-0.4l0,0l0,0c-0.1-0.2-0.2-0.3-0.3-0.5l0,0l0,0c-0.1-0.1-0.1-0.2-0.2-0.4v-0.1c-0.1-0.1-0.1-0.2-0.2-0.3
						v-0.1l0,0c-0.1-0.2-0.2-0.3-0.3-0.5v-0.1c-0.1-0.2-0.2-0.3-0.3-0.5l0,0l0,0c-0.1-0.1-0.2-0.3-0.3-0.4l-0.1-0.1
						c-0.1-0.1-0.2-0.3-0.3-0.4l0,0c-0.1-0.2-0.3-0.4-0.4-0.5l0,0l0,0c-0.1-0.1-0.2-0.3-0.3-0.4l0,0l0,0c-0.1-0.1-0.2-0.3-0.3-0.4
						l0,0l0,0c-0.1-0.1-0.2-0.2-0.3-0.4l0,0l0,0c-0.1-0.1-0.2-0.2-0.3-0.4l0,0l0,0c-0.1-0.1-0.2-0.2-0.4-0.3l0,0l0,0
						c-0.1-0.1-0.3-0.2-0.4-0.4l0,0l0,0c-0.1-0.1-0.3-0.2-0.4-0.3l0,0l0,0c-0.1-0.1-0.3-0.2-0.4-0.3l0,0l0,0
						c-0.1-0.1-0.2-0.2-0.4-0.3l0,0l0,0c-0.1-0.1-0.2-0.2-0.4-0.3l0,0l0,0c-0.1-0.1-0.2-0.2-0.4-0.2l0,0l0,0
						c-0.1-0.1-0.2-0.1-0.4-0.2l0,0l-0.1-0.1c-0.1-0.1-0.2-0.1-0.3-0.2l0,0l0,0c-0.1-0.1-0.2-0.1-0.3-0.2l0,0l0,0
						c-0.1-0.1-0.2-0.1-0.3-0.2l0,0l0,0c-0.1-0.1-0.2-0.1-0.3-0.1l0,0c-0.1,0-0.2-0.1-0.3-0.1l0,0l0,0c-0.1,0-0.2-0.1-0.3-0.1l0,0
						l0,0c-0.1,0-0.2-0.1-0.3-0.1l0,0l0,0c-0.1,0-0.2-0.1-0.4-0.1l0,0l0,0h-0.1h-0.1h-0.1h-0.1l0,0h-0.1h-0.1h-0.1h-0.1l0,0h-0.1
						h-0.1h-0.2h-0.2h-0.1c-0.1,0-0.1,0-0.2,0l0,0l0,0c-0.1,0-0.1,0-0.2,0h-0.1c-0.1,0-0.1,0-0.2,0l0,0l0,0c-0.1,0-0.2,0-0.3,0.1
						l0,0c-0.1,0-0.2,0.1-0.3,0.1l0,0l0,0h-0.1h-0.1l-0.1,0.1h-0.1l-0.1,0.1h-0.1c-0.1,0-0.1,0.1-0.2,0.1l-2.9,1.7
						c0.1,0,0.1-0.1,0.2-0.1h0.1l0.1-0.1h0.1h0.1h0.1h0.1h0.1c0.1,0,0.2-0.1,0.3-0.1l0,0c0.1,0,0.2-0.1,0.3-0.1h0.1
						c0.1,0,0.1,0,0.2,0h0.1c0.1,0,0.1,0,0.2,0l0,0c0.1,0,0.1,0,0.2,0h0.1c0.1,0,0.1,0,0.2,0h0.2h0.1h0.1h0.1h0.1h0.1h0.1h0.1h0.1
						h0.1h0.1h0.1c0.1,0,0.2,0.1,0.4,0.1l0,0c0.1,0,0.2,0.1,0.3,0.1h0.1c0.1,0,0.2,0.1,0.3,0.1h0.1c0.1,0,0.2,0.1,0.3,0.1l0,0
						c0.1,0,0.2,0.1,0.3,0.1h0.1c0.1,0.1,0.2,0.1,0.3,0.2h0.1c0.1,0.1,0.2,0.1,0.3,0.2h0.1c0.1,0.1,0.2,0.1,0.3,0.2l0.1,0.1
						c0.1,0.1,0.2,0.1,0.4,0.2l0,0c0.1,0.1,0.2,0.2,0.4,0.2h0.1c0.1,0.1,0.2,0.2,0.4,0.3c0,0,0,0,0.1,0c0.1,0.1,0.2,0.2,0.4,0.3l0,0
						c0.1,0.1,0.3,0.2,0.4,0.3l0,0c0.1,0.1,0.3,0.2,0.4,0.3l0,0c0.1,0.1,0.3,0.2,0.4,0.4l0,0c0.1,0.1,0.2,0.2,0.4,0.3l0.1,0.1
						c0.1,0.1,0.2,0.2,0.3,0.4l0.1,0.1c0.1,0.1,0.2,0.2,0.3,0.4l0,0c0.1,0.1,0.2,0.3,0.3,0.4l0,0c0.1,0.1,0.2,0.3,0.3,0.4l0,0
						c0.1,0.2,0.3,0.4,0.4,0.5l0,0c0.1,0.1,0.2,0.3,0.3,0.4l0.1,0.1c0.1,0.1,0.2,0.2,0.3,0.4v0.1c0.1,0.2,0.2,0.3,0.3,0.5v0.1
						c0.1,0.2,0.2,0.3,0.3,0.5v0.1c0.1,0.1,0.1,0.2,0.2,0.3v0.1c0.1,0.1,0.1,0.2,0.2,0.4v0.1c0.1,0.2,0.2,0.3,0.3,0.5v0.1
						c0.1,0.1,0.1,0.3,0.2,0.4v0.1c0.1,0.1,0.1,0.2,0.2,0.4v0.1c0.1,0.1,0.1,0.3,0.2,0.4v0.1c0.1,0.1,0.1,0.2,0.1,0.4v0.1
						c0.1,0.1,0.1,0.3,0.2,0.4v0.1c0.1,0.1,0.1,0.3,0.1,0.4l0,0c0,0.1,0.1,0.3,0.1,0.4v0.1c0,0.1,0.1,0.3,0.1,0.4v0.1
						c0,0.1,0.1,0.3,0.1,0.4l0,0c0,0.1,0.1,0.3,0.1,0.4c0,0,0,0,0,0.1s0.1,0.3,0.1,0.4v0.1c0,0.1,0.1,0.3,0.1,0.4l0,0
						c0,0.1,0,0.3,0.1,0.4v0.1c0,0.1,0,0.3,0,0.4v0.1c0,0.1,0,0.3,0,0.4l0,0c0,0.1,0,0.3,0,0.4v0.1c0,0.1,0,0.3,0,0.4
						c0.1,0.1,0.3,0.2,0.4,0.3c0.1,0.1,0.2,0.1,0.3,0.2l0.1,0.1c0.1,0.1,0.2,0.2,0.4,0.3l0.1,0.1c0.1,0.1,0.2,0.2,0.2,0.2
						c0.1,0,0.1,0.1,0.2,0.2s0.1,0.1,0.2,0.2s0.1,0.1,0.2,0.2s0.1,0.1,0.2,0.2s0.1,0.2,0.2,0.2l0.1,0.1c0.1,0.1,0.2,0.2,0.3,0.3
						l0.1,0.1l0.1,0.1c0.1,0.1,0.2,0.2,0.3,0.3l0.1,0.1c0.1,0.1,0.2,0.3,0.3,0.4c0.1,0.1,0.1,0.2,0.2,0.3l0.1,0.1
						c0.1,0.1,0.2,0.3,0.3,0.4c0.1,0.2,0.2,0.3,0.3,0.5c0,0.1,0.1,0.1,0.1,0.2c0.1,0.1,0.1,0.2,0.2,0.4c0,0.1,0.1,0.2,0.1,0.2
						s0,0.1,0.1,0.1c0.1,0.1,0.1,0.3,0.2,0.4l0,0c0,0,0,0.1,0.1,0.1c0.1,0.1,0.1,0.2,0.2,0.3c0.1,0.1,0.1,0.3,0.2,0.5v0.1
						c0.1,0.1,0.1,0.2,0.2,0.4c0,0,0,0.1,0.1,0.1c0,0.1,0.1,0.2,0.1,0.3l0.1,0.2c0,0.1,0.1,0.2,0.1,0.3l0.1,0.2
						c0,0.1,0.1,0.2,0.1,0.3c0,0.1,0,0.1,0.1,0.2c0,0.1,0.1,0.2,0.1,0.3c0,0.1,0,0.1,0.1,0.2c0,0.1,0.1,0.2,0.1,0.3
						c0,0.1,0,0.1,0,0.2s0.1,0.3,0.1,0.4l0,0c0,0.2,0.1,0.3,0.1,0.5v0.1c0,0.1,0,0.2,0.1,0.3c0,0.1,0,0.1,0,0.2s0,0.2,0,0.3
						c0,0.1,0,0.1,0,0.2s0,0.2,0,0.3c0,0.1,0,0.1,0,0.2s0,0.2,0,0.3c0,0.1,0,0.1,0,0.2s0,0.2,0,0.3c0,0.1,0,0.1,0,0.2s0,0.3,0,0.4
						c0,0.2,0,0.3,0,0.5v0.1c0,0.1,0,0.2,0,0.3c0,0.1,0,0.1,0,0.2s0,0.2,0,0.2c0,0.1,0,0.1,0,0.2s0,0.2,0,0.2c0,0.1,0,0.1,0,0.2
						s0,0.1,0,0.2s0,0.2-0.1,0.2c0,0.1,0,0.2-0.1,0.2c0,0,0,0,0,0.1s-0.1,0.2-0.1,0.3v0.1c0,0.1-0.1,0.2-0.1,0.3l0,0
						c0,0.1-0.1,0.2-0.2,0.3l0,0c-0.1,0.1-0.1,0.2-0.2,0.3c0,0,0,0,0,0.1s-0.1,0.1-0.1,0.2l-0.1,0.1c0,0.1-0.1,0.1-0.1,0.2l-0.1,0.1
						c-0.1,0.1-0.1,0.1-0.2,0.2l0,0c-0.1,0.1-0.1,0.1-0.2,0.2l-0.1,0.1c-0.1,0-0.1,0.1-0.2,0.1l-0.1,0.1c-0.1,0.1-0.2,0.1-0.2,0.2
						l2.9-1.7c0.1,0,0.2-0.1,0.2-0.2l0.1-0.1c0.1,0,0.1-0.1,0.2-0.1l0.1-0.1c0.1-0.1,0.1-0.1,0.2-0.2l0,0c0.1-0.1,0.1-0.1,0.2-0.2
						l0.1-0.1c0-0.1,0.1-0.1,0.1-0.2l0.1-0.1c0-0.1,0.1-0.1,0.1-0.2c0,0,0,0,0-0.1l0,0c0.1-0.1,0.1-0.2,0.2-0.3l0,0
						c0.1-0.1,0.1-0.2,0.1-0.3l0,0v-0.1c0-0.1,0.1-0.2,0.1-0.3v-0.1c0,0,0,0,0-0.1s0.1-0.2,0.1-0.3v-0.1v-0.1v-0.1
						c0-0.1,0-0.2,0.1-0.2v-0.1v-0.1c0-0.1,0-0.1,0-0.2v-0.1v-0.1c0-0.1,0-0.1,0-0.2v-0.1c0-0.1,0-0.1,0-0.2s0-0.1,0-0.2
						c0,0,0,0,0-0.1s0-0.2,0-0.2v-0.1l0,0c0-0.1,0-0.3,0-0.4l0,0C-293.6-1437.2-293.6-1437.3-293.7-1437.5"/>
					<path id="패스_14664" class="st5" d="M-302-1447.5c0-6-4.2-13.4-9.5-16.4c-4-2.3-7.4-1.5-8.8,1.7c-5.4-2.9-9.7-0.3-9.7,6
						c0,6.4,4.5,14.2,10,17.4l16.9,9.8c4.6,2.6,8.3,0.5,8.3-4.7C-294.7-1438.7-297.9-1444.5-302-1447.5"/>
					<path id="패스_14665" class="st6" d="M-313.8-1442.9l3.4,6.5c0,0.1,0.1,0.2,0.2,0.2s0.1,0,0.2,0l3.4-2.6
						c0.1-0.1,0-0.5-0.2-0.6l-1.7-1v-7c0-0.2-0.1-0.3-0.2-0.4l-2.8-1.6c-0.1-0.1-0.2,0-0.2,0.1v7l-1.7-1
						C-313.8-1443.4-313.9-1443.2-313.8-1442.9"/>
					<path id="패스_14666" class="st6" d="M-318.8-1455.5l1.7,1v7c0,0.2,0.1,0.3,0.2,0.4l2.8,1.6c0.1,0.1,0.2,0,0.2-0.1v-7l1.7,1
						c0.2,0.1,0.3-0.1,0.2-0.4l-3.4-6.5c0-0.1-0.1-0.2-0.2-0.2s-0.1,0-0.2,0l-3.4,2.6C-319.1-1456-319-1455.6-318.8-1455.5"/>
				</g>
			</g>
			<g id="marketing" transform="translate(43.16 86.268)">
				<g id="그룹_20976" transform="translate(10.743)">
					<path id="패스_14698" class="st3" d="M-313.4-1466.9L-313.4-1466.9c-0.1,0-0.1,0-0.2,0l0,0l0,0c0,0,0,0-0.1,0c0,0,0,0-0.1,0
						l0,0l0,0c0,0-0.1,0-0.1,0.1l0,0l-15.4,9c0,0,0.1,0,0.1-0.1l0,0h0.1l0,0c0,0,0.1,0,0.2,0l0,0h0.1c0,0,0,0,0.1,0s0.1,0,0.1,0h0.1
						h0.1h0.1h0.1c0.1,0,0.2,0.1,0.3,0.1l22.8,13.2c0.1,0.1,0.2,0.1,0.3,0.2h0.1c0.1,0.1,0.2,0.2,0.3,0.3l0.1,0.1l0.1,0.1l0.1,0.1
						l0.1,0.1l0.1,0.1c0,0,0,0.1,0.1,0.1l0.1,0.1v0.1c0,0.1,0.1,0.1,0.1,0.2l0,0c0,0.1,0.1,0.1,0.1,0.2v0.1c0,0.1,0.1,0.1,0.1,0.2
						l0,0c0,0.1,0.1,0.1,0.1,0.2c0,0,0,0,0,0.1s0,0.1,0.1,0.2v0.1v0.1v0.1v0.1c0,0.1,0,0.1,0,0.2v0.1c0,0.1,0,0.2,0,0.4l-0.1,26.2
						c0.1,0.5-0.2,1-0.6,1.3l15.4-9c0.4-0.3,0.6-0.8,0.6-1.3l0.1-26.2c0-0.1,0-0.2,0-0.4l0,0l0,0c0-0.1,0-0.1,0-0.2v-0.1l0,0v-0.1
						v-0.1c0,0,0,0,0-0.1s0-0.1,0-0.1s0,0,0-0.1v-0.1c0,0,0,0,0-0.1l0,0c0-0.1,0-0.1-0.1-0.2l0,0l0,0c0,0,0-0.1-0.1-0.1
						c0,0,0,0,0-0.1v-0.1c0,0,0,0,0-0.1c0,0,0-0.1-0.1-0.1l0,0l0,0c0-0.1-0.1-0.1-0.1-0.2l0,0v-0.1c0,0,0-0.1-0.1-0.1c0,0,0,0,0-0.1
						l-0.1-0.1c0,0,0,0,0-0.1c0,0,0,0-0.1-0.1l-0.1-0.1l0,0l0,0c0-0.1-0.1-0.1-0.1-0.1l0,0l0,0c-0.1-0.1-0.2-0.2-0.3-0.3h-0.1
						c-0.1-0.1-0.2-0.1-0.3-0.2l-22.8-13.2c-0.1,0-0.2-0.1-0.3-0.1l0,0c0,0,0,0-0.1,0h-0.1l0,0l0,0h-0.1c0,0,0,0-0.1,0
						c0,0,0,0-0.1,0c0,0,0,0-0.1,0H-313.4L-313.4-1466.9"/>
					<path id="패스_14643" class="st0" d="M-329.9-1456.5c0-1.3,0.9-1.8,2-1.2l22.8,13.2c1.2,0.8,1.9,2.1,2,3.5l-0.1,26.2
						c0,1.3-0.9,1.8-2,1.2l-22.8-13.2c-1.2-0.8-2-2.1-2-3.5L-329.9-1456.5z"/>
				</g>
				<path id="패스_14699" d="M-322.4-1445.6c0-2.9,2.1-4.1,4.6-2.6l13,7.5c2.7,1.8,4.4,4.7,4.6,7.9v14.9c0,2.9-2.1,4.1-4.6,2.6
					l-13-7.5c-2.7-1.7-4.4-4.7-4.6-7.9V-1445.6z"/>
				<path id="패스_14645" class="st4" d="M-325.5-1446.3L-325.5-1446.3c0.1-0.1,0.2-0.1,0.3-0.1c0.1,0,0.2-0.1,0.2-0.1
					c0.1,0,0.1,0,0.2,0l0,0c0,0,0,0,0.1,0s0.2,0,0.3,0c0.1,0,0.2,0,0.3,0h0.1h0.1c0.1,0,0.1,0,0.2,0s0.3,0,0.4,0.1
					c0.1,0,0.1,0,0.2,0.1s0.1,0,0.2,0.1c0.1,0,0.1,0,0.2,0.1c0.2,0.1,0.4,0.2,0.6,0.3l13,7.5c0.3,0.2,0.6,0.4,0.9,0.6
					c0.1,0.1,0.2,0.2,0.3,0.2c0.1,0.1,0.3,0.2,0.4,0.4c0.1,0.1,0.1,0.1,0.2,0.2s0.1,0.1,0.2,0.2c0,0.1,0.1,0.1,0.2,0.2
					s0.2,0.3,0.4,0.5c0,0.1,0.1,0.1,0.1,0.2l0.1,0.1c0,0.1,0.1,0.1,0.1,0.2c0.1,0.1,0.2,0.3,0.3,0.4s0.2,0.3,0.2,0.4l0,0l0,0
					c0.1,0.1,0.1,0.2,0.2,0.3c0.1,0.1,0.1,0.3,0.2,0.4s0.1,0.3,0.2,0.4l0,0l0,0c0.1,0.1,0.1,0.3,0.2,0.4s0.1,0.3,0.2,0.4
					c0,0.1,0,0.1,0.1,0.2v0.1c0,0.1,0,0.1,0,0.2c0,0.2,0.1,0.4,0.1,0.5s0,0.2,0.1,0.3c0,0.1,0,0.1,0,0.2s0,0.1,0,0.2
					c0,0.3,0.1,0.6,0.1,0.9v14.9c0.1,1.1-0.4,2.3-1.3,2.9l-3.7,2.1c0.9-0.7,1.4-1.8,1.3-2.9v-14.9c0-0.4,0-0.7-0.1-1
					c0-0.1,0-0.1,0-0.2c-0.1-0.3-0.1-0.7-0.2-1v-0.1c-0.1-0.4-0.2-0.7-0.4-1.1l0,0c-0.2-0.4-0.3-0.7-0.5-1.1l0,0
					c-0.2-0.3-0.4-0.7-0.6-1l-0.1-0.1c-0.2-0.3-0.4-0.5-0.7-0.8c-0.1-0.1-0.1-0.1-0.2-0.2c-0.2-0.2-0.4-0.4-0.6-0.5
					c-0.1-0.1-0.2-0.2-0.3-0.2c-0.3-0.2-0.6-0.4-0.9-0.6l-13-7.5c-0.3-0.2-0.5-0.3-0.8-0.4c-0.1,0-0.1,0-0.2-0.1
					c-0.2-0.1-0.5-0.1-0.7-0.2h-0.1c-0.2,0-0.5,0-0.7,0l0,0c-0.2,0-0.5,0.1-0.7,0.2L-325.5-1446.3z"/>
				<path id="패스_14646" class="st5" d="M-330-1441.2c0-2.9,2.1-4.1,4.6-2.6l13,7.5c2.7,1.8,4.4,4.7,4.6,7.9v14.9
					c0,2.9-2.1,4.1-4.6,2.6l-13-7.5c-2.7-1.7-4.4-4.7-4.6-7.9V-1441.2z"/>
				<path id="패스_14647" class="st6" d="M-313-1428.8L-313-1428.8l-0.1-0.2v-0.1l-0.1-0.1l0,0l-0.1-0.1l-11-6.4
					c0,0-0.1,0-0.1-0.1l0,0h-0.1l0,0l-0.1,0.1v0.1v0.1v9.4c0,0.3,0.2,0.5,0.4,0.7l11,6.4c0.2,0.1,0.4,0,0.4-0.2v-9.4
					C-313-1428.7-313-1428.8-313-1428.8 M-313.8-1420.2l-10.2-5.9v-8l4.9,7c0.1,0.1,0.1,0.2,0.2,0.2s0.2,0.1,0.2,0l4.9-1.3V-1420.2z
					"/>
			</g>
			<g id="r_d" transform="translate(-10.97 55.954)">
				<g id="그룹_20974" transform="translate(12.51)">
					<path id="패스_14679" class="st0" d="M-329.9-1456.5c0-1.3,0.9-1.8,2-1.2l22.8,13.2c1.2,0.8,2,2.1,2,3.5l-0.1,26.2
						c0,1.3-0.9,1.8-2,1.2l-22.8-13.2c-1.2-0.8-2-2.1-2-3.5L-329.9-1456.5z"/>
					<path id="패스_14696" class="st3" d="M-313.4-1466.9L-313.4-1466.9c-0.1,0-0.1,0-0.2,0l0,0l0,0c0,0,0,0-0.1,0h-0.1l0,0l0,0
						h-0.1l0,0l-15.4,9c0,0,0.1,0,0.1-0.1l0,0h0.1l0,0c0,0,0.1,0,0.2,0l0,0h0.1h0.1h0.1h0.1h0.1h0.1h0.1c0.1,0,0.2,0.1,0.3,0.1
						l22.8,13.2c0.1,0.1,0.2,0.1,0.3,0.2c0,0,0,0,0.1,0c0.1,0.1,0.2,0.2,0.3,0.3c0,0,0,0,0.1,0.1l0.1,0.1l0.1,0.1l0.1,0.1l0.1,0.1
						l0.1,0.1l0.1,0.1c0,0,0,0,0,0.1s0.1,0.1,0.1,0.2l0,0c0,0.1,0.1,0.1,0.1,0.2v0.1c0,0.1,0.1,0.1,0.1,0.2l0,0
						c0,0.1,0.1,0.1,0.1,0.2v0.1c0,0.1,0,0.1,0.1,0.2v0.1v0.1v0.1v0.1c0,0.1,0,0.1,0,0.2v0.1c0,0.1,0,0.2,0,0.4l-0.1,26.2
						c0.1,0.5-0.2,1-0.6,1.3l15.4-9c0.4-0.3,0.6-0.8,0.6-1.3l0.1-26.2c0-0.1,0-0.2,0-0.4l0,0l0,0c0-0.1,0-0.1,0-0.2c0,0,0,0,0-0.1
						l0,0v-0.1v-0.1c0,0,0,0,0-0.1v-0.1c0,0,0,0,0-0.1v-0.1c0,0,0,0,0-0.1l0,0c0-0.1,0-0.1-0.1-0.2l0,0l0,0c0,0,0-0.1-0.1-0.1v-0.1
						v-0.1c0,0,0,0,0-0.1c0,0,0-0.1-0.1-0.1l0,0l0,0c0-0.1-0.1-0.1-0.1-0.2l0,0c0,0,0,0,0-0.1s0-0.1-0.1-0.1s0,0,0-0.1
						c0,0,0-0.1-0.1-0.1v-0.1c0,0,0,0-0.1-0.1l-0.1-0.1l0,0l0,0c0-0.1-0.1-0.1-0.1-0.1l0,0l0,0c-0.1-0.1-0.2-0.2-0.3-0.3h-0.1
						c-0.1-0.1-0.2-0.1-0.3-0.2l-22.8-13.2c-0.1,0-0.2-0.1-0.3-0.1l0,0c0,0,0,0-0.1,0h-0.1l0,0l0,0h-0.1c0,0,0,0-0.1,0s0,0-0.1,0
						h-0.1L-313.4-1466.9L-313.4-1466.9"/>
				</g>
				<g id="그룹_20972" transform="translate(0 17.34)">
					<path id="패스_14697" d="M-320-1448.3l-1.9,1.8l2.6,4.5l2.5-0.7c1,1.3,2.2,2.6,3.4,3.6l0.4,3.8l3.7,2.1l0.4-3.3
						c1.1,0.4,2.3,0.5,3.4,0.3l2.5,3.6l2.6-1.5l-1.9-4c0.7-0.9,1.2-2,1.4-3.1l3.1,1.3v-4.2l-3.1-2.3c-0.3-1.6-0.8-3.2-1.4-4.8
						l1.9-1.8l-2.6-4.5l-2.5,0.7c-1-1.3-2.2-2.5-3.4-3.6l-0.4-3.8l-3.7-2.1l-0.4,3.3c-1.1-0.4-2.3-0.5-3.4-0.3l-2.5-3.6l-2.6,1.5
						l1.9,4c-0.7,0.9-1.2,2-1.4,3.1l-3.1-1.3v4.2l3.1,2.3C-321.2-1451.5-320.7-1449.9-320-1448.3 M-315.1-1452.1
						c0-2.5,1.8-3.6,4-2.3c2.4,1.5,3.8,4.1,4,6.9c0,2.5-1.8,3.6-4,2.3C-313.5-1446.7-315-1449.3-315.1-1452.1"/>
					<path id="패스_14694" class="st4" d="M-311.1-1435.2l-0.4,3.3l-3.2,1.9l0.4-3.3L-311.1-1435.2z"/>
					<path id="패스_14695" class="st4" d="M-326.8-1458.2l3.1,1.3l-3.2,1.9l-3.1-1.3L-326.8-1458.2z"/>
					<path id="패스_14684" class="st4" d="M-319.4-1451.4l3.2-1.9c-0.8,0.6-1.3,1.6-1.2,2.6c0,0.2,0,0.5,0,0.7c0,0.1,0,0.1,0,0.2
						s0,0.2,0.1,0.3c0,0.1,0,0.1,0,0.2s0,0.1,0,0.2s0,0.2,0.1,0.3c0,0.1,0,0.1,0.1,0.2c0,0.1,0.1,0.2,0.1,0.3v0.1
						c0.1,0.1,0.1,0.3,0.2,0.4l0,0c0.1,0.1,0.1,0.3,0.2,0.4l0.1,0.1c0.1,0.1,0.1,0.2,0.2,0.4v0.1c0.1,0.1,0.2,0.3,0.3,0.4l0.1,0.1
						c0.1,0.1,0.1,0.2,0.2,0.3c0,0.1,0.1,0.1,0.1,0.2c0.1,0.1,0.1,0.2,0.2,0.2s0.1,0.1,0.2,0.2s0.1,0.1,0.2,0.2s0.2,0.2,0.3,0.3
						l0.1,0.1c0.2,0.2,0.4,0.3,0.6,0.5l0.1,0.1c0.2,0.2,0.4,0.3,0.6,0.4s0.3,0.2,0.5,0.2c0.1,0,0.1,0,0.2,0.1c0.1,0,0.2,0.1,0.3,0.1
						c0.1,0,0.1,0,0.2,0.1c0.1,0,0.1,0,0.2,0s0.1,0,0.2,0h0.1c0.1,0,0.2,0,0.3,0h0.1c0.1,0,0.2,0,0.3,0h0.1c0.1,0,0.1,0,0.2-0.1h0.1
						c0.1,0,0.2-0.1,0.3-0.1l-3.2,1.9l0,0c-0.1,0-0.1,0.1-0.2,0.1l0,0c0,0,0,0-0.1,0h-0.1h-0.1c0,0,0,0-0.1,0l0,0
						c-0.1,0-0.2,0-0.2,0h-0.1c-0.1,0-0.1,0-0.2,0c0,0,0,0-0.1,0h-0.1h-0.1h-0.1c-0.1,0-0.1,0-0.2,0h-0.1h-0.1
						c-0.1,0-0.2-0.1-0.3-0.1h-0.1c0,0,0,0-0.1,0c-0.2-0.1-0.3-0.2-0.5-0.2c-0.2-0.1-0.4-0.3-0.6-0.4l-0.1-0.1
						c-0.2-0.2-0.4-0.3-0.6-0.5l0,0l-0.1-0.1c-0.1-0.1-0.2-0.2-0.3-0.3l-0.1-0.1c0,0,0-0.1-0.1-0.1c-0.1-0.1-0.1-0.1-0.2-0.2
						l-0.1-0.1l-0.1-0.1c0,0-0.1-0.1-0.1-0.2l-0.1-0.1c0-0.1-0.1-0.1-0.1-0.2l-0.1-0.1l0,0c-0.1-0.1-0.1-0.2-0.2-0.3l0,0
						c0,0,0,0,0-0.1s-0.1-0.2-0.1-0.2s0-0.1-0.1-0.1l-0.1-0.1c0,0,0-0.1-0.1-0.1c0-0.1-0.1-0.2-0.1-0.3c0,0,0,0,0-0.1l0,0
						c-0.1-0.1-0.1-0.2-0.1-0.4v-0.1v-0.1c0,0,0-0.1-0.1-0.2s0-0.1,0-0.1s0-0.1-0.1-0.2v-0.1c0-0.1,0-0.1,0-0.2s0-0.1-0.1-0.2
						c0,0,0,0,0-0.1s0-0.1,0-0.1c0-0.1,0-0.2-0.1-0.3v-0.1v-0.1c0-0.2,0-0.5,0-0.7C-320.7-1449.8-320.2-1450.8-319.4-1451.4"/>
					<path id="패스_14685" class="st4" d="M-327.3-1462.2l3.2-1.9l2.6-1.5l2.5,3.6c0.2,0,0.4-0.1,0.6-0.1h0.1c0.1,0,0.2,0,0.3,0
						s0.2,0,0.3,0c0.1,0,0.1,0,0.2,0s0.2,0,0.4,0c0.1,0,0.1,0,0.2,0s0.2,0,0.2,0.1c0.2,0,0.3,0.1,0.5,0.1c0.1,0,0.1,0,0.2,0h0.1
						l-2.3-1.3l3.2-1.9l3.7,2.1l0.4,3.8c0.4,0.3,0.8,0.7,1.2,1l0.1,0.1c0.1,0.1,0.1,0.1,0.2,0.2c0.3,0.3,0.5,0.5,0.8,0.8
						c0.1,0.1,0.1,0.1,0.2,0.2l0.1,0.1c0.2,0.2,0.3,0.4,0.5,0.6c0.1,0.1,0.2,0.2,0.3,0.3c0.1,0.1,0.1,0.1,0.2,0.2l2.5-0.7l2.6,4.5
						l-1.9,1.8c0.1,0.2,0.2,0.5,0.3,0.7c0,0.1,0.1,0.2,0.1,0.3c0,0.1,0.1,0.3,0.1,0.4s0.1,0.2,0.1,0.3c0,0.1,0.1,0.3,0.1,0.4
						c0,0.2,0.1,0.3,0.1,0.5c0,0.1,0,0.1,0.1,0.2c0,0.1,0.1,0.3,0.1,0.4c0.1,0.2,0.1,0.4,0.2,0.6c0,0.1,0,0.1,0,0.2
						c0.1,0.3,0.1,0.5,0.2,0.8l3.1,2.3v4.2l-3.2,1.9v-2.9c-0.2,1-0.7,2-1.4,2.9l1.9,4l-3.2,1.9l-1.9-4c0.7-0.9,1.2-2,1.4-3.1
						l3.1-1.8v-1.1l-3.1-2.3c-0.1-0.3-0.1-0.7-0.2-1c0-0.2-0.1-0.4-0.2-0.6s-0.1-0.4-0.2-0.6c0-0.2-0.1-0.3-0.1-0.5
						c-0.1-0.2-0.1-0.5-0.2-0.7c0-0.1-0.1-0.3-0.1-0.4c-0.1-0.3-0.2-0.7-0.4-1l1.9-1.8l-2.6-4.5l-2.5,0.7c-0.1-0.2-0.3-0.4-0.4-0.5
						s-0.3-0.4-0.5-0.6c-0.1-0.1-0.2-0.2-0.3-0.3c-0.2-0.3-0.5-0.5-0.8-0.8c-0.1-0.1-0.2-0.2-0.3-0.3c-0.4-0.4-0.8-0.7-1.2-1
						l-0.4-3.8l-1-0.6l-3.1,1.8c-0.2-0.1-0.5-0.1-0.7-0.2c-0.2,0-0.3-0.1-0.5-0.1s-0.3-0.1-0.5-0.1c-0.1,0-0.2,0-0.4,0
						c-0.2,0-0.3,0-0.5,0c-0.1,0-0.2,0-0.3,0c-0.2,0-0.5,0-0.7,0.1l-2.5-3.6L-327.3-1462.2z"/>
					<path id="패스_14686" class="st5" d="M-325.5-1445.1l-1.9,1.8l2.6,4.5l2.5-0.7c1,1.3,2.2,2.6,3.4,3.6l0.4,3.8l3.7,2.1
						l0.4-3.3c1.1,0.4,2.3,0.5,3.4,0.3l2.5,3.6l2.6-1.5l-1.9-4c0.7-0.9,1.2-2,1.4-3.1l3.1,1.3v-4.2l-3.1-2.3
						c-0.3-1.6-0.8-3.2-1.4-4.8l1.9-1.8l-2.6-4.5l-2.5,0.7c-1-1.3-2.2-2.5-3.4-3.6l-0.4-3.8l-3.7-2.1l-0.4,3.3
						c-1.1-0.4-2.3-0.5-3.4-0.3l-2.5-3.6l-2.6,1.5l1.9,4c-0.7,0.9-1.2,2-1.4,3.1l-3.1-1.3v4.2l3.1,2.3
						C-326.6-1448.2-326.1-1446.6-325.5-1445.1 M-320.6-1448.8c0-2.5,1.8-3.6,4-2.3c2.4,1.5,3.8,4.1,4,6.9c0,2.5-1.8,3.6-4,2.3
						C-318.9-1443.4-320.4-1446-320.6-1448.8"/>
				</g>
			</g>
			<path id="패스_15608" class="st1" d="M-253.7-1394.6l-0.1,26.5"/>
			<path id="패스_15609" class="st1" d="M-197.7-1362.6l-0.1,26.5"/>
			<path id="패스_15610" class="st1" d="M-307.7-1427.6l-0.1,26.5"/>
			<g id="consulting" transform="translate(3.148 -2.039)">
				<g id="그룹_20984" transform="translate(4.942 0)">
					<path id="패스_14705" class="st3" d="M-313.4-1466.9L-313.4-1466.9c-0.1,0-0.2,0-0.2,0l0,0l0,0c0,0,0,0-0.1,0s0,0-0.1,0l0,0
						l0,0c0,0-0.1,0-0.1,0.1l0,0l-15.4,9c0,0,0.1,0,0.1-0.1l0,0h0.1l0,0h0.1l0,0h0.1h0.1h0.1h0.1h0.1h0.1h0.1c0.1,0,0.2,0.1,0.3,0.1
						l22.8,13.2c0.1,0.1,0.2,0.1,0.3,0.2h0.1c0.1,0.1,0.2,0.2,0.3,0.2l0.1,0.1l0.1,0.1l0.1,0.1l0.1,0.1l0.1,0.1c0,0,0,0.1,0.1,0.1
						l0.1,0.1v0.1c0,0.1,0.1,0.1,0.1,0.2l0,0c0,0.1,0.1,0.1,0.1,0.2v0.1c0,0.1,0.1,0.1,0.1,0.2l0,0c0,0.1,0.1,0.1,0.1,0.2
						c0,0,0,0,0,0.1s0,0.1,0.1,0.2v0.1v0.1v0.1v0.1c0,0.1,0,0.1,0,0.2v0.1c0,0.1,0,0.2,0,0.4l-0.1,26.2c0,0.5-0.2,1-0.6,1.3l15.4-9
						c0.4-0.3,0.6-0.8,0.6-1.3l0.1-26.2c0-0.1,0-0.2,0-0.4l0,0l0,0c0-0.1,0-0.1,0-0.2v-0.1l0,0v-0.1v-0.1c0,0,0,0,0-0.1s0-0.1,0-0.1
						v-0.1v-0.1c0,0,0,0,0-0.1l0,0c0-0.1,0-0.1-0.1-0.2l0,0l0,0c0,0,0-0.1-0.1-0.1v-0.1v-0.1c0,0,0,0,0-0.1c0,0,0-0.1-0.1-0.1l0,0
						l0,0c0-0.1-0.1-0.1-0.1-0.2l0,0v-0.1c0,0,0-0.1-0.1-0.1v-0.1l-0.1-0.1v-0.1c0,0,0,0-0.1-0.1l-0.1-0.1l0,0l0,0l-0.1-0.1l0,0l0,0
						c-0.1-0.1-0.2-0.2-0.3-0.3h-0.1c-0.1-0.1-0.2-0.1-0.3-0.2l-22.8-13.2c-0.1,0-0.2-0.1-0.3-0.1l0,0h-0.1h-0.1l0,0l0,0h-0.1
						c0,0,0,0-0.1,0l0,0L-313.4-1466.9L-313.4-1466.9L-313.4-1466.9z"/>
					<path id="패스_14649" class="st0" d="M-329.9-1456.5c0-1.3,0.9-1.8,2-1.2l22.8,13.2c1.2,0.8,1.9,2.1,2,3.5l-0.1,26.2
						c0,1.3-0.9,1.8-2,1.2l-22.8-13.2c-1.2-0.8-2-2.1-2-3.5L-329.9-1456.5z"/>
				</g>
				<path id="패스_14708" d="M-307-1437.4c1.1,0.5,1.8,1.4,2,2.6l-0.1,22.6c0,1-0.9,1.3-2,0.9c-1.1-0.5-1.8-1.4-2-2.6l0.1-22.6
					C-308.9-1437.5-308-1437.9-307-1437.4"/>
				<path id="패스_14707" d="M-315.5-1452.8c1.1,0.5,1.8,1.4,2,2.6l-0.1,34.2c0,1-0.9,1.3-2,0.9c-1.1-0.5-1.8-1.4-2-2.6l0.1-34.2
					C-317.5-1452.9-316.6-1453.2-315.5-1452.8"/>
				<path id="패스_14706" d="M-324-1466.2c1.1,0.5,1.8,1.4,2,2.6l-0.2,43.8c0,1-0.9,1.3-2,0.9c-1.1-0.5-1.8-1.4-2-2.6l0.2-43.8
					C-326-1466.3-325.1-1466.7-324-1466.2"/>
				<path id="패스_14653" class="st4" d="M-311.3-1436.8L-311.3-1436.8h-0.2h-0.1h-0.1h-0.1l0,0h-0.1l0,0h-0.1l0,0h-0.1l1.5-0.7
					l0,0h0.1l0,0l0,0h0.1h0.1l0,0l0,0h0.1l0,0h0.1l0,0h0.1c0,0,0,0,0.1,0l0,0h0.1l0,0l0,0h0.1l0,0l0,0c0.1,0,0.2,0.1,0.2,0.1
					c0.1,0.1,0.3,0.1,0.4,0.2l0.1,0.1c0.1,0,0.1,0.1,0.2,0.1c0,0,0,0,0.1,0.1l0.1,0.1c0,0,0.1,0,0.1,0.1c0.1,0,0.1,0.1,0.2,0.1
					l0.1,0.1l0,0l0.1,0.1l0.1,0.1l0.1,0.1l0,0l0,0l0.1,0.1l0.1,0.1c0,0,0,0.1,0.1,0.1l0,0l0,0c0,0,0,0.1,0.1,0.1s0,0.1,0.1,0.1
					c0,0,0,0,0,0.1s0,0,0,0s0,0,0,0.1s0,0.1,0.1,0.2v0.1c0,0,0,0,0,0.1c0,0,0,0,0,0.1s0,0.2,0,0.3l-0.1,22.6c0,0.4-0.2,0.8-0.6,1
					l-1.5,0.7c0.4-0.2,0.6-0.6,0.6-1l0.1-22.6c0-0.1,0-0.2,0-0.3c0,0,0,0,0-0.1s-0.1-0.2-0.1-0.3l0,0c0-0.1-0.1-0.2-0.2-0.4l0,0
					c-0.1-0.1-0.1-0.2-0.2-0.4l0,0c-0.1-0.1-0.2-0.2-0.3-0.3l0,0c-0.1-0.1-0.2-0.2-0.3-0.3l-0.1-0.1c-0.1-0.1-0.2-0.1-0.2-0.2
					l-0.1-0.1c-0.1-0.1-0.2-0.1-0.4-0.2c-0.1,0-0.2-0.1-0.2-0.1h-0.1C-311.2-1436.7-311.2-1436.7-311.3-1436.8"/>
				<path id="패스_14654" class="st4" d="M-319.8-1452.1L-319.8-1452.1h-0.2h-0.1h-0.1h-0.1l0,0h-0.1l0,0h-0.1l0,0h-0.1l1.5-0.7
					l0,0h0.1l0,0l0,0h0.1c0,0,0,0,0.1,0l0,0l0,0h0.1l0,0h0.1l0,0h0.1c0,0,0,0,0.1,0l0,0h0.1l0,0l0,0h0.1l0,0l0,0
					c0.1,0,0.2,0.1,0.2,0.1c0.1,0.1,0.3,0.1,0.4,0.2l0.1,0.1c0.1,0,0.1,0.1,0.2,0.1c0,0,0,0,0.1,0.1c0,0,0,0,0.1,0.1
					c0,0,0.1,0,0.1,0.1c0.1,0,0.1,0.1,0.2,0.1c0,0,0,0,0.1,0.1l0,0c0,0,0,0,0.1,0.1l0.1,0.1l0.1,0.1l0,0l0,0l0.1,0.1l0.1,0.1
					c0,0,0,0.1,0.1,0.1l0,0l0,0c0,0,0,0.1,0.1,0.1c0,0,0,0.1,0.1,0.1c0,0,0,0,0,0.1l0,0c0,0,0,0,0,0.1s0,0.1,0.1,0.2v0.1
					c0,0,0,0,0,0.1c0,0,0,0,0,0.1s0,0.2,0,0.3l-0.1,34.2c0,0.4-0.2,0.8-0.6,1l-1.5,0.7c0.4-0.2,0.6-0.6,0.6-1l0.1-34.2
					c0-0.1,0-0.2,0-0.3c0,0,0,0,0-0.1s-0.1-0.2-0.1-0.3l0,0c0-0.1-0.1-0.2-0.2-0.4l0,0c-0.1-0.1-0.1-0.2-0.2-0.4l0,0
					c-0.1-0.1-0.2-0.2-0.3-0.3l0,0c-0.1-0.1-0.2-0.2-0.3-0.3l-0.1-0.1c-0.1-0.1-0.2-0.1-0.2-0.2l-0.1-0.1c-0.1-0.1-0.2-0.1-0.4-0.2
					c-0.1,0-0.2-0.1-0.2-0.1h-0.1C-319.7-1452.1-319.7-1452.1-319.8-1452.1"/>
				<path id="패스_14655" class="st4" d="M-327.8-1466.2L-327.8-1466.2h0.1l0,0l0,0h0.1c0,0,0,0,0.1,0l0,0l0,0h0.1h0.1l0,0h0.1
					h0.1l0,0h0.1l0,0l0,0h0.1l0,0l0,0c0.1,0,0.2,0.1,0.2,0.1c0.1,0.1,0.3,0.1,0.4,0.2l0.1,0.1c0.1,0,0.1,0.1,0.2,0.1
					c0,0,0,0,0.1,0.1s0,0,0.1,0.1c0,0,0.1,0,0.1,0.1c0.1,0,0.1,0.1,0.2,0.1c0,0,0,0,0.1,0.1l0,0l0.1,0.1l0.1,0.1l0.1,0.1l0,0l0,0
					l0.1,0.1l0.1,0.1c0,0,0,0.1,0.1,0.1l0,0l0,0c0,0,0,0.1,0.1,0.1c0,0,0,0.1,0.1,0.1c0,0,0,0,0,0.1l0,0c0,0,0,0,0,0.1
					s0,0.1,0.1,0.2v0.1c0,0,0,0,0,0.1c0,0,0,0,0,0.1s0,0.2,0,0.3l-0.2,43.8c0,0.4-0.2,0.8-0.6,1l-1.5,0.7c0.4-0.2,0.6-0.6,0.6-1
					l0.2-43.8c0-0.1,0-0.2,0-0.3c0,0,0,0,0-0.1s-0.1-0.2-0.1-0.3l0,0c0-0.1-0.1-0.2-0.2-0.4l0,0c-0.1-0.1-0.1-0.2-0.2-0.4l0,0
					c-0.1-0.1-0.2-0.2-0.3-0.3l0,0c-0.1-0.1-0.2-0.2-0.3-0.3l-0.1-0.1c-0.1-0.1-0.2-0.1-0.2-0.2l-0.1-0.1c-0.1-0.1-0.2-0.1-0.4-0.2
					c-0.1,0-0.2-0.1-0.2-0.1h-0.1h-0.1h-0.1h-0.1h-0.1h-0.1h-0.1l0,0h-0.1l0,0h-0.1l0,0h-0.1l0,0L-327.8-1466.2z"/>
				<path id="패스_14656" class="st5" d="M-310.8-1436.6c1.1,0.5,1.8,1.4,2,2.6l-0.1,22.6c0,1-0.9,1.3-2,0.9
					c-1.1-0.5-1.8-1.4-2-2.6l0.1-22.6C-312.8-1436.7-311.9-1437.1-310.8-1436.6"/>
				<path id="패스_14657" class="st5" d="M-319.3-1452c1.1,0.5,1.8,1.4,2,2.6l-0.1,34.2c0,1-0.9,1.3-2,0.9c-1.1-0.5-1.8-1.4-2-2.6
					l0.1-34.2C-321.3-1452.1-320.4-1452.5-319.3-1452"/>
				<path id="패스_14658" class="st5" d="M-327.9-1465.4c1.1,0.5,1.8,1.4,2,2.6l-0.2,43.8c0,1-0.9,1.3-2,0.9
					c-1.1-0.5-1.8-1.4-2-2.6l0.2-43.8C-329.8-1465.5-329-1465.9-327.9-1465.4"/>
			</g>
			<g id="academy" transform="translate(109.276 64.364)">
				<g id="box" transform="translate(7.756)">
					<path id="패스_14709" class="st3" d="M-313.4-1466.9L-313.4-1466.9c-0.1,0-0.1,0-0.2,0l0,0l0,0h-0.1h-0.1l0,0l0,0h-0.1l0,0
						l-15.4,9c0,0,0.1,0,0.1-0.1l0,0h0.1l0,0h0.1l0,0h0.1h0.1h0.1h0.1h0.1h0.1h0.1c0.1,0,0.2,0.1,0.3,0.1l22.8,13.2
						c0.1,0.1,0.2,0.1,0.3,0.2c0,0,0,0,0.1,0c0.1,0.1,0.2,0.2,0.3,0.3c0,0,0,0,0.1,0.1l0.1,0.1l0.1,0.1l0.1,0.1l0.1,0.1l0.1,0.1
						l0.1,0.1v0.1c0,0.1,0.1,0.1,0.1,0.2l0,0c0,0.1,0.1,0.1,0.1,0.2v0.1c0,0.1,0.1,0.1,0.1,0.2l0,0c0,0.1,0.1,0.1,0.1,0.2
						c0,0,0,0,0,0.1s0,0.1,0.1,0.2v0.1v0.1v0.1v0.1c0,0.1,0,0.1,0,0.2v0.1c0,0.1,0,0.2,0,0.4l-0.1,26.2c0,0.5-0.2,1-0.6,1.3l15.4-9
						c0.4-0.3,0.6-0.8,0.6-1.3l0.1-26.2c0-0.1,0-0.2,0-0.4l0,0l0,0c0-0.1,0-0.1,0-0.2v-0.1l0,0v-0.1v-0.1c0,0,0,0,0-0.1s0-0.1,0-0.1
						s0,0,0-0.1v-0.1v-0.1l0,0c0-0.1,0-0.1-0.1-0.2l0,0l0,0c0,0,0-0.1-0.1-0.1v-0.1v-0.1c0,0,0,0,0-0.1c0,0,0-0.1-0.1-0.1l0,0l0,0
						c0-0.1-0.1-0.1-0.1-0.2l0,0c0,0,0,0,0-0.1c0,0,0-0.1-0.1-0.1v-0.1c0,0,0-0.1-0.1-0.1v-0.1l-0.1-0.1l-0.1-0.1l0,0l0,0l-0.1-0.1
						l0,0l0,0c-0.1-0.1-0.2-0.2-0.3-0.3h-0.1c-0.1-0.1-0.2-0.1-0.3-0.2l-22.8-13.2c-0.1,0-0.2-0.1-0.3-0.1l0,0c0,0,0,0-0.1,0h-0.1
						l0,0l0,0h-0.1h-0.1h-0.1h-0.1C-313.3-1466.9-313.3-1466.9-313.4-1466.9L-313.4-1466.9"/>
					<path id="패스_14668" class="st0" d="M-329.9-1456.5c0-1.3,0.9-1.8,2-1.2l22.8,13.2c1.2,0.8,1.9,2.1,2,3.5l-0.1,26.2
						c0,1.3-0.9,1.8-2,1.2l-22.8-13.2c-1.2-0.8-2-2.1-2-3.5L-329.9-1456.5z"/>
				</g>
				<g id="책" transform="translate(0 14.281)">
					<path id="패스_14715" class="st7" d="M-322.2-1466.9c0.1,0.5,0.4,0.9,0.8,1.2l19.3,11.6c0,0,0.1-6.8,0,0s-0.4,27.1-0.4,27.1
						l-20.2-12.1l0.4-27.2L-322.2-1466.9"/>
					<path id="패스_14711" class="st5" d="M-326.1-1437.6l20.2,12.1l0.4-27.1l-20.2-12.1L-326.1-1437.6z"/>
					<path id="패스_14676" class="st8" d="M-304.8-1453l-0.6,0.4l-0.4,27.1l0.6-0.3L-304.8-1453z"/>
					<path id="패스_14714" class="st5" d="M-328.6-1464.1l-0.6,1.1l0.9,0.9l3-1.2l0.1-1.4l-1.4-0.2L-328.6-1464.1z"/>
					<path id="패스_14712" class="st9" d="M-308.5-1426.1c-0.3,0.2-0.6,0.4-0.8,0.6l-0.3,0.4l-14.6-8.7c-0.4-0.2-0.6-0.6-0.5-1
						c0.1-0.2,0.3-0.4,0.5-0.5l0.2-0.1c0.8-0.4,1.8-0.4,2.7,0l11.6,7l-0.4-22.3l1.3-1.5l2.3-0.1l-0.3,25.8
						C-307.3-1426.6-307.9-1426.4-308.5-1426.1"/>
					<path id="패스_14713" class="st10" d="M-324.7-1463.5l18.3,10.9c-0.8,0.1-1.5,0.4-2.2,0.8c-0.6,0.3-1.1,0.7-1.4,1.3
						l-18.3-10.9c-0.5-0.2-0.8-0.8-0.6-1.3c0.1-0.3,0.3-0.5,0.6-0.6l0.3-0.2C-327-1464-325.8-1464-324.7-1463.5"/>
					<path id="패스_14702" class="st4" d="M-309.4-1450.5l-0.4,27.1l0.6-0.3l0.4-27.1L-309.4-1450.5z"/>
					<path id="패스_14710" class="st11" d="M-328.4-1464.6l-0.3,0.2c-0.7,0.2-1,0.9-0.8,1.6c0.1,0.4,0.4,0.7,0.8,0.8l19.3,11.6
						l0.6-0.4l-19.3-11.6c-0.5-0.2-0.7-0.7-0.5-1.2c0.1-0.3,0.3-0.5,0.6-0.5l0.3-0.2c0.9-0.5,2-0.4,2.9,0l19.3,11.6l0.6-0.4
						l-19.3-11.6c-0.7-0.4-1.4-0.5-2.2-0.5C-327-1465.1-327.7-1465-328.4-1464.6"/>
					<path id="패스_14677" class="st12" d="M-329.6-1463.2c0.1,0.5,0.4,0.9,0.8,1.2l19.3,11.6l0,0l-0.4,27.1l-20.2-12.1l0.4-27.2
						L-329.6-1463.2"/>
				</g>
			</g>
			<g id="IT_data" transform="translate(48.461 31.684)">
				<g id="그룹_20979" transform="translate(15.498)">
					<path id="패스_14701" class="st3" d="M-313.4-1466.9L-313.4-1466.9c-0.1,0-0.1,0-0.2,0l0,0l0,0c0,0,0,0-0.1,0c0,0,0,0-0.1,0
						l0,0l0,0h-0.1l0,0l-15.4,9c0,0,0.1,0,0.1-0.1l0,0h0.1l0,0h0.1l0,0h0.1h0.1h0.1h0.1h0.1c0,0,0.1,0,0.1,0.1h0.1
						c0.1,0,0.2,0.1,0.3,0.1l22.8,13.1c0.1,0.1,0.2,0.1,0.3,0.2h0.1c0.1,0.1,0.2,0.2,0.3,0.2l0.1,0.1l0.1,0.1l0.1,0.1l0.1,0.1
						l0.1,0.1l0.1,0.1l0.1,0.1v0.1c0,0.1,0.1,0.1,0.1,0.2l0,0c0,0.1,0.1,0.1,0.1,0.2v0.1c0,0.1,0.1,0.1,0.1,0.2l0,0
						c0,0.1,0.1,0.1,0.1,0.2c0,0,0,0,0,0.1s0,0.1,0.1,0.2v0.1v0.1v0.1v0.1c0,0.1,0,0.1,0,0.2v0.1c0,0.1,0,0.2,0,0.4l-0.1,26.2
						c0.1,0.5-0.2,1-0.6,1.3l15.4-9c0.4-0.3,0.6-0.8,0.6-1.3l0.1-26.2c0-0.1,0-0.2,0-0.4l0,0l0,0c0-0.1,0-0.1,0-0.2v-0.1l0,0v-0.1
						v-0.1c0,0,0,0,0-0.1v-0.1c0,0,0,0,0-0.1s0-0.1,0-0.1s0,0,0-0.1l0,0c0-0.1,0-0.1-0.1-0.2l0,0l0,0c0,0,0-0.1-0.1-0.1v-0.1
						c0,0,0,0,0-0.1v-0.1c0,0,0-0.1-0.1-0.1l0,0l0,0c0-0.1-0.1-0.1-0.1-0.2l0,0v-0.1c0,0,0-0.1-0.1-0.1s0,0,0-0.1l-0.1-0.1v-0.1
						l-0.1-0.1l-0.1-0.1l0,0l0,0c0-0.1-0.1-0.1-0.1-0.1l0,0l0,0c-0.1-0.1-0.2-0.2-0.3-0.3h-0.1c-0.1-0.1-0.2-0.1-0.3-0.2l-22.8-13.1
						c-0.1,0-0.2-0.1-0.3-0.1l0,0c0,0,0,0-0.1,0c0,0-0.1,0-0.1-0.1l0,0l0,0h-0.1c0,0,0,0-0.1,0c0,0,0,0-0.1,0h-0.1L-313.4-1466.9
						L-313.4-1466.9"/>
					<path id="패스_14688" class="st0" d="M-329.9-1456.5c0-1.3,0.9-1.8,2-1.2l22.8,13.1c1.2,0.8,1.9,2.1,2,3.5l-0.1,26.2
						c0,1.3-0.9,1.8-2,1.2l-22.8-13.2c-1.2-0.8-1.9-2.1-2-3.5L-329.9-1456.5z"/>
				</g>
				<g id="그룹_20978" transform="translate(0 16.519)">
					<path id="패스_14700" d="M-323.2-1456.7c0,9.1,6.4,20.2,14.3,24.7s14.4,0.9,14.4-8.2s-6.4-20.2-14.3-24.7
						C-316.7-1469.5-323.1-1465.8-323.2-1456.7"/>
					<path id="패스_14690" class="st4" d="M-321.6-1464.7L-321.6-1464.7c0.2-0.1,0.3-0.2,0.5-0.2h0.1c0.1,0,0.1-0.1,0.2-0.1
						s0.1,0,0.2-0.1h0.1c0.2-0.1,0.3-0.1,0.5-0.2l0,0l0,0c0.2,0,0.3-0.1,0.5-0.1h0.1c0.1,0,0.1,0,0.1,0c0.1,0,0.2,0,0.3,0h0.1
						c0.2,0,0.3,0,0.5,0h0.1h0.1c0.1,0,0.3,0,0.4,0h0.2h0.1c0.1,0,0.2,0,0.3,0c0.1,0,0.1,0,0.2,0c0.2,0,0.4,0,0.6,0.1l0,0l0,0
						c0.2,0,0.4,0.1,0.6,0.1c0.1,0,0.1,0,0.2,0.1c0.1,0,0.3,0.1,0.4,0.1l0,0c0.3,0.1,0.5,0.2,0.8,0.2c0.1,0,0.1,0,0.2,0.1
						c0.2,0.1,0.4,0.2,0.6,0.2h0.1c0.2,0.1,0.3,0.1,0.5,0.2h0.1c0.2,0.1,0.4,0.2,0.6,0.3l0.2,0.1c0.2,0.1,0.4,0.2,0.7,0.4
						c0.2,0.1,0.5,0.3,0.7,0.4c0.1,0,0.1,0.1,0.2,0.1c0.2,0.1,0.3,0.2,0.5,0.3c0.1,0.1,0.2,0.1,0.3,0.2c0.1,0.1,0.3,0.2,0.4,0.3
						c0.1,0.1,0.2,0.1,0.3,0.2c0.1,0.1,0.3,0.2,0.4,0.3c0.1,0.1,0.2,0.1,0.2,0.2c0.2,0.1,0.3,0.3,0.5,0.4c0.1,0.1,0.1,0.1,0.2,0.1
						c0.2,0.2,0.4,0.4,0.6,0.6l0.1,0.1c0.1,0.1,0.3,0.3,0.4,0.4c0,0,0,0,0.1,0.1c0.2,0.2,0.5,0.5,0.7,0.8l0,0
						c0.2,0.2,0.5,0.5,0.7,0.7l0.1,0.1c0.1,0.1,0.2,0.2,0.3,0.3s0.2,0.2,0.3,0.3c0.1,0.1,0.2,0.3,0.3,0.4c0.1,0.1,0.2,0.2,0.3,0.3
						v0.1l0.1,0.1c0.3,0.4,0.5,0.7,0.8,1.1l0.1,0.1v0.1c0.2,0.4,0.5,0.7,0.7,1.1l0.1,0.1c0,0.1,0.1,0.1,0.1,0.2
						c0.2,0.3,0.4,0.6,0.6,0.9l0.1,0.1c0,0,0,0,0,0.1c0.2,0.4,0.4,0.7,0.6,1.1v0.1c0,0.1,0.1,0.1,0.1,0.2c0.1,0.3,0.3,0.6,0.4,0.9
						c0,0.1,0.1,0.1,0.1,0.2v0.1c0.2,0.4,0.3,0.7,0.5,1.1l0,0v0.1c0.1,0.3,0.3,0.7,0.4,1c0,0.1,0,0.1,0.1,0.2c0,0.1,0,0.1,0,0.1
						c0.1,0.4,0.3,0.8,0.4,1.2l0,0c0.1,0.3,0.2,0.5,0.2,0.8c0,0.1,0,0.1,0.1,0.2c0,0.2,0.1,0.3,0.1,0.5v0.1c0,0.1,0.1,0.2,0.1,0.4
						c0,0.2,0.1,0.3,0.1,0.5c0,0.1,0.1,0.2,0.1,0.4c0,0.1,0,0.2,0.1,0.3c0,0.1,0,0.1,0,0.2c0,0.2,0.1,0.4,0.1,0.6
						c0,0.1,0,0.3,0.1,0.4c0,0.2,0.1,0.4,0.1,0.6c0,0.1,0,0.2,0,0.3v0.1c0,0.1,0,0.2,0,0.3c0,0.2,0,0.4,0.1,0.6c0,0.1,0,0.2,0,0.3
						c0,0.2,0,0.4,0,0.6c0,0.1,0,0.2,0,0.2c0,0.3,0,0.5,0,0.8c0,4.5-1.6,7.7-4.2,9.2l-4.3,2.5c2.6-1.5,4.2-4.7,4.2-9.2
						c0-0.3,0-0.5,0-0.8c0-0.1,0-0.2,0-0.2c0-0.2,0-0.4,0-0.6c0-0.1,0-0.2,0-0.3c0-0.2,0-0.4-0.1-0.6c0-0.1,0-0.2,0-0.3
						c0-0.1,0-0.3-0.1-0.4c0-0.2-0.1-0.4-0.1-0.6c0-0.1,0-0.3-0.1-0.4c0-0.2-0.1-0.4-0.1-0.6c0-0.1-0.1-0.3-0.1-0.4
						s-0.1-0.2-0.1-0.4c0-0.2-0.1-0.3-0.1-0.5c0-0.1-0.1-0.2-0.1-0.4c-0.1-0.2-0.1-0.4-0.2-0.6c0-0.1,0-0.1-0.1-0.2
						c-0.1-0.3-0.2-0.5-0.3-0.8c-0.1-0.4-0.3-0.8-0.4-1.2c0-0.1-0.1-0.2-0.1-0.3c-0.1-0.3-0.3-0.7-0.4-1c0-0.1,0-0.1-0.1-0.2
						c-0.2-0.4-0.3-0.7-0.5-1.1c0-0.1-0.1-0.2-0.1-0.3c-0.1-0.3-0.3-0.6-0.4-0.9c0-0.1-0.1-0.2-0.1-0.3c-0.2-0.4-0.4-0.7-0.6-1.1
						c0-0.1-0.1-0.1-0.1-0.2c-0.2-0.3-0.4-0.6-0.6-0.9c-0.1-0.1-0.1-0.2-0.2-0.3c-0.2-0.4-0.5-0.7-0.7-1.1c0-0.1-0.1-0.1-0.1-0.2
						c-0.3-0.4-0.5-0.7-0.8-1.1c0-0.1-0.1-0.1-0.1-0.2c-0.1-0.1-0.2-0.2-0.3-0.3c-0.1-0.1-0.2-0.3-0.3-0.4c-0.1-0.1-0.2-0.2-0.3-0.3
						c-0.1-0.1-0.2-0.3-0.3-0.4c-0.2-0.3-0.4-0.5-0.7-0.7l0,0c-0.2-0.3-0.5-0.5-0.7-0.8c-0.2-0.2-0.3-0.3-0.5-0.5l-0.1-0.1
						c-0.2-0.2-0.4-0.4-0.6-0.6c-0.1-0.1-0.1-0.1-0.2-0.1c-0.2-0.1-0.3-0.3-0.5-0.4c-0.1-0.1-0.2-0.1-0.2-0.2
						c-0.1-0.1-0.3-0.2-0.4-0.3l-0.3-0.2c-0.1-0.1-0.3-0.2-0.4-0.3l-0.3-0.2c-0.2-0.1-0.3-0.2-0.5-0.3c-0.1,0-0.1-0.1-0.2-0.1
						c-0.2-0.1-0.5-0.3-0.7-0.4s-0.4-0.2-0.7-0.4l-0.2-0.1c-0.2-0.1-0.4-0.2-0.6-0.3h-0.1c-0.2-0.1-0.4-0.2-0.6-0.3
						c-0.2-0.1-0.4-0.2-0.6-0.2c-0.1,0-0.1,0-0.2-0.1c-0.3-0.1-0.5-0.2-0.8-0.2c-0.1,0-0.3-0.1-0.4-0.1s-0.1,0-0.2-0.1
						c-0.2,0-0.4-0.1-0.6-0.1l0,0c-0.2,0-0.4-0.1-0.6-0.1c-0.1,0-0.1,0-0.2,0s-0.3,0-0.4,0h-0.2c-0.1,0-0.3,0-0.4,0h-0.1
						c-0.2,0-0.4,0-0.5,0h-0.1c-0.1,0-0.3,0-0.4,0.1h-0.1c-0.2,0-0.3,0.1-0.5,0.1l0,0c-0.2,0-0.3,0.1-0.5,0.2h-0.1
						c-0.1,0.1-0.3,0.1-0.4,0.2h-0.1c-0.2,0.1-0.3,0.2-0.5,0.2L-321.6-1464.7z"/>
					<path id="패스_14691" class="st5" d="M-329-1453c0,9.1,6.4,20.2,14.3,24.7c7.9,4.6,14.4,0.9,14.4-8.2s-6.4-20.2-14.3-24.7
						C-322.5-1465.8-329-1462.1-329-1453"/>
					<path id="패스_14692" class="st6" d="M-322.6-1443.3c0.6-3.4,3.4-4.6,6.9-2.6c3.6,2.4,6.1,6.2,6.8,10.5
						c0.1,0.8-0.4,1.2-1,0.8l-11.6-6.7C-322.2-1441.7-322.6-1442.5-322.6-1443.3"/>
					<path id="패스_14693" class="st6" d="M-315.7-1447.8c-1.7-1.1-2.8-3-3-5.1c0-1.9,1.3-2.6,3-1.7c1.7,1.1,2.8,3,3,5.1
						C-312.7-1447.6-314.1-1446.8-315.7-1447.8"/>
				</g>
			</g>
		</g>
		<g id="그룹_20870" transform="translate(-42.1 108.692)">
			<path id="패스_14719" class="st4" d="M-324.3-1466.6c0,0-3.9,1.7-3.9,1.8c-1,0.7,0.6,1.1,0.6,3.1v68.3c0,3.9,2.3,8.3,5.2,10
				l25.6,14.8c1.3,0.7-0.3,1.9,0.7,1.6c0.1,0,4.3-2,4.4-2c1.1-0.7,1.7-2.1,1.7-4.2v-68.3c0-3.9-2.3-8.3-5.2-10l-25.6-14.8
				c-0.6-0.4-1.2-0.5-1.9-0.6C-323.2-1466.9-323.8-1466.8-324.3-1466.6"/>
			<path id="패스_14622" class="st5" d="M-299.1-1367.5l-25.6-14.8c-2.9-1.7-5.2-6.1-5.2-10v-68.3c0-3.9,2.3-5.6,5.2-4l25.6,14.8
				c2.9,1.7,5.2,6.1,5.2,10v68.3C-293.9-1367.6-296.2-1365.8-299.1-1367.5"/>
			<path id="패스_14624" class="st11" d="M-328.3-1391.4v-68c0-2.8,1.7-4.1,3.8-2.9l25,14.4c2.1,1.2,3.8,4.5,3.8,7.3v68
				c0,2.8-1.7,4.1-3.8,2.9l-25-14.4C-326.5-1385.3-328.3-1388.6-328.3-1391.4"/>
			<path id="패스_14718" class="st13" d="M-324.1-1461.6c-2-1.2-3.6-0.2-3.6,2.1v68.8c0.1,2.5,1.5,4.9,3.6,6.2l24.4,14.1
				c2,1.2,3.6,0.2,3.6-2.1v-68.8c-0.1-2.5-1.5-4.9-3.6-6.2L-324.1-1461.6z"/>
			<path id="패스_14717" class="st14" d="M-291.9-1426.4c-0.8,0.6-1.3,1.5-1.3,2.5v5.6c0,1,0.6,1.4,1.3,1c0.8-0.6,1.3-1.5,1.3-2.5
				v-5.6c0-0.7-0.3-1.2-0.8-1.2C-291.6-1426.5-291.8-1426.5-291.9-1426.4"/>
			<g id="그룹_21293" transform="translate(5.482 37.607)">
				<path id="패스_15605" class="st15" d="M-304.7-1471.6c1.5,1,2.5,2.7,2.7,4.5c0,1.5-1.2,1.9-2.7,1c-1.5-1-2.5-2.7-2.7-4.5
					C-307.4-1472.1-306.2-1472.6-304.7-1471.6"/>
				
					<linearGradient id="패스_15600_00000160908989012352187040000007780451165726363778_" gradientUnits="userSpaceOnUse" x1="-2538.3882" y1="-1177.6886" x2="-2540.0752" y2="-1179.7699" gradientTransform="matrix(5.4353 0 0 -8.9536 13490.7295 -12010.7617)">
					<stop  offset="0" style="stop-color:#0077C0"/>
					<stop  offset="1" style="stop-color:#00C0F3"/>
				</linearGradient>
				<path id="패스_15600" style="fill:url(#패스_15600_00000160908989012352187040000007780451165726363778_);" d="
					M-309.7-1466.9L-309.7-1466.9l-4.6,9.3l-3,6l0.4,1.2c0.5,1.4,1.4,2.7,2.6,3.5c1.2,0.7,2.2,0.7,2.6-0.1l7.2-14.6
					c0.3-1.7-0.3-3.5-1.6-4.7c-0.6-0.8-1.5-1.2-2.5-1.3C-309-1467.6-309.5-1467.3-309.7-1466.9"/>
				
					<linearGradient id="패스_15602_00000054978256042023029110000008548662465271200147_" gradientUnits="userSpaceOnUse" x1="-2393.3308" y1="-1199.9626" x2="-2391.9575" y2="-1201.949" gradientTransform="matrix(3.522 0 0 -6.9396 8108.2676 -9796.1982)">
					<stop  offset="0" style="stop-color:#00C0F3"/>
					<stop  offset="1" style="stop-color:#0077C0"/>
				</linearGradient>
				<path id="패스_15602" style="fill:url(#패스_15602_00000054978256042023029110000008548662465271200147_);" d="M-323-1465.8
					L-323-1465.8L-323-1465.8 M-321.7-1468.3l-0.4,0.8l-0.9,1.8c0.2-0.4,0.7-0.3,1.2,0.2c0.3,0.3,0.4,0.6,0.6,0.9l2.1,6.9l1.5,5.3
					l3-6l-1.9-6.4c-0.5-1.4-1.4-2.7-2.6-3.5l0,0c-0.4-0.3-1-0.5-1.5-0.5C-321.1-1469-321.5-1468.7-321.7-1468.3"/>
				
					<linearGradient id="패스_15604_00000093159745761055224850000009304442014207373239_" gradientUnits="userSpaceOnUse" x1="-2366.5195" y1="-1223.4844" x2="-2367.9214" y2="-1224.9124" gradientTransform="matrix(3.315 0 0 -5.6606 7524.4722 -8388.0908)">
					<stop  offset="0" style="stop-color:#0077C0"/>
					<stop  offset="1" style="stop-color:#00C0F3"/>
				</linearGradient>
				<path id="패스_15604" style="fill:url(#패스_15604_00000093159745761055224850000009304442014207373239_);" d="M-323-1465.8
					l-1,2l-3,5.9l0.4,1.2c0.5,1.4,1.4,2.6,2.6,3.5l0,0c1.2,0.7,2.2,0.7,2.6-0.1l2.3-4.5l-2.1-6.9c-0.2-0.6-0.6-1.1-1.2-1.3
					c-0.1,0-0.1,0-0.2,0C-322.8-1466-322.9-1465.9-323-1465.8"/>
				
					<linearGradient id="패스_15607_00000037662853824362792330000006471341617127957914_" gradientUnits="userSpaceOnUse" x1="-2342.2166" y1="-1199.5656" x2="-2340.7102" y2="-1201.5424" gradientTransform="matrix(3.1266 0 0 -6.927 6992.6704 -9784.9863)">
					<stop  offset="0" style="stop-color:#00C0F3"/>
					<stop  offset="1" style="stop-color:#0077C0"/>
				</linearGradient>
				<path id="패스_15607" style="fill:url(#패스_15607_00000037662853824362792330000006471341617127957914_);" d="
					M-330.5-1475.3c-1.1,0-1.6,1.1-1.1,2.6l4.2,13.8l3-5.9l-2-6.5c-0.5-1.8-1.8-3.2-3.6-3.9l0,0
					C-330.1-1475.3-330.3-1475.3-330.5-1475.3L-330.5-1475.3z"/>
			</g>
		</g>
		<g id="그룹_20887" transform="translate(-64.622 145.716)">
			<path id="패스_14627" class="st20" d="M-325.3-1398.9c0.1-0.2,0.2-0.3,0.6-0.3s0.9-0.1,1.3-0.1l1.8-0.1c0-0.5,0-1-0.1-1.4
				c0.5,0.1,1.1,0,1.6-0.3c0.7-0.3,1.4-0.5,2.1-0.7c0.3-0.1,0.6-0.1,0.9-0.1c0.8,0.2,1.2,1.5,1.1,2.2c-0.1,0.5-0.4,0.9-0.8,1.2
				c-0.6,0.5-1.3,0.8-2.1,0.9c-0.8,0.1-1.5,0.4-2.1,0.9c-0.7,0.7-1.5,1.2-2.5,1.4c-1,0.1-1.9-0.5-2-1.5c0-0.1,0-0.1,0-0.2
				c0-0.4,0-0.8,0.1-1.2C-325.3-1398.6-325.3-1398.8-325.3-1398.9"/>
			<path id="패스_14628" class="st20" d="M-319.8-1397c0-0.1,0-0.2,0-0.3c0-0.8,0.2-1.7,0.6-2.4c0.1-0.3,0.3-0.6,0.5-0.8
				c0.7-0.4,1.5-0.1,1.8,0.5c0,0,0,0,0,0.1c0.2,0.3,0.3,0.6,0.4,0.9c0.3,0.7,0.9,1.2,1.6,1.3c1,0,2-0.3,3-0.3c0.4,0,0.8,0,1.1,0.1
				c0.9,0.5,1.2,1.7,0.7,2.6c-0.2,0.4-0.5,0.6-0.9,0.8c-0.7,0.3-1.5,0.5-2.3,0.4s-1.6,0-2.3,0.4c-1.2,0.6-2.7,1.4-3.9,0.3
				c-0.3-0.3-0.5-0.8-0.5-1.2C-319.9-1395.4-319.9-1396.2-319.8-1397"/>
			<path id="패스_14629" class="st5" d="M-326-1435.6c-1.6,0.2-1.3,2.3-1.5,3.4c-0.4,2.1-0.6,4.3-0.5,6.4c0.1,1.2,0.3,2.4,0.5,3.5
				c0.2,1.3,0.5,2.7,0.7,4c0.1,0.6,0.2,1.3,0.2,1.9l0,0c0,0.2,0,0.4-0.1,0.6c0,0.2,0,0.4-0.1,0.7c0,0.4-0.1,0.9-0.1,1.3
				c-0.1,0.9-0.1,1.7-0.1,2.6c0,4.1,0.4,8.2,1.2,12.2c0,0.3,0.1,0.6,0.3,0.9c0.6,0.5,1.5,0.7,2.3,0.5c0.8-0.1,1.4-0.6,1.6-1.4
				c0.2-0.7,0.2-1.3,0.1-2c-0.2-2.7-0.3-5.3-0.3-8c0-1,0.1-2.1,0.2-3.1c0,0.6,0.1,1.2,0.1,1.8c0,1.3,0.1,2.6,0.1,3.9
				c0,1,0.1,2,0.1,3c0,0.7,0.1,1.5,0.1,2.2c0,0.9,0.1,1.9,0.2,2.7c0.2,1.5,0.5,2.7,1.9,3c0.5,0.1,1,0.1,1.5-0.1
				c2.1-0.6,1.6-1.6,1.7-6.2c0-0.8,0-1.7,0-2.5c0-1.1,0.1-2.1,0.1-3.2c0.1-1.4,0.1-2.7,0.2-4.1c0-0.4,0-0.8,0-1.1c0-0.1,0-0.1,0-0.1
				c0.2-0.8,0.3-1.5,0.4-2.3c0.3-1.6,0.4-3.1,0.6-4.7c0.2-2.6,0.2-5.2,0.1-7.8h-4.5c0.4-3.7,0.3-8.3-1.9-6.7c0,0.3-2.3,1.4-2.9,0.7
				c-0.4-0.4-1.1-2-2.4-2C-325.9-1435.6-325.9-1435.6-326-1435.6"/>
			<path id="패스_14630" class="st21" d="M-297.8-1463.6c-0.1-0.1-0.2-0.1-0.3,0c-0.1,0-0.2,0.1-0.3,0.2c-0.8,0.8-1.6,1.6-2.4,2.4
				h0.1c-0.1,0.1-0.2,0.2-0.3,0.3c0,0,0,0,0,0.1c-0.3,0.1-0.6,0.2-0.9,0.4c-0.1,0.2-0.2,0.4-0.3,0.6c-0.1,0.6-0.2,1.1-0.2,1.7
				c0.1,0.2,0.2,0.3,0.4,0.4l0,0l0,0c0.2,0.2,0.4,0.4,0.6,0.7c0.1,0.2,0.4,0.2,0.6,0.2c0.9-1.1,2.1-1.7,2.8-3
				c0.1-0.1,0.1-0.3,0.1-0.5s-0.2-0.3-0.4-0.3l0,0c0.1-0.2,0-0.4-0.1-0.5s-0.4-0.2-0.5-0.1c0-0.2,0-0.3-0.2-0.4
				c-0.1,0-0.2-0.1-0.2-0.1c0.5-0.4,0.9-0.9,1.3-1.4c0.1-0.2,0.4-0.4,0.3-0.6C-297.7-1463.5-297.7-1463.5-297.8-1463.6"/>
			<path id="패스_14632" class="st6" d="M-328.1-1453.8c-0.3,0.2-0.5,0.3-0.8,0.6c-0.8,0.9-1.2,2.1-1.1,3.3v0.1
				c0,0.6,0.1,1.2,0.1,1.8c0.3,2.2,0.9,4.4,1.3,6.6c0.1,0.5,0.2,0.9,0.2,1.4c0.3,2.6,0.3,5.3,0.2,7.9c0,1.3-0.1,2.7,0,4
				c0,0.4-0.1,1.2,0.2,1.5s3.8,1.9,10,1.8c3-0.1,3.4-0.3,4-0.6c0,0-0.2-5.1-0.4-6.9c-0.4-4.3-0.3-8.7,0.5-13
				c0.2-0.7,0.2-1.5,0.2-2.2c0-0.6-0.2-1.3-0.6-1.8c-0.4-0.4-0.9-0.8-1.4-1.1c-1.5-0.9-3.1-1.7-4.7-2.3c-1.8-0.7-3.7-1.8-5.6-1.8
				C-326.7-1454.4-327.4-1454.2-328.1-1453.8"/>
			<path id="패스_14633" class="st6" d="M-302.8-1458.3c-1.6,2.1-3.5,4-5.6,5.5c-0.9,0.5-4.8,1.3-6.4,1.5c-0.7,0.1-5.5,0.1-2.7,5
				c0.8,1,2.1,1.6,3.5,1.6c0.4-0.1,6.4-2.6,8-3.4c1.6-1.1,2.9-2.6,4-4.2c0.9-1.3,1.8-2.7,2.5-4.2c-0.8-0.9-1.8-1.5-2.9-1.8
				C-302.7-1458.4-302.8-1458.3-302.8-1458.3"/>
			<path id="패스_14634" class="st22" d="M-319.7-1454.7c0.1-0.7,0.6-0.5,0.3-1.1c-0.2-0.5-0.5-1-1-1.3c-0.4-0.3-1-0.5-1.5-0.5
				c-0.2,0-0.3,0.1-0.5,0.1c-0.5,0-1-0.1-1.6,0c-0.5,0.1-1,0.1-1,0.7c0.1,0.8,0,1.5-0.2,2.3c-0.2,0.4-0.3,0.8-0.4,1.2
				c0,0.9,0.5,1.7,1.3,2c1,0.4,2,0.5,3,0.3c0.5-0.1,1.2-0.2,1.5-0.7c0.2-0.4,0.2-0.8,0.1-1.2
				C-319.7-1453.5-319.7-1454.1-319.7-1454.7"/>
			<g id="그룹_20886" transform="translate(0 0)">
				<g>
					<g>
						<g>
							<defs>
								<rect id="SVGID_1_" x="-330" y="-1466.9" width="32.4" height="74.1"/>
							</defs>
							<clipPath id="SVGID_00000034805683295512113770000004513710308222317968_">
								<use xlink:href="#SVGID_1_"  style="overflow:visible;"/>
							</clipPath>
							<g id="그룹_20885" style="clip-path:url(#SVGID_00000034805683295512113770000004513710308222317968_);">
								<path id="패스_14638" class="st21" d="M-317.4-1463.2c0.3,0.4,0.5,0.8,0.6,1.3c0.2,1.1-0.3,2.3,0,3.4
									c0.3,1.8-0.7,3.5-2.4,4.2c-1.3,0.2-2.7,0.1-3.9-0.4c-0.9-0.5-1.6-1.3-2.1-2.2C-329.7-1464-320.5-1466.9-317.4-1463.2"/>
								<path id="패스_14639" class="st24" d="M-327.2-1460.1c0,0.2,0.1,0.4,0.1,0.6s0.1,0.3,0.1,0.5c0,0.1,0.1,0.3,0.1,0.4
									c0.2,0.5,0.5,0.9,0.8,1.3c0.4,0.6,0.9,1.1,1.5,1.5c0.3,0.1,0.6,0.2,0.9,0.3c0.9,0.3,2,0.1,2.7-0.5c0.3-0.3,0.4-0.7,0.5-1.2
									c0-0.4,0.1-0.8,0.2-1.2c0-0.1,0.1-0.2,0.1-0.3c0-0.2,0.1-0.3,0.2-0.5s0.3-0.4,0.6-0.5c0.4-0.1,1,0.1,1.4-0.1
									c0.2-0.2,0.3-0.4,0.4-0.6s0.2-0.5,0.3-0.7c0.1-0.3,0.3-0.6,0.5-0.9c0.1-0.1,0.2-0.3,0.3-0.4c0.1-0.2,0.2-0.4,0.3-0.6
									c-0.1-1.1-0.7-2.1-1.5-2.7c-0.4-0.4-0.8-0.7-1.3-0.9c-0.4-0.2-0.9-0.3-1.3-0.3c-1.3-0.3-2.7-0.1-4,0.5
									c-0.3,0.2-0.6,0.4-0.8,0.7c0,0.1-0.1,0.1-0.1,0.2c-0.1,0.1-0.2,0.1-0.3,0.2c-0.3,0.1-0.6,0.3-0.8,0.6
									C-327.6-1463.5-327.4-1461.6-327.2-1460.1"/>
								<path id="패스_14640" class="st21" d="M-319.9-1460c-0.9-0.1-1.1,1-0.5,1.8c0.2,0.2,0.4,0.5,0.7,0.7
									c1.5,1.3,1.9-0.1,1.4-0.5C-319.4-1459.1-318.8-1459.9-319.9-1460"/>
								<path id="패스_14641" class="st22" d="M-319.6-1458.4c-0.1-0.1-1.1-0.7-0.4-1.1c0.2-0.1,0.3,0,0.4,0.2v0.1
									c0,0.1,0,0.2,0,0.3c0,0.1,0,0.1,0.1,0.2s0.4,0.3,0.3,0.5C-319.3-1458.1-319.6-1458.3-319.6-1458.4"/>
							</g>
						</g>
					</g>
				</g>
			</g>
		</g>
	</g>
</g>
<g id="Layer_2">
</g>
<g id="Layer_3">
</g>
<g id="Layer_4">
</g>
<g id="Layer_5">
</g>
</svg>
