<svg xmlns="http://www.w3.org/2000/svg" xmlns:xlink="http://www.w3.org/1999/xlink" width="380" height="300" viewBox="0 0 380 300"><defs><style>.a,.p{fill:none;}.b{fill:#005b92;}.c{fill:#fff;}.d{fill:#f5f5f5;}.e{clip-path:url(#a);}.f{fill:#00c0f3;}.g{fill:#0077c0;}.h{fill:#232363;}.i{fill:#f3f3f3;}.j{fill:#e3e3e3;}.k{fill:#f3a984;}.l{fill:#ffc7ad;}.m{fill:#00304d;}.n{fill:#ffaa6f;}.o{fill:#d5efff;}.p{stroke:#00c0f3;stroke-linecap:round;stroke-miterlimit:10;stroke-width:3px;}.q{fill:#f8fbff;}.r{fill:#060030;}.s{fill:#85c7f1;}.t{clip-path:url(#b);}.u{clip-path:url(#c);}.v{fill:#004e6a;}.w{fill:rgba(0,0,0,0.1);}.x{clip-path:url(#d);}</style><clipPath id="a"><rect class="a" width="82.485" height="99.645"/></clipPath><clipPath id="b"><path class="b" d="M340.736,465.176h0Zm-4.836,3.116c-6.479,3.765-17.012,3.765-23.532,0-3.226-1.863-4.863-4.3-4.911-6.737v4.18h.04c.271,2.247,1.9,4.452,4.871,6.17,6.52,3.765,17.052,3.765,23.532,0,3.2-1.861,4.812-4.292,4.835-6.73h0v-.06c0-.014,0-.027,0-.041V461.5c0,2.458-1.608,4.913-4.836,6.789" transform="translate(-307.457 -461.503)"/></clipPath><clipPath id="c"><path class="c" d="M312.282,417.359c-6.477,3.766-6.443,9.867.078,13.632s17.052,3.765,23.532,0,6.444-9.866-.076-13.632a25.933,25.933,0,0,0-23.533,0" transform="translate(-307.447 -414.536)"/></clipPath><clipPath id="d"><path class="c" d="M38.845,775.726l10.292,5.98,32.677-18.77-10.291-5.981Z" transform="translate(-38.845 -756.955)"/></clipPath></defs><g transform="translate(-780 -1464)"><g transform="translate(10 0.781)"><ellipse class="d" cx="170" cy="80" rx="170" ry="80" transform="translate(790 1579)"/><g transform="translate(810.686 1555.933)"><g class="e" transform="translate(0 0)"><path class="f" d="M0,17.108,8.316,0l8.316,8.32L13.565,9.941v41a2.114,2.114,0,0,0,1.071,1.951L47.663,71.966,36,78.439,2.943,59.347l.014-.008a2.128,2.128,0,0,1-1-1.9V16.073Z" transform="translate(34.823)"/><path class="g" d="M75,106.429l8.316-17.108,8.316,8.32-3.068,1.621v32.445a2.114,2.114,0,0,0,1.071,1.951l33.027,19.076L111,159.206,77.943,140.114l.014-.008a2.128,2.128,0,0,1-1-1.9v-32.81Z" transform="translate(-56.919 -69.382)"/><path class="b" d="M156,199.313l8.316-17.108,8.316,8.32-3.068,1.621v21.533a2.114,2.114,0,0,0,1.071,1.951l33.027,19.076L192,241.178l-33.057-19.092.014-.008a2.128,2.128,0,0,1-1-1.9v-21.9Z" transform="translate(-156 -141.533)"/></g></g><g transform="translate(851.929 1474.219)"><g transform="translate(8.735 164.587)"><path class="c" d="M76.693,686.613a2.2,2.2,0,0,1,2.583,1.733L82.065,702.5l9.193,2.819-.471,1.9-10.442-1.994a1.421,1.421,0,0,1-1.1-1l-.041-.143L75,689.376c-.016-.057-.031-.12-.043-.179a2.2,2.2,0,0,1,1.733-2.583" transform="translate(-64.953 -679.788)"/><path class="h" d="M72.5,888.549s3.6,2.8,2.025,2.82a6.4,6.4,0,0,1-2.988-1.332.983.983,0,0,1-.447-1Z" transform="translate(-62.077 -831.351)"/><path class="h" d="M52.753,899.848s3.6,2.8,2.025,2.82a6.4,6.4,0,0,1-2.988-1.332.983.983,0,0,1-.447-1Z" transform="translate(-47.26 -839.83)"/><path class="g" d="M63.941,758.568,65.5,788.706a1,1,0,0,0,1.991.025l2.314-30.09a2.936,2.936,0,0,0-5.855-.45,3.221,3.221,0,0,0,0,.377" transform="translate(-56.714 -731.496)"/><path class="g" d="M49.4,766.046l.384,31.206a1,1,0,0,0,1.988.1l3.481-31.013a2.936,2.936,0,0,0-5.835-.655,3.248,3.248,0,0,0-.018.364" transform="translate(-45.809 -737.195)"/><path class="c" d="M57.311,688.375c0-1.262-.736-1.91-1.74-1.68h0a14.469,14.469,0,0,0-8.644,5.614h0a5.17,5.17,0,0,0-1,2.851,4.676,4.676,0,0,0,.106.748c.007.021.141,16.03.141,17.863s10.551-.64,10.484-3.388.656-21.816.655-22.007" transform="translate(-43.196 -679.847)"/><path class="c" d="M37.923,744.4c.092,1.831-1.007,9.149-2.93,10.344,0,0,.994,3.66,5.534,2.93Z" transform="translate(-34.993 -723.182)"/><path class="i" d="M61.136,690.557c2.066-1.041,4.445.263,4.445.263l-.015,1.535,1.148.642L64.8,701.761l-5.435-4.8.315-2.274H58.668s-.981-2.395,2.468-4.133" transform="translate(-52.663 -682.477)"/><path class="j" d="M71.328,698.856l-.408,6.965s-4.849-8.36-4.157-9.927,4.565,2.962,4.565,2.962" transform="translate(-58.783 -686.537)"/><path class="c" d="M67.15,694.469l-1.551,2.7s-3.132-3.691-1.515-4.6c4.14-2.329,4.673.924,4.936,3.439Z" transform="translate(-56.476 -683.688)"/><path class="k" d="M65.582,685.75a1.825,1.825,0,0,1-.1,2.3c1.34,3.038,4.664,1.939,4.07.609s.038-1.877.038-1.877Z" transform="translate(-57.87 -679.171)"/><path class="l" d="M69.22,672.076a10.7,10.7,0,0,1-4.507.6s-1.117.288-1.225,1.131h0c-.146-.18-.385-.361-.638-.08-.406.453.34,1.759.682,1.481a8.193,8.193,0,0,0,.279,1.273,7.106,7.106,0,0,0,2.121,1.747c2.364,1.185,3.106-1.735,3.326-5.144a5.018,5.018,0,0,0-.038-1.006" transform="translate(-55.809 -668.911)"/><path class="m" d="M.927,6.357a3.961,3.961,0,0,1-.43-4.4A3.853,3.853,0,0,1,4.721.1c3.656,1,5.135,4.582,2.226,4.386a2.2,2.2,0,0,1-3.041.962.76.76,0,0,0-1.065.667,3.259,3.259,0,0,1-.39-.8,1.306,1.306,0,0,0-.384.912,2.176,2.176,0,0,1-.395-1.339v0c-.146-.177-.384-.354-.637-.073-.406.451.343,1.756.683,1.479a8.441,8.441,0,0,0,.255,1.189c.008.025.014.049.021.073.03.117.022.166-.01.166C1.826,7.722,1.053,6.538.927,6.357Z" transform="translate(6.005)"/><path class="g" d="M76.7,703.613l-.334.746.879,4.207-.156,2.666-1.34-2.43v-4.358l-.833-.48.683-1.189Z" transform="translate(-64.951 -691.948)"/><path class="n" d="M138.965,761.7l3.2.342,2.242,2.024-5.917-.468Z" transform="translate(-112.66 -736.165)"/></g><g transform="translate(0 43.396)"><g transform="translate(97.8)"><path class="g" d="M434.171,319.041l-42.349-24.619V366l42.354,24.617Z" transform="translate(-391.821 -253.823)"/><path class="o" d="M391.821,200.458l42.354-26.6,42.355,24.62-42.36,26.6Z" transform="translate(-391.821 -159.869)"/><path class="b" d="M561.487,313.093l0,71.577,42.355-26.6V286.5Z" transform="translate(-519.138 -247.876)"/></g><g transform="translate(48.9 64.064)"><path class="g" d="M238.26,571.7l-42.35-24.619v44.826l42.354,24.617Z" transform="translate(-195.91 -510.487)"/><path class="o" d="M195.91,457.122l42.355-26.6,42.355,24.62-42.36,26.6Z" transform="translate(-195.91 -420.523)"/><path class="b" d="M407.937,539.161l-42.36,26.6.005,44.824,42.355-26.6Z" transform="translate(-323.227 -504.54)"/></g><g transform="translate(0 140.869)"><path class="g" d="M42.35,869.412,0,844.794v10.683l42.354,24.618Z" transform="translate(0 -818.195)"/><path class="o" d="M0,764.828l42.355-26.6L84.71,762.849l-42.36,26.6Z" transform="translate(0 -738.228)"/><path class="b" d="M212.029,836.868l-42.36,26.6,0,10.683,42.355-26.6Z" transform="translate(-127.318 -812.247)"/></g></g><g transform="translate(153.879 126.28)"><line class="p" x2="15.994" y2="47.338" transform="translate(0 6.733)"/><line class="p" x2="15.994" y2="47.338" transform="translate(12.651)"/><line class="p" y1="6.46" x2="10.993" transform="translate(2.304 3.604)"/><line class="p" y1="6.46" x2="10.993" transform="translate(4.982 11.744)"/><line class="p" y1="6.46" x2="10.993" transform="translate(7.66 19.884)"/><line class="p" y1="6.46" x2="10.992" transform="translate(10.338 28.024)"/><line class="p" y1="6.461" x2="10.992" transform="translate(13.016 36.164)"/><line class="p" y1="6.461" x2="10.992" transform="translate(15.694 44.304)"/></g><g transform="translate(101.839 14)"><path class="l" d="M500.788,26.037l-9.831,5.34,2.235.645-6.95-9.474a1.119,1.119,0,0,0-1.873,1.218l5.842,10.195a1.658,1.658,0,0,0,2.032.724l.2-.078,10.444-4.01a2.516,2.516,0,1,0-1.8-4.7,2.812,2.812,0,0,0-.3.138" transform="translate(-465.197 -16.577)"/><path class="c" d="M529.459,43.8a4.177,4.177,0,0,1-1.8-3.333,1.328,1.328,0,0,1,.593-1.208l4.856-2.63a1.338,1.338,0,0,1,1.339.174,4.174,4.174,0,0,1,1.8,3.333,1.329,1.329,0,0,1-.593,1.208l-4.855,2.63a1.339,1.339,0,0,1-1.339-.173" transform="translate(-497.789 -27.404)"/><path class="q" d="M523.111,48.2l1.282-.7a1.329,1.329,0,0,0-.593,1.208,4.177,4.177,0,0,0,1.8,3.333,1.34,1.34,0,0,0,1.339.173l-1.282.7a1.341,1.341,0,0,1-1.34-.173,4.179,4.179,0,0,1-1.8-3.333,1.326,1.326,0,0,1,.594-1.207" transform="translate(-493.932 -35.646)"/><path class="r" d="M517.865,265.657s-3.715,2.977-2.079,2.994a6.647,6.647,0,0,0,3.1-1.385,1.022,1.022,0,0,0,.464-1.034Z" transform="translate(-488.571 -199.348)"/><path class="r" d="M578.042,289.721s-3.716,2.977-2.079,2.994a6.646,6.646,0,0,0,3.1-1.385,1.022,1.022,0,0,0,.465-1.034Z" transform="translate(-533.727 -217.406)"/><path class="g" d="M526.53,131.728l-7.784,14.158-.179.326a1.844,1.844,0,0,0-.225,1.029l1.18,16.171a1.248,1.248,0,0,0,2.488.017l1.4-16.154-.4,1.356,9.679-12.937a3.67,3.67,0,0,0-5.877-4.4,4.02,4.02,0,0,0-.278.431" transform="translate(-490.797 -97.42)"/><path class="g" d="M563.546,131.413l5.092,35.981a1.247,1.247,0,0,0,2.481-.184l-.27-36.338a3.669,3.669,0,1,0-7.338.054,4.01,4.01,0,0,0,.036.487" transform="translate(-524.695 -95.473)"/><path class="c" d="M544.084,39.126c0-1.442.842-2.183,1.989-1.921h0c6.284,1.1,9.881,6.418,9.881,6.418h0a5.907,5.907,0,0,1,1.147,3.258,5.345,5.345,0,0,1-.121.854c-.008.025.063,13.177.121,17.4.073,5.339-13.2.453-13.126-2.687s.111-23.1.111-23.32" transform="translate(-510.035 -27.88)"/><path class="i" d="M553.4,43.143l1.508,2.77s4.606-3.482,2.692-5.639-5.356-.2-6.291,3.619Z" transform="translate(-515.54 -29.551)"/><path class="g" d="M551.215,55.9l-.136-1.086.756-.271.107.065.518.952-.974.48.7,8.969L550.3,67.15l-1-3.737Z" transform="translate(-514.034 -40.926)"/><path class="k" d="M561.734,33.961a3.3,3.3,0,0,0,.121,3.246c-1.491,3.394-5.208,1.492-4.546.006s-.046-2.1-.046-2.1Z" transform="translate(-519.982 -25.484)"/><path class="l" d="M551.051,14.048a12.7,12.7,0,0,0,5.108,1.713s1.234.588,1.169,1.593h0v0c.21-.176.529-.333.76.051.371.618-.794,1.969-1.128,1.569a9.666,9.666,0,0,1-.612,1.418,8.438,8.438,0,0,1-2.864,1.553c-3.018.844-3.22-2.722-2.7-6.737a5.933,5.933,0,0,1,.272-1.162" transform="translate(-514.977 -10.542)"/><path class="m" d="M569.445,20.687a1.4,1.4,0,0,1,.767,2.256l.753-.141a2.782,2.782,0,0,0,1.058-2.6c-.206-1.749-2.578.484-2.578.484" transform="translate(-529.148 -14.658)"/><path class="m" d="M558.709,5.3a4.572,4.572,0,0,0-4.5-3.11c-.868,0-6.8,2.085-3.579,4.6.7.434,2,.947,4.725.874,0,0,1.378-.215,1.314.79h0c.21-.176.529-.333.76.051.371.618-.793,1.969-1.128,1.569a9.711,9.711,0,0,1-.564,1.327c-.015.027-.029.053-.042.08-.359.76.138,1.026.138,1.026.036-.809,1.153-1.961,1.375-2.182a4.706,4.706,0,0,0,1.5-5.025" transform="translate(-514.319 -1.644)"/><path class="s" d="M451.729,6.549c.549.139.353,1.16-.221,1.184l-35.85,1.509L417.02.012s34.16,6.4,34.709,6.537" transform="translate(-413.747 -0.009)"/><path class="g" d="M413.135,1.66c-.789-1.968-2.487-2.222-3.794-.569a7.3,7.3,0,0,0-.94,6.555c.788,1.966,2.486,2.219,3.792.566a7.294,7.294,0,0,0,.941-6.552" transform="translate(-408.004 0)"/><path class="l" d="M529.7,41.5l-8.727,7.583,2.509.684-7-15.858a1.025,1.025,0,0,0-1.9.762l5.88,16.309a1.585,1.585,0,0,0,2.376.776l.133-.091,9.547-6.52a2.305,2.305,0,0,0-2.6-3.807,2.379,2.379,0,0,0-.212.163" transform="translate(-487.927 -24.989)"/><path class="c" d="M563.174,69.96a4.048,4.048,0,0,1-2.325-2.844,1.287,1.287,0,0,1,.346-1.258l4.148-3.392a1.3,1.3,0,0,1,1.308-.078,4.042,4.042,0,0,1,2.324,2.844,1.289,1.289,0,0,1-.346,1.258l-4.147,3.391a1.3,1.3,0,0,1-1.308.08" transform="translate(-522.677 -46.716)"/><path class="i" d="M556.806,77.583l1.1-.9a1.288,1.288,0,0,0-.346,1.259,4.047,4.047,0,0,0,2.325,2.844,1.3,1.3,0,0,0,1.308-.08l-1.1.9a1.3,1.3,0,0,1-1.308.08,4.049,4.049,0,0,1-2.325-2.845,1.285,1.285,0,0,1,.346-1.258" transform="translate(-519.383 -57.546)"/><path class="l" d="M512.818,25.682c0,.993.58,1.8,1.3,1.8s1.3-.805,1.3-1.8-.58-1.8-1.3-1.8-1.3.805-1.3,1.8" transform="translate(-486.655 -17.922)"/></g><g transform="translate(72.871 86.189)"><path class="m" d="M305.83,329.025a5.144,5.144,0,0,0-3.261,6.406s5.394-4.17,5.394-4.307-2.134-2.1-2.134-2.1" transform="translate(-299.764 -322.088)"/><path class="l" d="M336.29,336.281l-.828,14.454-.588-1.143,8.7,6.6a.853.853,0,0,1-.966,1.4l-9.273-5.766a1.241,1.241,0,0,1-.585-1.021l0-.122-.289-14.475a1.917,1.917,0,1,1,3.833-.077c0,.048,0,.1,0,.148" transform="translate(-322.348 -326.012)"/><path class="l" d="M322.59,411.74,320.9,441.907a.869.869,0,0,1-1.735,0l-1.686-30.168a2.558,2.558,0,0,1,5.108-.286,2.65,2.65,0,0,1,0,.286" transform="translate(-311.105 -382.13)"/><path class="l" d="M306.692,425.441l-1.686,30.168a.869.869,0,0,1-1.735,0l-1.686-30.168a2.558,2.558,0,0,1,5.108-.286,2.669,2.669,0,0,1,0,.286" transform="translate(-299.176 -392.412)"/><path class="i" d="M333.67,334.391a1.981,1.981,0,0,0-1.861,2.094s.585,8.881.624,10.547,3.278.913,3.283-.089.051-10.566.051-10.566c0-.04,0-.086,0-.127a1.981,1.981,0,0,0-2.094-1.861" transform="translate(-321.695 -326.145)"/><path class="g" d="M293.987,406.413s-2.635,9.32-1.921,18.02c0,0,1.574,4.986,7.532,2.8s6.6-5.213,6.358-7.266c-.418-3.485-.509-3.472-2.61-14.817Z" transform="translate(-291.944 -379.21)"/><path class="c" d="M310.585,339.063a4.156,4.156,0,0,0-.575-3.958c.088-1.072.144-1.764.144-1.807,0-1.376-.8-2.081-1.9-1.832h0a15.775,15.775,0,0,0-9.424,6.12h0a5.635,5.635,0,0,0-1.093,3.107c0,.3,1.807,7.807,0,11.968,1.771,4.5,11.063,1.552,10.581-1.1,0,0,.343-5.485.363-6.4a53.845,53.845,0,0,1,1.9-6.1" transform="translate(-296.294 -323.882)"/><path class="i" d="M319.478,339.757l-1.433,2.638s-4.388-3.317-2.567-5.371,5.1-.187,5.992,3.448Z" transform="translate(-309.272 -327.452)"/><path class="k" d="M319.957,330.458a17.6,17.6,0,0,0-.894,2.7c-.334,1.4,3.422,2.307,3.422,2.307.658-.985-.619-1.18.806-2.724a11.208,11.208,0,0,1-3.335-2.286" transform="translate(-312.28 -323.163)"/><path class="l" d="M322.036,313.779a12.055,12.055,0,0,1-4.976,1.232s-1.216.464-1.232,1.422h0c-.186-.183-.476-.356-.725-.009-.4.558.6,1.929.95,1.574a9.285,9.285,0,0,0,.471,1.392,8.032,8.032,0,0,0,2.6,1.693c2.8,1.033,3.264-2.334,3.084-6.181a5.643,5.643,0,0,0-.169-1.123" transform="translate(-309.255 -310.648)"/><path class="r" d="M310.827,545.6a14.322,14.322,0,0,0-1.835-1.864l.249-3.528a2.17,2.17,0,0,1-2.493,0l.267,3.434a.974.974,0,0,0,.325,1.036c3.022,2.576,3.813,1.47,3.486.921" transform="translate(-303.053 -480.556)"/><path class="r" d="M327.088,533.34a20.732,20.732,0,0,0-2.166-1.619l.249-3.528a2.171,2.171,0,0,1-2.493,0l.267,3.434a.974.974,0,0,0,.326,1.036c3.513,2.394,4.143,1.225,3.817.677" transform="translate(-315.007 -471.543)"/><path class="m" d="M319.4,304.379c-.089-1.628-3.429-3.064-4.059-3.112-1.764-.218-4.017.6-4.5,2.6-1.131,4.657,2.387,6.105,2.387,6.105s-.441-1.269-.472-1.393c-.348.354-1.349-1.016-.95-1.574.249-.347.539-.173.725.009,1.651,2.144,4.39-.659,4.39-.659.814.172.062.931.062.931,2.763.289,2.5-2.748,2.421-2.911" transform="translate(-305.956 -301.233)"/></g><g transform="translate(79.478 115.296)"><g class="t" transform="translate(0.001 9.666)"><rect class="b" width="33.281" height="14.166" transform="translate(0 0)"/></g><g class="u"><rect class="c" width="36.565" height="20.22" transform="translate(-1.642 0)"/></g><path class="f" d="M315.815,422.114a25.134,25.134,0,0,1,22.721,0c2.708,1.564,4.283,3.566,4.485,5.68.015-.156.023-.313.023-.47,0-2.282-1.6-4.463-4.508-6.14a25.133,25.133,0,0,0-22.721,0c-2.862,1.664-4.436,3.827-4.433,6.091,0,.154.008.307.023.459.2-2.092,1.747-4.072,4.41-5.62" transform="translate(-310.572 -417.661)"/><path class="o" d="M315.98,437a25.127,25.127,0,0,0,22.72,0c2.663-1.548,4.211-3.528,4.411-5.62-.2-2.114-1.777-4.116-4.485-5.68a25.133,25.133,0,0,0-22.721,0c-2.663,1.548-4.21,3.528-4.41,5.62.2,2.114,1.777,4.116,4.486,5.68" transform="translate(-310.662 -421.249)"/><path class="v" d="M469.152,460.683v-.161h0c0,.054,0,.107,0,.161" transform="translate(-435.872 -451.058)"/><path class="v" d="M307.458,460.522h0v.038c0-.013,0-.025,0-.038" transform="translate(-307.456 -451.058)"/><path class="w" d="M353.466,445.1l-8.2,6.728,11.951-4.644,6.562-6.15Z" transform="translate(-338.27 -435.971)"/><path class="g" d="M384.483,455.407h-2.655v2.425h.008a.718.718,0,0,0,.384.463,2.066,2.066,0,0,0,1.876,0,.657.657,0,0,0,.386-.543Z" transform="translate(-366.59 -447.107)"/><path class="g" d="M390.011,433.225l-10.317,4.066,3.755,2.085Z" transform="translate(-364.939 -429.923)"/><path class="f" d="M355.27,453.355l-3.755-2.085-8.2,6.728Z" transform="translate(-336.758 -443.902)"/><path class="c" d="M343.318,444.019l18.513-10.794-6.562,6.151Z" transform="translate(-336.758 -429.923)"/><path class="o" d="M384.091,452.221a.574.574,0,0,1,.006,1.087,2.067,2.067,0,0,1-1.876,0,.574.574,0,0,1-.006-1.087,2.069,2.069,0,0,1,1.877,0" transform="translate(-366.592 -444.464)"/></g><g transform="matrix(0.999, -0.035, 0.035, 0.999, 9.228, 189.698)"><g class="x" transform="translate(0)"><rect class="c" width="42.969" height="24.752" transform="translate(0)"/></g><g transform="translate(4.752 2.113)"><path class="g" d="M86.959,813.913l2.21-1.276-2.006-1.166-2.21,1.276Z" transform="translate(-78.197 -799.977)"/><path class="g" d="M100.388,805.876l2.21-1.276-2.006-1.166-2.21,1.276Z" transform="translate(-88.274 -793.945)"/><path class="g" d="M113.818,797.838l2.21-1.276-2.006-1.166-2.21,1.276Z" transform="translate(-98.352 -787.913)"/><path class="g" d="M98.926,821.408l2.21-1.276-2.006-1.166-2.21,1.276Z" transform="translate(-87.177 -805.6)"/><path class="g" d="M73.424,821.759l2.21-1.276-2.006-1.166-2.21,1.276Z" transform="translate(-68.041 -805.865)"/><path class="g" d="M85.392,829.254l2.21-1.276L85.6,826.812l-2.21,1.276Z" transform="translate(-77.02 -811.488)"/><path class="g" d="M59.89,829.605l2.21-1.276-2.006-1.166-2.21,1.276Z" transform="translate(-57.884 -811.752)"/><path class="g" d="M71.857,837.1l2.21-1.276-2.006-1.166-2.21,1.276Z" transform="translate(-66.865 -817.376)"/><path class="g" d="M112.356,813.37l2.21-1.276-2.006-1.166-2.21,1.276Z" transform="translate(-97.254 -799.569)"/><path class="g" d="M125.785,805.332l2.21-1.276-2.006-1.166-2.21,1.276Z" transform="translate(-107.333 -793.538)"/><path class="g" d="M127.352,790.343l2.21-1.276-2.006-1.166-2.21,1.276Z" transform="translate(-108.507 -782.289)"/><path class="g" d="M139.32,797.838l2.21-1.276-2.006-1.166-2.21,1.276Z" transform="translate(-117.488 -787.913)"/><path class="g" d="M140.886,782.849l2.21-1.276-2.006-1.166-2.21,1.276Z" transform="translate(-118.663 -776.666)"/><path class="g" d="M152.854,790.343l2.21-1.276-2.006-1.166-2.21,1.276Z" transform="translate(-127.644 -782.289)"/><path class="g" d="M154.421,775.354l2.21-1.276-2.006-1.166-2.21,1.276Z" transform="translate(-128.82 -771.042)"/><path class="g" d="M166.388,782.849l2.21-1.276-2.006-1.166-2.21,1.276Z" transform="translate(-137.801 -776.666)"/><path class="g" d="M167.955,767.859l2.21-1.276-2.006-1.166-2.21,1.276Z" transform="translate(-138.976 -765.418)"/><path class="g" d="M179.923,775.354l2.21-1.276-2.006-1.166-2.21,1.276Z" transform="translate(-147.956 -771.042)"/></g><path class="b" d="M80.119,802.564l32.677-18.77-.041-2.875-32.677,18.77Z" transform="translate(-69.787 -774.937)"/><path class="g" d="M49.178,841.015l-10.292-5.981-.041-2.874,10.292,5.98Z" transform="translate(-38.846 -813.388)"/></g><g transform="translate(11.207 178.16)"><path class="c" d="M44.9,715.788a2.2,2.2,0,0,1,4.387.369l-.926,11.021,9.827,5.656-.9,1.739-11.275-5.156a1.44,1.44,0,0,1-.839-1.274l0-.156-.28-11.962a2.347,2.347,0,0,1,.007-.236" transform="translate(-44.897 -713.772)"/><path class="l" d="M95.469,790.143l2.484.845.863,2.312-4.243-1.419Z" transform="translate(-82.175 -771.081)"/></g><g transform="translate(74.683 101.601)"><path class="l" d="M303.243,365.752l1.038,13.516-.935-1.133,12.016,4.359a.853.853,0,0,1-.518,1.624l-12.322-3.4a1.272,1.272,0,0,1-.918-1.024l-.017-.109L299.439,366.2a1.917,1.917,0,1,1,3.785-.607c.008.051.014.106.018.157" transform="translate(-299.363 -363.731)"/><path class="i" d="M300.866,363.008a1.98,1.98,0,0,0-1.639,2.271s1.479,8.776,1.686,10.43a2.046,2.046,0,0,1,3.258-.421c-.1-1-1.017-10.516-1.017-10.516,0-.04-.009-.086-.016-.126a1.981,1.981,0,0,0-2.272-1.639" transform="translate(-299.202 -362.982)"/></g><g transform="translate(181.561 125.741)"><g transform="translate(23.365 43.895)"><path class="c" d="M0,72.61H0ZM2.536,43.561a13.578,13.578,0,0,0,12.326,0c1.69-.976,2.548-2.251,2.573-3.529V72.9h-.021a4.587,4.587,0,0,1-2.552,3.232,13.581,13.581,0,0,1-12.326,0C.859,75.16.016,73.886,0,72.609H0v-32.6c0,1.287.842,2.574,2.533,3.556" transform="translate(-0.003 -34.941)"/><path class="g" d="M2.573,27.562C-.842,29.535-.86,32.731,2.533,34.7a13.581,13.581,0,0,0,12.326,0c3.416-1.972,3.434-5.168.041-7.141a13.583,13.583,0,0,0-12.327,0" transform="translate(0 -26.083)"/></g><g transform="translate(46.106 14.736)"><path class="c" d="M73.072,59.085h0Zm2.533-42.252a16.287,16.287,0,0,0,12.326,0c1.69-.8,2.548-1.843,2.573-2.889V59.324h-.021c-.142.964-.993,1.909-2.552,2.646a16.287,16.287,0,0,1-12.326,0c-1.677-.8-2.52-1.841-2.533-2.886h0V13.921c0,1.054.842,2.107,2.533,2.912" transform="translate(-73.072 -8.858)"/><path class="g" d="M75.643,1.479c-3.416,1.973-3.434,5.169-.04,7.141a13.581,13.581,0,0,0,12.326,0c3.416-1.972,3.434-5.168.041-7.141a13.585,13.585,0,0,0-12.327,0" transform="translate(-73.069 0)"/></g><g transform="translate(0 69.059)"><path class="c" d="M149.634,146.187h0Zm2.533-21a13.583,13.583,0,0,0,12.326,0c1.69-.976,2.548-2.251,2.572-3.529V146.48h-.021a4.586,4.586,0,0,1-2.552,3.232,13.581,13.581,0,0,1-12.326,0c-1.677-.974-2.52-2.248-2.533-3.525V121.628c0,1.287.842,2.574,2.533,3.557" transform="translate(-149.634 -116.565)"/><path class="g" d="M152.2,109.186c-3.416,1.973-3.434,5.169-.04,7.141a13.583,13.583,0,0,0,12.326,0c3.416-1.972,3.434-5.168.041-7.141a13.585,13.585,0,0,0-12.327,0" transform="translate(-149.629 -107.707)"/></g></g></g></g><rect class="a" width="380" height="300" transform="translate(780 1464)"/></g></svg>