<?xml version="1.0" encoding="utf-8"?>
<!-- Generator: Adobe Illustrator 26.5.0, SVG Export Plug-In . SVG Version: 6.00 Build 0)  -->
<svg version="1.1" id="Layer_1" xmlns="http://www.w3.org/2000/svg" xmlns:xlink="http://www.w3.org/1999/xlink" x="0px" y="0px"
	 viewBox="0 0 380 300" style="enable-background:new 0 0 380 300;" xml:space="preserve">
<style type="text/css">
	.st0{fill:#F5F5F5;}
	.st1{fill:#0077C0;}
	.st2{fill:#ECF8FF;}
	.st3{fill:#005B92;}
	.st4{fill:#FFFFFF;}
	.st5{fill:#060030;}
	.st6{fill:#FFC7AD;}
	.st7{fill:#0071B7;}
	.st8{fill:#FFB694;}
	.st9{fill:#00304D;}
	.st10{fill:#F3925F;}
	.st11{fill:#F2F2F2;}
	.st12{fill:none;stroke:#B6B6B6;stroke-width:4;stroke-linecap:round;stroke-miterlimit:10;}
	.st13{fill:none;stroke:#393939;stroke-width:5;stroke-linecap:round;stroke-miterlimit:10;}
	.st14{fill:#AEAEAE;}
	.st15{fill:#E1E1E1;}
	.st16{fill:#FBFBFB;}
	.st17{fill:none;stroke:#0077C0;stroke-width:2;stroke-linecap:round;stroke-miterlimit:10;}
	.st18{fill:#F6F6F6;}
	.st19{clip-path:url(#SVGID_00000008117174242405691050000002926967627656234404_);}
	.st20{fill:#E2E2E2;}
	.st21{fill:#FFB9A4;}
	.st22{fill:#FFE2C7;}
	.st23{fill:#FDB933;}
	.st24{fill:#FFC8B5;}
	.st25{fill:#FF3B2C;}
	.st26{fill:#EF2F1B;}
	.st27{fill:#89AD33;}
	.st28{fill:#6B8C20;}
	.st29{fill:#CFCFCF;}
	.st30{fill:none;}
	.st31{clip-path:url(#SVGID_00000157295855797393366900000005946277519894310539_);}
	.st32{fill:url(#패스_14090_00000108310527344731320500000009837033629096746667_);}
	.st33{clip-path:url(#SVGID_00000122720190511055747130000016774133475996745884_);}
	.st34{fill:url(#패스_14092_00000052790692549561301440000006135646974032008085_);}
	.st35{clip-path:url(#SVGID_00000072988123705366368250000002077391902408320659_);}
	.st36{fill:url(#패스_14094_00000070077275083889232690000000572133502809794494_);}
	.st37{fill:#FDB934;}
	.st38{clip-path:url(#SVGID_00000111905199841531514060000010664916999902843296_);}
	.st39{fill:url(#패스_14097_00000036243146239221726250000011865214167718178227_);}
</style>
<ellipse id="타원_893" class="st0" cx="190" cy="188.2" rx="170" ry="80"/>
<g id="그룹_21284" transform="translate(1339 1518.797)">
	<path id="패스_14442" class="st1" d="M-1089.1-1406.1L-1089.1-1406.1c0,0.2,0,0.4,0,0.5c0,14.2-27,25.8-60.3,25.8
		s-60.4-11.5-60.4-25.8c0-0.2,0-0.4,0-0.5h0v-26.3h120.7V-1406.1z"/>
	<path id="패스_14444" class="st2" d="M-1089.1-1433.6c0,14.2-27,25.8-60.3,25.8c-33.3,0-60.4-11.5-60.4-25.8
		c0-14.2,27-25.8,60.4-25.8C-1116.1-1459.4-1089.1-1447.9-1089.1-1433.6"/>
</g>
<g id="그룹_21292" transform="translate(3.334 6.933)">
	<g id="그룹_21286" transform="translate(1344.666 1606.823)">
		<path id="패스_14842" class="st3" d="M-1189.2-1462.8L-1189.2-1462.8C-1189.2-1462.8-1189.2-1462.8-1189.2-1462.8
			C-1189.2-1462.8-1189.2-1462.7-1189.2-1462.8C-1189.2-1462.7-1189.2-1462.7-1189.2-1462.8L-1189.2-1462.8l0,0.1c0,0,0,0,0,0
			c0,0,0,0,0,0l0,0l0,0l0,0c0,0,0,0,0,0l0,0l0,0l0,0c0,0,0.1,0,0.1,0.1l4.5,2.4l-0.2-5.7l-4.5-2.4c0,0-0.1,0-0.1-0.1l0,0
			c0,0-0.1,0-0.1-0.1l0,0c0,0,0-0.1,0-0.1v0c0,0,0-0.1,0-0.1L-1189.2-1462.8z"/>
		<path id="패스_14844" class="st4" d="M-1189.1-1468.2l4.5,2.4l-25.1,15.8c-0.3,0.1-0.4,0.4-0.3,0.6c0.1,0.1,0.2,0.2,0.3,0.3
			l7.7,4.1c0.5,0.2,1.1,0.2,1.6-0.1l25.1-15.7l4.5,2.4c0.5,0.3,1.5,0.1,1.5-0.4l1.3-11.5c0-0.2-0.1-0.3-0.3-0.4
			c-0.2-0.1-0.5-0.2-0.7-0.1l-19.7,1.7C-1189.4-1469-1189.7-1468.5-1189.1-1468.2"/>
		<path id="패스_14845" class="st3" d="M-1169.2-1458.6C-1169.2-1458.6-1169.2-1458.6-1169.2-1458.6c0,0.1-0.1,0.1-0.1,0.1v0
			c0,0-0.1,0.1-0.1,0.1l0,0c0,0-0.1,0-0.1,0.1l0,0l0,0c0,0,0,0-0.1,0l0,0c0,0-0.1,0-0.1,0h0c0,0-0.1,0-0.1,0h0c0,0-0.1,0-0.1,0h0
			c0,0-0.1,0-0.1,0h0c0,0-0.1,0-0.1,0h0c0,0-0.1,0-0.1,0l0,0l-0.1,0c0,0-0.1,0-0.1,0l0,0c0,0-0.1,0-0.1-0.1l-4.5-2.4l-25.1,15.8
			c-0.1,0-0.1,0.1-0.2,0.1l0,0c-0.1,0-0.1,0-0.2,0.1h0c-0.1,0-0.1,0-0.2,0l0,0c-0.1,0-0.1,0-0.2,0h0c-0.1,0-0.1,0-0.2,0h0
			c-0.1,0-0.1,0-0.2,0l0,0c0,0-0.1,0-0.1,0l-0.1,0c-0.1,0-0.1,0-0.2-0.1l-7.7-4.1c0,0-0.1-0.1-0.1-0.1l0,0c0,0-0.1-0.1-0.1-0.1l0,0
			c0,0,0-0.1-0.1-0.1v0c0,0,0-0.1,0-0.1l0.2,5.7l0,0c0,0,0,0,0,0c0,0,0,0,0,0c0,0,0,0,0,0v0c0,0,0,0,0,0c0,0,0,0,0,0c0,0,0,0,0,0
			l0,0l0,0l0,0c0,0,0,0,0,0.1c0,0,0,0,0,0l0,0c0,0,0,0,0,0c0,0,0.1,0,0.1,0.1l7.7,4.1c0.1,0,0.1,0.1,0.2,0.1l0.1,0c0,0,0.1,0,0.1,0
			l0,0l0,0l0,0c0,0,0.1,0,0.1,0h0h0h0h0.1h0.1h0.1l0.1,0l0.1,0h0l0.1,0l0.1,0l0,0h0l0,0l0.1,0c0,0,0,0,0.1,0l0,0l0,0
			c0,0,0.1,0,0.1-0.1l25.1-15.8l4.5,2.4c0,0,0.1,0,0.1,0.1l0,0c0,0,0.1,0,0.1,0h0l0.1,0l0,0h0l0.1,0h0h0h0h0.1h0.1h0.1h0h0l0.1,0h0
			h0l0,0l0.1,0h0h0l0.1,0l0,0l0,0l0,0c0,0,0,0,0.1,0l0,0l0,0l0,0c0,0,0.1,0,0.1-0.1c0,0,0,0,0,0
			C-1169.2-1452.7-1169.2-1458.7-1169.2-1458.6z"/>
	</g>
	<g id="그룹_21310" transform="translate(1406.766 1606.823)">
		<path id="패스_14842-2" class="st3" d="M-1188.7-1462.8L-1188.7-1462.8C-1188.7-1462.8-1188.7-1462.8-1188.7-1462.8
			C-1188.7-1462.8-1188.7-1462.7-1188.7-1462.8C-1188.7-1462.7-1188.7-1462.7-1188.7-1462.8L-1188.7-1462.8l0,0.1c0,0,0,0,0,0
			c0,0,0,0,0,0l0,0l0,0l0,0c0,0,0,0,0,0l0,0l0,0l0,0c0,0-0.1,0-0.1,0.1l-4.5,2.4l0.2-5.7l4.6-2.4c0,0,0.1,0,0.1-0.1l0,0
			c0,0,0.1,0,0.1-0.1l0,0c0,0,0-0.1,0-0.1v0c0,0,0-0.1,0-0.1L-1188.7-1462.8z"/>
		<path id="패스_14844-2" class="st4" d="M-1188.8-1468.2l-4.5,2.4l25.1,15.8c0.3,0.1,0.4,0.4,0.3,0.6c-0.1,0.1-0.2,0.2-0.3,0.3
			l-7.7,4.1c-0.5,0.2-1.1,0.2-1.6-0.1l-25.1-15.7l-4.5,2.4c-0.5,0.3-1.5,0.1-1.5-0.4l-1.3-11.5c0-0.2,0.1-0.3,0.3-0.4
			c0.2-0.1,0.5-0.2,0.7-0.1l19.7,1.7C-1188.5-1469-1188.2-1468.5-1188.8-1468.2"/>
		<path id="패스_14845-2" class="st3" d="M-1208.7-1458.6C-1208.7-1458.6-1208.7-1458.6-1208.7-1458.6c0,0.1,0,0.1,0.1,0.1v0
			c0,0,0.1,0.1,0.1,0.1l0,0c0,0,0.1,0,0.1,0.1l0,0l0,0c0,0,0,0,0.1,0l0,0c0,0,0.1,0,0.1,0h0c0,0,0.1,0,0.1,0h0c0,0,0.1,0,0.1,0h0
			c0,0,0.1,0,0.1,0h0c0,0,0.1,0,0.1,0h0c0,0,0.1,0,0.1,0l0,0l0.1,0c0,0,0.1,0,0.1,0l0,0c0,0,0.1,0,0.1-0.1l4.5-2.4l25.1,15.8
			c0.1,0,0.1,0.1,0.2,0.1l0,0c0.1,0,0.1,0,0.2,0.1h0c0.1,0,0.1,0,0.2,0l0,0c0.1,0,0.1,0,0.2,0h0c0.1,0,0.1,0,0.2,0h0
			c0.1,0,0.1,0,0.2,0l0,0c0,0,0.1,0,0.1,0l0.1,0c0.1,0,0.1,0,0.2-0.1l7.7-4.1c0,0,0.1-0.1,0.1-0.1l0,0c0,0,0.1-0.1,0.1-0.1l0,0
			c0,0,0-0.1,0.1-0.1v0c0,0,0-0.1,0-0.1l-0.2,5.7l0,0c0,0,0,0,0,0c0,0,0,0,0,0c0,0,0,0,0,0v0c0,0,0,0,0,0c0,0,0,0,0,0c0,0,0,0,0,0
			l0,0l0,0l0,0c0,0,0,0,0,0.1c0,0,0,0,0,0l0,0c0,0,0,0,0,0c0,0-0.1,0-0.1,0.1l-7.7,4.1c-0.1,0-0.1,0.1-0.2,0.1l-0.1,0
			c0,0-0.1,0-0.1,0l0,0l0,0l0,0c0,0-0.1,0-0.1,0h0h0h0h-0.1h-0.1h-0.1l-0.1,0l-0.1,0h0l-0.1,0l-0.1,0l0,0h0l0,0l-0.1,0
			c0,0,0,0-0.1,0l0,0l0,0c0,0-0.1,0-0.1-0.1l-25.1-15.8l-4.5,2.4c0,0-0.1,0-0.1,0.1l0,0c0,0-0.1,0-0.1,0h0l-0.1,0l0,0h0l-0.1,0h0h0
			h0h-0.1h-0.1h-0.1h0h0l-0.1,0h0h0l0,0l-0.1,0h0h0l-0.1,0l0,0l0,0l0,0c0,0,0,0-0.1,0l0,0l0,0l0,0c0,0-0.1,0-0.1-0.1c0,0,0,0,0,0
			C-1208.7-1452.7-1208.7-1458.7-1208.7-1458.6z"/>
	</g>
</g>
<g id="그룹_21283" transform="translate(1434.159 1628.241)">
	<path id="패스_14442-2" class="st1" d="M-1089.2-1406.1L-1089.2-1406.1c0,0.2,0,0.4,0,0.5c0,14.2-27,25.8-60.3,25.8
		c-33.3,0-60.4-11.5-60.4-25.8c0-0.2,0-0.4,0-0.5h0v-26.3h120.7V-1406.1z"/>
	<path id="패스_14444-2" class="st2" d="M-1089.2-1433.6c0,14.2-27,25.8-60.3,25.8c-33.3,0-60.4-11.5-60.4-25.8
		c0-14.2,27-25.8,60.4-25.8C-1116.2-1459.4-1089.2-1447.9-1089.2-1433.6"/>
</g>
<g id="right_person02" transform="translate(1475.026 1597.776)">
	<path id="패스_14534" class="st5" d="M-1172.3-1424.1c0,0,0,3.9,1,2.6c0.5-1,0.8-2.1,0.8-3.2c0,0,0-1.5-2-1L-1172.3-1424.1z"/>
	<path id="패스_14535" class="st6" d="M-1193.8-1459l-3.8,9.6l2.2-0.8l-12-4.4c-0.5-0.2-1.1,0.1-1.3,0.6c-0.2,0.5,0,1.1,0.5,1.3
		l11.5,5.6c0.7,0.4,1.7,0.1,2.1-0.6l0.1-0.2l5.1-9c0.7-1.1,0.3-2.6-0.9-3.2c-1.1-0.7-2.6-0.3-3.2,0.9c0,0,0,0,0,0.1
		C-1193.8-1459.2-1193.8-1459.1-1193.8-1459"/>
	<path id="패스_14536" class="st7" d="M-1196.7-1453.2l2.6-5.7c0.2-0.4,0.6-0.6,1.1-0.6c1.2,0,2.3,0.5,3.1,1.4
		c0.3,0.3,0.4,0.8,0.2,1.2l-2.6,5.7c-0.2,0.4-0.6,0.6-1.1,0.6c-1.2,0-2.3-0.5-3.1-1.4C-1196.8-1452.4-1196.8-1452.8-1196.7-1453.2"
		/>
	<path id="패스_14537" class="st6" d="M-1208.8-1452.9c0.9,0.3,1.8-0.3,2.1-1.1s-0.3-1.8-1.1-2.1c-0.8-0.2-1.6,0.1-2,0.9
		C-1210.2-1454.3-1209.7-1453.3-1208.8-1452.9"/>
	<path id="패스_14538" class="st5" d="M-1206.5-1406.9c0,0-3.6,1.5-2.1,1.9c1.1,0.1,2.2-0.1,3.2-0.5c0,0,1.2-0.5,0.1-1.7
		L-1206.5-1406.9z"/>
	<path id="패스_14539" class="st4" d="M-1192.2-1439.4l5.9,20.3l0.1,0.3c0.3,1.1,1.5,1.8,2.6,1.4c0.1,0,0.3-0.1,0.4-0.2l11.1-6.1
		c0.6-0.3,0.8-1,0.5-1.5c-0.3-0.5-0.8-0.7-1.4-0.5l-12.1,3.9l3.2,1.6l-3.9-20.7c-0.3-1.8-2.1-3-3.9-2.6c-1.8,0.3-3,2.1-2.7,3.9
		C-1192.3-1439.6-1192.2-1439.5-1192.2-1439.4"/>
	<path id="패스_14540" class="st4" d="M-1194-1440.2l-10.2,12.9l-0.2,0.2c-0.2,0.2-0.3,0.5-0.4,0.9l-2.3,18.6
		c-0.1,0.6,0.4,1.2,1,1.3c0.6,0.1,1.1-0.3,1.3-0.9l4.4-18.3l-0.5,1.1l11.9-11.3c1.3-1.3,1.4-3.4,0.1-4.7s-3.4-1.4-4.7-0.1
		C-1193.8-1440.4-1193.9-1440.3-1194-1440.2"/>
	<path id="패스_14541" class="st1" d="M-1194.9-1459.8c0-1.4,0.8-2.1,1.9-1.9l0,0c3.8,0.8,7.2,3,9.5,6.2l0,0
		c0.7,0.9,1.1,2,1.1,3.1c0,0.3-0.1,0.6-0.1,0.8c0,0-1.8,10.3-2.4,14.3c-0.3,2-10.2,0-10.1-3
		C-1194.9-1443.2-1194.9-1459.6-1194.9-1459.8"/>
	<path id="패스_14542" class="st4" d="M-1191.6-1457.3l1.5,2.7c0,0,4.4-3.4,2.6-5.4s-5.2-0.2-6.1,3.5L-1191.6-1457.3z"/>
	<path id="패스_14543" class="st3" d="M-1192.3-1456l-0.1-1l0.7-0.3l0.1,0.1l0.5,0.9l-0.9,0.5l-3.6,8.9l-2.2,1.2l0.9-3.4
		L-1192.3-1456z"/>
	<path id="패스_14544" class="st8" d="M-1187.8-1462.2c-0.5,1.1-0.5,2.3,0.1,3.3c-1.5,3.5-5.3,1.5-4.6,0c0.7-1.5,0-2.1,0-2.1
		L-1187.8-1462.2z"/>
	<path id="패스_14545" class="st6" d="M-1193.3-1467c1.5,0.9,3.2,1.5,4.9,1.7c0,0,1.2,0.6,1.1,1.5l0,0l0,0
		c0.2-0.2,0.5-0.3,0.7,0.1c0.4,0.6-0.8,1.9-1.1,1.5c-0.2,0.5-0.4,0.9-0.6,1.4c-0.8,0.7-1.8,1.2-2.8,1.5c-2.9,0.8-3.1-2.6-2.6-6.5
		C-1193.5-1466.3-1193.4-1466.6-1193.3-1467"/>
	<path id="패스_14546" class="st9" d="M-1189.2-1464.6c0.7,0.2,1.2,0.9,1,1.6c0,0.2-0.1,0.4-0.3,0.6l0.7-0.1
		c0.8-0.6,1.2-1.5,1-2.5C-1187-1466.7-1189.2-1464.6-1189.2-1464.6"/>
	<path id="패스_14547" class="st9" d="M-1185.3-1466.8c-0.6-1.8-2.4-3.1-4.3-3c-0.8,0-6.5,2-3.4,4.4c0.7,0.4,1.9,0.9,4.6,0.8
		c0,0,1.3-0.2,1.3,0.8l0,0c0.2-0.2,0.5-0.3,0.7,0.1c0.4,0.6-0.8,1.9-1.1,1.5c-0.1,0.4-0.3,0.9-0.5,1.3c0,0,0,0.1,0,0.1
		c-0.3,0.7,0.1,1,0.1,1c0-0.8,1.1-1.9,1.3-2.1C-1185.3-1463.2-1184.8-1465.1-1185.3-1466.8"/>
	<path id="패스_14548" class="st6" d="M-1185.7-1432.7c-0.2,0.9,0.4,1.8,1.3,1.9s1.8-0.4,1.9-1.3c0.1-0.8-0.3-1.6-1.1-1.9
		C-1184.4-1434.3-1185.4-1433.7-1185.7-1432.7"/>
	<path id="패스_14549" d="M-1174.2-1436.8l-13.6,4.9v-10.1l13.6-4.9V-1436.8z"/>
	<path id="패스_14550" class="st6" d="M-1185.9-1449l7.5,10.8l0.2-2l-6.8,8.3c-0.4,0.4-0.3,1.1,0.2,1.5c0.4,0.3,1,0.3,1.4-0.1
		l7.7-7.5c0.5-0.5,0.6-1.3,0.3-1.9l-0.1-0.2l-6.6-11.6c-0.6-1.1-2.1-1.5-3.2-0.9c0,0,0,0,0,0c-1.1,0.6-1.1,1.4-0.4,2.5
		c0,0.1,0.4,0.5,0.4,0.5"/>
	<path id="패스_14551" class="st7" d="M-1183.4-1444.6l-3.6-5.7c-0.2-0.4-0.2-0.9,0.1-1.3c0.7-1.1,1.8-1.8,3.1-1.9
		c0.5-0.1,0.9,0.1,1.2,0.5l3.6,5.7c0.2,0.4,0.2,0.9-0.1,1.3c-0.7,1.1-1.8,1.8-3.1,1.9C-1182.7-1444-1183.1-1444.2-1183.4-1444.6"/>
	<path id="패스_14552" class="st9" d="M-1190.4-1469.7c-0.8,0.3-2.8,0.3-2.8-1.1c-0.7,0.5-0.9,1.4-0.4,2.1
		c0.1,0.2,0.3,0.3,0.4,0.4c0,0-1.9,1.2,0,3.6c0.2-0.7,0.7-1.3,1.5-1.6C-1190.7-1466.5-1190.4-1469.7-1190.4-1469.7"/>
</g>
<g id="right_person03" transform="translate(1498.262 1602.167)">
	<path id="패스_14570" class="st10" d="M-1201.1-1439c0.2,0.8-0.4,1.6-1.2,1.8s-1.6-0.4-1.8-1.2c-0.2-0.8,0.4-1.6,1.2-1.8
		c0.1,0,0.2,0,0.3,0C-1201.8-1440.3-1201.1-1439.8-1201.1-1439"/>
	<path id="패스_14571" class="st7" d="M-1182.4-1459.5l-5,17.3l0,0.2c-0.2,0.6-0.7,1.1-1.3,1.2l-12.3,2.3
		c-0.6,0.1-1.2-0.3-1.4-0.9c-0.1-0.6,0.2-1.2,0.8-1.3l12-3.7l-1.3,1.4l3.5-17.7c0.3-1.4,1.7-2.3,3.1-2c1.4,0.3,2.3,1.6,2,3
		C-1182.3-1459.6-1182.3-1459.6-1182.4-1459.5"/>
	<path id="패스_14572" class="st5" d="M-1182.8-1403.4c0,0-4.2,3.3-2.4,3.3c1.3-0.2,2.5-0.8,3.5-1.6c0.4-0.2,0.6-0.7,0.5-1.2
		L-1182.8-1403.4z"/>
	<path id="패스_14573" class="st5" d="M-1176.8-1400.2c0,0-4.2,3.3-2.4,3.3c1.3-0.2,2.5-0.8,3.5-1.6c0.4-0.2,0.6-0.7,0.5-1.2
		L-1176.8-1400.2z"/>
	<path id="패스_14574" class="st4" d="M-1179-1438.9l-1.8,35.5c0,0.6-0.6,1.2-1.2,1.1c-0.6,0-1.1-0.5-1.1-1.1l-2.7-35.5
		c-0.1-1.9,1.3-3.6,3.2-3.7c1.9-0.1,3.6,1.3,3.7,3.2C-1179-1439.2-1179-1439-1179-1438.9"/>
	<path id="패스_14575" class="st4" d="M-1174.8-1436.8l-0.5,36.8c0,0.6-0.5,1.2-1.2,1.2c-0.6,0-1.1-0.5-1.2-1l-4.1-36.5
		c-0.2-1.9,1.2-3.6,3.1-3.8c1.9-0.2,3.6,1.2,3.8,3.1l0,0C-1174.8-1437.1-1174.8-1436.9-1174.8-1436.8"/>
	<path id="합치기_150" class="st1" d="M-1177-1430.2c-3.7-0.4-9.4-2.5-9.4-4.7c0.1-3.2-0.8-25.7-0.8-25.9c0-1.5,0.9-2.2,2-2
		c6.5,1.1,10.2,6.6,10.2,6.6l0,0c0.7,1,1.1,2.1,1.2,3.4c0,0.3-0.1,0.6-0.1,0.9c0,0,0,3.4-0.1,7.5c0.3,3.2,1.5,9.6,3.4,10.8
		c-0.7,2.2-2.8,3.7-5.2,3.6C-1176.1-1430-1176.6-1430.1-1177-1430.2z"/>
	<path id="패스_14578" class="st4" d="M-1180.5-1461.3c-2.4-1.2-5.2,0.3-5.2,0.3l0,1.8l-1.4,0.8l2.3,10.3l6.4-5.7l-0.4-2.7h1.2
		C-1177.6-1456.4-1176.4-1459.2-1180.5-1461.3"/>
	<path id="패스_14579" class="st11" d="M-1185.3-1456.3l0.5,8.2c0,0,5.7-9.9,4.9-11.7S-1185.3-1456.3-1185.3-1456.3"/>
	<path id="패스_14580" class="st4" d="M-1183.1-1458.1l1.8,3.2c0,0,3.7-4.3,1.8-5.4c-4.9-2.7-5.5,1.1-5.8,4.1L-1183.1-1458.1z"/>
	<path id="패스_14581" class="st8" d="M-1179.6-1463c-0.6,0.8-0.6,2,0.1,2.7c-1.6,3.6-5.5,2.3-4.8,0.7c0.7-1.6,0-2.2,0-2.2
		L-1179.6-1463z"/>
	<g id="돋보기" transform="translate(0 25.037)">
		<line id="선_178" class="st12" x1="-1183.6" y1="-1444" x2="-1177.6" y2="-1439.9"/>
		<line id="선_179" class="st13" x1="-1177.6" y1="-1439.9" x2="-1167.3" y2="-1432.9"/>
		<path id="패스_14587" class="st14" d="M-1195.2-1469.1c-7-4-12.6-0.8-12.7,7.2c0,8,5.6,17.8,12.6,21.8c7,4,12.6,0.8,12.7-7.2
			C-1182.6-1455.3-1188.2-1465-1195.2-1469.1"/>
		<path id="패스_14588" class="st15" d="M-1197.3-1467.7c-7-4-12.6-0.8-12.7,7.2c0,8,5.6,17.8,12.6,21.8c7,4,12.6,0.8,12.7-7.2
			C-1184.7-1453.9-1190.4-1463.7-1197.3-1467.7"/>
		<path id="패스_14589" class="st16" d="M-1197.3-1464.5c-5.4-3.1-9.8-0.6-9.9,5.6c0,6.2,4.4,13.8,9.8,16.9
			c5.4,3.1,9.8,0.6,9.8-5.6C-1187.5-1453.8-1191.9-1461.3-1197.3-1464.5"/>
	</g>
	<path id="패스_14582" class="st6" d="M-1186.3-1467.1c1.7,0.6,3.5,0.8,5.3,0.7c0,0,1.3,0.3,1.4,1.3l0,0l0,0
		c0.2-0.2,0.5-0.4,0.8-0.1c0.5,0.5-0.4,2.1-0.8,1.7c-0.1,0.5-0.2,1-0.3,1.5c-0.7,0.8-1.5,1.5-2.5,2.1c-2.8,1.4-3.7-2-3.9-6.1
		C-1186.4-1466.3-1186.4-1466.7-1186.3-1467.1"/>
	<path id="합치기_149" class="st9" d="M-1179.9-1461.9C-1179.9-1461.9-1179.9-1462-1179.9-1461.9c0.2-0.5,0.3-1,0.3-1.5
		c0.4,0.3,1.3-1.2,0.8-1.7c-0.3-0.3-0.6-0.1-0.8,0.1l0,0c0,0.6-0.1,1.1-0.5,1.6c0-0.4-0.2-0.8-0.5-1.1c-0.1,0.3-0.3,0.6-0.5,0.9
		c0-0.5-0.4-0.9-0.9-0.9c-0.1,0-0.2,0-0.3,0.1c-1.3,0.7-2.8,0.2-3.5-1c0,0,0-0.1,0-0.1c-3.4,0.2-1.7-4,2.6-5.2c2-0.5,4,0.4,5,2.2
		c0.9,1.7,0.7,3.7-0.5,5.2c-0.1,0.2-1.1,1.6-1.2,1.6C-1180-1461.7-1180-1461.8-1179.9-1461.9z"/>
	<path id="패스_14586" class="st1" d="M-1184.4-1457.1l0.4,0.9l-1,5l0.2,3.1l1.6-2.9v-5.1l1-0.6l-0.8-1.4L-1184.4-1457.1z"/>
	<path id="패스_14591" class="st7" d="M-1173.4-1452.2l-0.3,14.1v0.2c0,0.6-0.4,1.2-1,1.5l-13.3,6.1c-0.6,0.3-1.3,0-1.5-0.6
		c-0.2-0.5,0-1.2,0.5-1.5l12.7-7.3l-1,1.7l-1.2-14c-0.1-1.4,0.9-2.7,2.4-2.8c1.4-0.1,2.7,0.9,2.8,2.4
		C-1173.4-1452.3-1173.4-1452.2-1173.4-1452.2"/>
	<path id="패스_14590" class="st6" d="M-1188.2-1431.3c0.2,0.8-0.4,1.6-1.2,1.8c-0.8,0.2-1.6-0.4-1.8-1.2
		c-0.2-0.8,0.4-1.6,1.2-1.8c0.1,0,0.2,0,0.3,0C-1188.9-1432.6-1188.3-1432.1-1188.2-1431.3"/>
</g>
<g id="right_person01" transform="translate(1451.17 1608.632)">
	<path id="패스_14553" class="st6" d="M-1189.7-1459.1l-5.5,11.7l0,0.1c-0.2,0.4-0.6,0.7-1.1,0.7l-8.7,0.3c-0.5,0-0.1-2.2,0.4-2.3
		l8.1-0.7l-1.2,0.8l4.5-12.2c0.4-1,1.5-1.5,2.5-1.1c1,0.4,1.5,1.5,1.1,2.5l0,0C-1189.6-1459.2-1189.7-1459.2-1189.7-1459.1"/>
	<path id="패스_14554" class="st5" d="M-1189.9-1407.5c0,0-3.3,2.5-1.9,2.5c1-0.2,2-0.6,2.8-1.2c0,0,0.7-0.3,0.5-1.3H-1189.9z"/>
	<path id="패스_14555" class="st5" d="M-1184.9-1405.2c-0.7,0.6-1.4,1.3-2,2c-0.3,0.5,0.4,1.5,3.3-0.9c0.3-0.2,0.4-0.6,0.3-1
		L-1184.9-1405.2z"/>
	<path id="패스_14556" class="st6" d="M-1186.8-1432.8l-1.6,25.1c0,0.5-0.4,0.8-0.9,0.8c-0.4,0-0.8-0.4-0.8-0.8l-1.6-25.1
		c-0.1-1.4,0.9-2.5,2.3-2.6c1.4-0.1,2.5,0.9,2.6,2.3l0,0C-1186.8-1433.1-1186.8-1432.9-1186.8-1432.8"/>
	<path id="패스_14557" class="st6" d="M-1181.7-1430.3l-1.6,25.1c0,0.5-0.4,0.8-0.9,0.8c-0.4,0-0.7-0.4-0.8-0.8l-1.6-25.1
		c-0.1-1.4,0.9-2.5,2.3-2.6s2.5,0.9,2.6,2.3C-1181.7-1430.5-1181.7-1430.4-1181.7-1430.3"/>
	<path id="패스_14558" class="st4" d="M-1190.8-1461.7c1,0.5,1.5,1.7,1,2.7c0,0-3.8,8.3-4.5,9.9c-0.7,1.6-3.5-0.3-3.1-1.3
		l3.8-10.1c0,0,0-0.1,0-0.1C-1193-1461.7-1191.8-1462.1-1190.8-1461.7C-1190.8-1461.7-1190.8-1461.7-1190.8-1461.7"/>
	<path id="패스_14559" class="st1" d="M-1193.8-1454.8c-0.5-1.4-0.3-2.9,0.6-4.1c-0.1-1.1-0.1-1.8-0.1-1.9c0-1.4,0.8-2.1,1.9-1.9
		l0,0c6.1,1.1,9.7,6.3,9.7,6.3l0,0c0.7,0.9,1.1,2,1.1,3.2c0,0.3-0.1,0.6-0.1,0.8c0,0-1.5,5.9-2.3,9.2c0.4,2.3,3.2,10.9,3.2,16.2
		c0,5.3-12.8,1-12.9-1.1c-0.1-2.2-0.6-12.8,0.7-16.8c-0.1-0.7-0.2-2.3-0.4-4.3C-1192.6-1451-1193.1-1452.9-1193.8-1454.8"/>
	<path id="패스_14560" class="st4" d="M-1186-1460.8c-1.4-1.6-6.7,1.6-4.3,3.6S-1184.5-1459.1-1186-1460.8"/>
	<path id="패스_14561" class="st8" d="M-1187-1463.1c0.1,0.9,0.3,1.8,0.5,2.7c0.3,1.3-2.2,3-3.3,2.3s0.4-1.1-0.9-2.5
		C-1189.3-1461.2-1188.1-1462.1-1187-1463.1"/>
	<path id="패스_14562" class="st6" d="M-1189.6-1468.6c0.7,0.1,3.5,2.7,3.5,3.7l0,0l0,0c0.2-0.2,0.5-0.4,0.7,0
		c0.4,0.6-0.6,2-1,1.6c-0.1,0.5-0.3,1-0.5,1.4c-0.8,0.7-1.7,1.3-2.7,1.7c-2.9,1.1-3.3-2.4-3.2-6.3
		C-1192.6-1466.9-1191.2-1469-1189.6-1468.6"/>
	<path id="패스_14563" d="M-1184.6-1437.1c0.1,0.2,0.1,0.5-0.1,0.6c-0.1,0.1-0.2,0.1-0.3,0.1h-6.2c-0.4,0-0.8-0.3-1-0.7l-3.6-8
		c-0.1-0.2-0.1-0.5,0.1-0.6c0.1-0.1,0.2-0.1,0.3-0.1h6.2c0.4,0,0.8,0.3,1,0.7L-1184.6-1437.1z"/>
	<path id="패스_14564" class="st6" d="M-1181.1-1454.2l5.4,10.9l0.1,0.1c0.3,0.6,0.1,1.4-0.6,1.7c-0.1,0-0.2,0.1-0.3,0.1l-9.7,2.2
		c-0.5,0.1-0.9-0.2-1-0.6c-0.1-0.4,0.1-0.9,0.6-1l9.4-3.2l-0.8,2l-6.4-10.4c-0.5-0.9-0.2-2.1,0.7-2.6c0.9-0.5,2-0.3,2.6,0.6
		C-1181.2-1454.3-1181.1-1454.3-1181.1-1454.2"/>
	<path id="패스_14565" class="st4" d="M-1183.8-1455.5c1.1-0.6,2.4-0.1,2.9,0.9c0,0,0,0,0,0c0,0,3.8,7.8,4.7,9.4
		c0.9,1.6-2.6,2.7-3.1,1.8c-0.6-0.9-5.4-9-5.4-9c0,0,0-0.1-0.1-0.1C-1185.3-1453.6-1184.9-1455-1183.8-1455.5"/>
	<path id="패스_14566" class="st9" d="M-1183.8-1463.1L-1183.8-1463.1c0.1-1.3,0.1-2.6-0.2-3.8c-0.1-0.4-0.2-0.8-0.3-1.2
		c0-0.1-0.1-0.2-0.1-0.2c-0.8-1.7-2.6-2.6-4.5-2.4c-0.6,0-4.2,0.9-3.7,4.3c0,0.1,1.8-2,5.5,2l0,0c0,0,0.6,0.4,0.1,1.4
		c0,0,0.6-0.3,0.9-1.8c0.2-0.2,0.5-0.4,0.7,0c0.4,0.6-0.6,2-1,1.6c-0.1,0.5-0.3,1-0.5,1.4c-0.5,1.2-0.8,4,1.8,4.3
		c2.1,0.3,2.8-0.6,2.8-0.6C-1179.8-1460.4-1183.8-1463.1-1183.8-1463.1"/>
	<path id="패스_14568" class="st6" d="M-1204.5-1448.5c-0.6-0.1-1.1-0.2-1.7-0.2c-0.7,0.1-1.4,0.3-2.1,0.6
		c-0.3,0.1,0.1,0.4,0.3,0.4c0.2,0,0.9-0.1,1,0c-0.5,0.3-1.1,0.4-1.7,0.5c-0.6,0.2-1,0.5-1.3,1c-0.2,0.3,2,1.3,2.5,1.5s2-1,2.2-1.1
		c0.4-0.4,0.8-0.7,1.2-1C-1203.6-1447.1-1204.5-1448.5-1204.5-1448.5"/>
	<path id="패스_14569" class="st6" d="M-1186-1440.9c-0.4-0.1-0.9-0.1-1.3-0.2c-0.6,0.1-1.1,0.2-1.7,0.4c-0.2,0.1,0.1,0.3,0.2,0.3
		c0.2,0,0.7-0.1,0.8,0c-0.4,0.2-0.8,0.3-1.3,0.4c-0.5,0.1-0.7,0.6-0.5,1.1c0.2,0.5,0.9,0.6,1.3,0.7c1-0.1,2-0.5,2.8-1.1
		C-1185.2-1439.8-1186-1440.9-1186-1440.9"/>
</g>
<g id="그룹_21285" transform="translate(1245 1628.241)">
	<path id="패스_14442-3" class="st1" d="M-1089.3-1406.1L-1089.3-1406.1c0,0.2,0,0.4,0,0.5c0,14.2-27,25.8-60.3,25.8
		c-33.3,0-60.4-11.5-60.4-25.8c0-0.2,0-0.4,0-0.5h0v-26.3h120.7V-1406.1z"/>
	<path id="패스_14444-3" class="st2" d="M-1089.3-1433.6c0,14.2-27,25.8-60.3,25.8s-60.4-11.5-60.4-25.8c0-14.2,27-25.8,60.4-25.8
		C-1116.3-1459.4-1089.3-1447.9-1089.3-1433.6"/>
</g>
<g id="left_person03" transform="translate(1292.679 1579)">
	<path id="패스_14445" class="st6" d="M-1198.6-1453.5l4.8,16.6l0-0.9l-2,10.1c-0.1,0.6,0.3,1.2,0.9,1.3c0.6,0.1,1.1-0.2,1.3-0.7
		l3.3-9.8c0.1-0.2,0.1-0.5,0-0.7l0-0.2l-3.4-17c-0.3-1.3-1.6-2.2-2.9-1.9c-1.3,0.3-2.2,1.6-1.9,2.9
		C-1198.7-1453.7-1198.6-1453.6-1198.6-1453.5"/>
	<path id="패스_14446" class="st4" d="M-1191.8-1447.7l-1.2-6.7c-0.1-0.5-0.5-0.8-0.9-0.9c-1.2-0.4-2.6-0.1-3.6,0.6
		c-0.4,0.3-0.6,0.7-0.6,1.2l1.2,6.7c0.1,0.5,0.5,0.8,0.9,0.9c1.2,0.4,2.6,0.1,3.6-0.6C-1192-1446.8-1191.8-1447.2-1191.8-1447.7"/>
	<path id="패스_14447" class="st5" d="M-1196-1393.9c0,0,3.7,2.8,2.1,2.8c-1.2-0.2-2.2-0.7-3.1-1.4c-0.4-0.2-0.5-0.6-0.5-1
		L-1196-1393.9z"/>
	<path id="패스_14448" class="st5" d="M-1201.3-1391.2c0.9,0.8,1.8,1.6,2.6,2.5c0.3,0.6-0.5,1.7-3.7-1c-0.3-0.3-0.5-0.7-0.3-1.1
		L-1201.3-1391.2z"/>
	<path id="패스_14449" class="st6" d="M-1199.3-1422l1.8,28.2c0,0.5,0.5,0.9,1,0.8c0.5,0,0.8-0.4,0.8-0.8l1.8-28.2
		c0.1-1.5-1-2.7-2.5-2.8s-2.7,1-2.8,2.5C-1199.3-1422.2-1199.3-1422.1-1199.3-1422"/>
	<path id="패스_14450" class="st6" d="M-1204.6-1419.5l1.8,28.2c0,0.5,0.5,0.9,1,0.8c0.5,0,0.8-0.4,0.8-0.8l1.8-28.2
		c0.1-1.5-1-2.7-2.5-2.8c-1.5-0.1-2.7,1-2.8,2.5C-1204.6-1419.7-1204.6-1419.6-1204.6-1419.5"/>
	<path id="패스_14452" class="st4" d="M-1193.1-1451.9c0.1-1.2,0.2-2,0.2-2.1c0-1.6-0.9-2.4-2.2-2.1l0,0
		c-6.9,1.2-10.9,7.1-10.9,7.1l0,0c-0.8,1-1.2,2.3-1.3,3.6c0,0.3,0.1,0.6,0.1,0.9c0,0,3,7.4,2.5,10.4c-0.5,2.9,9.9,0.5,10.1-1.9
		c0.2-2.5,0.2-2.6,0.4-4.8c0.3-2.2,0.8-4.4,1.6-6.4C-1191.9-1448.9-1192.1-1450.6-1193.1-1451.9"/>
	<path id="합치기_147" class="st1" d="M-1206.2-1415.7c0-6.2,0.6-12.4,1.7-18.5l0.2,0c0.9-3.6,2.9-10.9,2.9-10.9l7.8-2.9l0,15
		l0,0.1c0.7,5.3,0.3,13,0.1,15.9c-0.1,2.2-4.7,4.1-8.4,4.1C-1204.3-1412.8-1206.2-1413.6-1206.2-1415.7z"/>
	<path id="패스_14461" class="st4" d="M-1203.7-1437.4l2.4-7.3c0.1-0.5-0.1-1.1-0.5-1.4c-1-1-2.5-1.5-4-1.3
		c-0.5,0.1-1,0.4-1.2,0.9l-2.4,7.3c-0.1,0.5,0.1,1.1,0.5,1.4c1,1,2.5,1.5,4,1.3C-1204.4-1436.6-1203.9-1436.9-1203.7-1437.4"/>
	<path id="패스_14460" class="st6" d="M-1206.7-1437.1l-2-0.5l-1.2,4.9l-0.1,0.2c-0.1,0.5,0,1,0.3,1.3l6,7.3
		c0.4,0.5,1.1,0.5,1.6,0.1c0.4-0.3,0.5-0.9,0.2-1.4l-4.9-8.1l0.2,1.5l1.8-4.9"/>
	<path id="패스_14453" class="st17" d="M-1201.3-1453.6c0,0-0.3,1.8,0.6,9.4"/>
	<path id="패스_14454" class="st17" d="M-1198.8-1453.1c0,0,3.7-1.7,4.5,5.9"/>
	<path id="패스_14456" class="st16" d="M-1197-1451l-1.3,2.2c0,0-4.6-3.5-3-5.3c1.6-1.8,5.4,0.9,6.2,4.2L-1197-1451z"/>
	<path id="패스_14457" class="st8" d="M-1200.1-1456.7c-0.1,1-0.3,2.1-0.6,3.1c-0.3,1.5,3.7,2.6,3.7,2.6c0.7-1-0.5-1.3,1-2.9
		C-1197.5-1454.6-1198.9-1455.6-1200.1-1456.7"/>
	<path id="패스_14458" class="st6" d="M-1197.2-1462.5c-0.8,0.2-3.9,3.1-3.9,4.2l0,0l0,0c-0.2-0.2-0.5-0.4-0.8,0
		c-0.5,0.6,0.7,2.2,1.1,1.8c0.1,0.5,0.3,1.1,0.5,1.6c0.9,0.8,1.9,1.5,3,2c3.2,1.2,3.8-2.7,3.6-7.1
		C-1193.8-1460.6-1195.4-1462.9-1197.2-1462.5"/>
	<path id="패스_14459" class="st9" d="M-1203.5-1454.6c-0.3-2-0.3-4,0-6c0.1-0.5,0.2-0.9,0.4-1.3c0-0.1,0.1-0.2,0.1-0.3l0,0
		c0.9-1.9,3-3,5.1-2.7c0.7,0.1,4.7,1,4.1,4.9c0,0.1-0.7,0.8-2.2-0.7c-0.7,1.6-2.2,2.8-4,3l0,0c0,0-0.6,0.5-0.1,1.5c0,0-0.7-0.3-1-2
		c-0.2-0.2-0.5-0.4-0.8,0c-0.5,0.6,0.7,2.2,1.1,1.8c0.1,0.5,0.3,1.1,0.5,1.6c0.5,1.3,1.1,3.9-1.7,4.3c-2.9,0.3-3.6-1.1-3.6-1.1
		S-1203.1-1451.4-1203.5-1454.6"/>
	<g id="그룹_20812" transform="translate(5.538 0)">
		<path id="패스_12533" class="st18" d="M-1199-1467.6l-0.3,2.5l-0.1,1.7c-2,1.9-6.1,1.4-8-0.2c-0.6-0.4-1-1.1-1.1-1.8l0.7-4.2
			L-1199-1467.6z"/>
		<g>
			<defs>
				<rect id="SVGID_1_" x="-1208.5" y="-1469.6" width="9.5" height="6.2"/>
			</defs>
			<clipPath id="SVGID_00000001658191593760947610000000466961903426278798_">
				<use xlink:href="#SVGID_1_"  style="overflow:visible;"/>
			</clipPath>
			
				<g id="그룹_14339" transform="translate(1.52 1.217)" style="clip-path:url(#SVGID_00000001658191593760947610000000466961903426278798_);">
				<path id="패스_12534" class="st20" d="M-1200.5-1468.8l-0.3,2.5c-1.2,1.6-3.4,2.1-5.2,1.2c-1,0.2-1.9,0.3-2.9,0.3
					c-0.6-0.4-1-1.1-1.1-1.8l0.7-4.2L-1200.5-1468.8z"/>
			</g>
		</g>
		<path id="패스_12535" class="st18" d="M-1209.5-1467.8c-2.3,2.4,3.4,4.8,5.9,2.7c1.9,1.2,5.2,0,4.7-1.8c2.3-2.5-2.5-5-5.1-3.4
			C-1206.4-1471.8-1210.6-1469.8-1209.5-1467.8"/>
	</g>
</g>
<g id="left_person02" transform="translate(1261.677 1607.916)">
	<path id="패스_14488" class="st21" d="M-1183.6-1450.3l1,2.4c0.8-1.6,1.7-3.1,2.6-4.6c0.9-0.9,2.2-1.3,3.4-1
		c0.9,0.4,1.9,0.8,2.7,1.3c0.4,0.2,0.2,0.7-0.3,0.7c-0.6-0.1-1.3-0.2-1.9-0.4c0,0-1.1,1.4-1.9,1.5c-0.8,0.2-0.8,1.6-1.6,3.4
		c-0.6,1.4-1.7,2.5-3.2,2.9c-1.2,0.3-3.4-2-3.4-2c0-1.3,0.2-2.5,0.3-3.8C-1185.7-1449.5-1184.5-1450.2-1183.6-1450.3"/>
	<path id="패스_14489" class="st16" d="M-1186.2-1458.7c0.5,0.6,0.9,1.3,1.2,2c0.4,1.1,0.7,2.3,0.8,3.4c0.1,0.5,0.1,1,0,1.5
		c0,0-1.1,0.6-1.3,0.7c-0.3-0.8-0.6-1.7-0.8-2.6c-0.4-1.4-1-3.7-1-3.7C-1186.9-1457.7-1186.5-1458.2-1186.2-1458.7"/>
	<path id="패스_14490" class="st22" d="M-1184.1-1451.7l0.5,1.4l-1.3,0.6l-0.5-1.5C-1185.1-1451.5-1184.6-1451.7-1184.1-1451.7"/>
	<path id="패스_14491" class="st9" d="M-1197-1457.4c0.3-1.2,0.4-3.2,0.5-4.4c0.2-1.2-0.1-3.3,0.8-4.2c0.6-0.4,1.3-0.5,2-0.6
		c0.5,0.1,1-0.1,1.3-0.5c0,0,0.1-0.1,0.1-0.1c0.2-0.2,0.3-0.4,0.4-0.6c0-0.1,0-0.1,0-0.2c0,0,0,0,0,0c0,0,0-0.1,0-0.1
		c0.1-0.7-0.2-1.4-0.7-1.8c-0.8-0.6-1.8-1-2.8-1c-1.9-0.2-3.8,1-4.4,2.8c-1,2.5-0.6,5.3-0.9,7.9c-0.3,2.6-1.6,6.6-4.2,7.8
		C-1200.8-1451.2-1197.7-1454.4-1197-1457.4"/>
	<path id="패스_14492" class="st23" d="M-1190.1-1468.1c-0.6-0.9-1.8-1.1-2.7-0.5c-2,1.4-1.4,2.8-0.9,3.1
		S-1190.1-1468.1-1190.1-1468.1"/>
	<path id="패스_14493" class="st24" d="M-1206-1412.4l-0.8,1.8c0,0,0.4,1.2,0.8,1.9c0.3,0.7,0.6,0.8,1.1,1.6
		c0.5,0.9,0.3,1.3-1.3,1.3s-2-0.8-2.5-1.8c-0.6-1-0.9-2.2-1.1-3.3c0-1.4,1-1.3,1.7-1.8C-1207.7-1413.1-1206-1412.4-1206-1412.4"/>
	<path id="패스_14494" class="st24" d="M-1184.7-1407.4c0.3,0.9,1,1.5,1.9,1.7c1.7,0.3,2,0,2.8,0.5c0.7,0.5-0.3,1.4-1.1,2
		c-1.1,0.6-2.3,0.7-3.4,0.2c-1.2-0.3-2.4-0.7-2.3-1.8c0-0.7-0.1-1.3-0.4-1.9C-1187.3-1406.8-1185.1-1408.5-1184.7-1407.4"/>
	<path id="패스_14495" class="st5" d="M-1182.2-1405.7c0,0.4-0.3,0.8-0.7,1c-0.9,0.4-1.8,0.4-2.7,0c-0.4-0.3-0.8-0.5-1.2-0.7
		c-0.3,1,0.3,2,1.2,2.3c1.6,0.7,3.5,0.8,5.2,0.2c0.8-0.5,2.2-1.1,1.3-2.3C-1179.6-1405.7-1182.2-1405.7-1182.2-1405.7"/>
	<path id="합치기_148" class="st1" d="M-1187.2-1406.5c-1.1-3.2-2.2-12.9-2.5-13.7c-0.7-1.9-3.4-8.2-4.3-10.3
		c0,0.2-0.1,0.4-0.1,0.4c-0.1,0.9-0.2,1.9-0.4,2.8c-0.7,2.5-1.6,4.9-2.7,7.2c0,0-7.4,7.8-9.4,9.4c-1.2-0.1-2-1.1-2.1-2.2l7.7-11
		c0-2-0.4-4.5-0.3-8.3c0.1-3.8-1.1-6.3,0.3-7c0.6-0.3,7-0.1,7.7-0.3l0,0c1.2-0.4,2.8-0.6,3.2-0.8c3.9,5.7,4.6,16.2,4.6,16.2
		s0.6,4.4,0.6,6.1c0,3,0.1,6.1,0.5,9.1c0,0.4,0.2,1.1,0.3,1.7C-1185.1-1406.9-1186.1-1406.6-1187.2-1406.5
		C-1187.2-1406.5-1187.2-1406.5-1187.2-1406.5z"/>
	<path id="패스_14498" class="st4" d="M-1186.2-1453.4c0.3,1.2,1.2,3.6,1.5,4.6c0.6,2.1-1.3,3.1-3.1,3.5c-0.2,1.1-0.9,2-1.8,2.4
		c0,0.6-0.3,1.2-0.8,1.6c0.2,0.2,0.6,1.2,0.4,1.4c-2.3,4.2-8.9,3.9-11.9,2.2c-0.6-0.4-0.3-1.7,0-2c-0.6-0.5-0.9-0.9-0.2-3.1
		c0.3-1.1,0.5-2.2,0.6-3.4c0.3-4.1,1.4-7.4,3.3-9c1.9-1.2,3.8-2.3,5.8-3.3c2.1-1.2,3.1-1.5,4.8,0.7
		C-1187-1457.2-1186.8-1455.8-1186.2-1453.4"/>
	<path id="패스_14499" class="st8" d="M-1188.9-1451.7c-2.4,0.5-4-3.2-5.4-4.7c1-1.1,1.3-3.5,1.3-5.7c0-0.1,3,1.7,2.8,2.3
		c-0.4,2.3,0.9,3,1.4,3.1C-1187.9-1454-1187.6-1452-1188.9-1451.7"/>
	<path id="패스_14500" class="st11" d="M-1187.7-1457.4c0,0,0.4,2.2,0.7,3c0.3,0.8,0.9,2.6,0.9,2.6s-0.8-0.4-1.2-0.2
		c-0.4,0.2-0.8,0.8-1.1,0.9c-0.3,0.1-0.6,0.1-0.8,0l-0.3-1c0,0,0.8-0.2,0.8-1.5s-0.1-3-0.1-3L-1187.7-1457.4z"/>
	<path id="패스_14501" class="st11" d="M-1193.4-1458.3c0,0,0.7,1.5,1.3,2.7c0.7,1.1,1.6,2.2,2.7,3c0.6,0.6,0.9,1.5,0.7,2.3
		c0,0-0.4-0.9-0.9-0.8c-0.6,0.3-1.1,0.6-1.6,1.1c-0.8-0.8-1.5-1.7-2.2-2.6c-0.7-1.2-1.8-3.2-1.4-4.6
		C-1194.4-1458.6-1193.4-1458.3-1193.4-1458.3"/>
	<path id="패스_14502" class="st6" d="M-1185.7-1460.1c-0.4,1.7-1.7,4.2-4,3.3c-2.8-1.1-3.6-3.7-4-6.2c0-0.1,0-0.2,0.1-0.2
		c0.8-0.5,1.7-1,2.7-1.2c1.4-0.6,3.1-0.7,4.5-0.2C-1185.1-1464.4-1185.2-1462.1-1185.7-1460.1"/>
	<path id="패스_14503" class="st9" d="M-1192.9-1459.1c0.9,0.1,1.6-2.2,2-3.2c1.4,0.1,2.8-0.5,3.7-1.6c0.5,0.5,1.2,0.8,1.9,0.8
		c0.6-1.7-0.5-3.3-1.8-4.3c-1.6-1.1-3.8-1-5.3,0.3C-1195.3-1464.9-1194.8-1462.9-1192.9-1459.1"/>
	<path id="패스_14504" class="st24" d="M-1190.6-1461.2c0,0-0.4-1.5-1.4-0.7s0.4,2.3,0.4,2.3L-1190.6-1461.2z"/>
	<path id="패스_14505" class="st5" d="M-1205.9-1408.6c0,0,0.1,0.3,0.9,0.9c0.6,0.4,1,1.1,1,1.8c0,0.5-0.9,1.1-2.2,1
		c-1.2,0-2.2-0.8-2.6-1.9c-0.6-1.3-1.5-4.3-1.2-5c0.1-0.4,0.7-0.5,0.8-0.6c-0.1,0.4-0.1,0.8,0,1.3c0.2,0.9,0.6,1.7,1,2.5
		c0.3,0.6,1,0.9,1.6,0.7c0,0,0,0,0.1,0C-1206.2-1408.1-1205.9-1408.3-1205.9-1408.6"/>
	<path id="패스_14506" class="st25" d="M-1173.5-1444.5c3.1-3.6,1.7-8.2-0.6-11.8c-0.8-0.5-1.6-0.8-2.4-1.1
		c-4.8-1.4-14.8,2-12.9,11.4c0.2,1.2,0.7,2.4,1.4,3.5C-1184.6-1439.5-1178.3-1438.9-1173.5-1444.5"/>
	<path id="패스_14507" class="st26" d="M-1176.5-1437.1c5.6-1.3,8.7-8,6.8-13.3c-0.7-2.4-2.2-4.5-4.3-5.8
		c2.3,3.6,3.7,8.2,0.6,11.8c-4.9,5.6-11.1,4.9-14.6,2C-1185.7-1438.5-1181-1436-1176.5-1437.1"/>
	<path id="패스_14510" class="st4" d="M-1187.5-1446.5c0.4,0.4,1,0.4,1.4,0.1c0.1-0.1,0.2-0.2,0.2-0.3c0.5-0.8,1.3-2.1,0.5-2.7
		C-1187.1-1450.5-1188.4-1447.5-1187.5-1446.5"/>
	<path id="패스_14511" class="st27" d="M-1185.7-1452.9c-0.8,0.3-1.2,1.8-1.2,1.8c0.7,0,1.4-0.2,2-0.6c0,0.7,0.2,1.3,0.4,1.9
		c0,0,1.1-1.1,1.1-1.9c0.6,0.4,1.2,0.8,1.8,1.1c0,0,0.2-2-0.4-2.5c0.6-0.2,2.5-0.7,2.5-0.7s-1.6-1.1-2.4-0.9
		c0.3-0.7,0.5-1.4,0.6-2.1c0,0-1.4,0.6-1.7,1.4c-0.4-0.5-1-1-1.6-1.3c-0.1,0.7-0.1,1.4,0,2.1c-0.9,0-2.5,0.1-2.5,0.1
		C-1186.9-1453.7-1186.4-1453.2-1185.7-1452.9"/>
	<path id="패스_14512" class="st28" d="M-1184.4-1452.6c-0.3-0.4-0.5-0.8-0.7-1.3c-0.2-0.4,0.3-1.1,0.7-0.9
		c0.5,0.2,0.9,0.5,1.3,0.8c0.2,0.1,0.2,0.6-0.1,1S-1184.1-1452.4-1184.4-1452.6"/>
	<path id="패스_14513" class="st6" d="M-1192.6-1447.9c0.7,0.6,1.4,2,2,2.6c2.4-0.1,4.9-0.1,7.3,0.2c0.4-0.5,0.7-0.9,1-1.5
		c0.3-0.6,0.9-1.5,1.1-1c0.1,0.2-0.3,1.1-0.3,1.1c0,0.5,0.4,1,0.9,1c0.1,0,0.3,0,0.4-0.1c1-0.2,3.1-1.2,3-0.1
		c-0.1,1.2-0.9,2.2-2,2.6c-2.8,1-3.5,0.1-4,0.2c-1.9,0.6-3.9,1-5.9,1.2c-1.5,0-1.8,0.4-2.4,0.1c-1.5-1-4.6-2.9-4.6-2.9
		S-1193-1447.3-1192.6-1447.9"/>
	<path id="패스_14514" class="st16" d="M-1198.1-1455.2c1.9,0.4,3,2.2,4.3,4.5c1.1,1.9,1.5,2.7,1.5,2.7s-2,2.1-3.4,3.8
		c-2.7-1.3-4.8-3.2-5.3-5.5C-1201.8-1453.2-1199.6-1454.4-1198.1-1455.2"/>
</g>
<g id="left_person01" transform="translate(1315.629 1600.712)">
	<path id="패스_14463" class="st5" d="M-1202.2-1402c-0.2,0.8-0.4,1.6-0.5,2.4c0.3,0.4,0.7,0.7,1.2,0.9c0.6,0.2,0.8,0,0.8,0
		s2.3,1.9,2.7,2.1c0.4,0.3,0.9,0.4,1.4,0.3c0.7-0.1,1.3-0.4,1.3-0.8c-0.1-0.7-0.5-1.3-1.1-1.6c-1.9-1.2-3.2-3.5-2.8-3.3
		L-1202.2-1402z"/>
	<path id="패스_14464" class="st5" d="M-1209.2-1396.7c-0.2,0.8-0.4,1.6-0.5,2.4c0.3,0.4,0.7,0.7,1.2,0.9c0.6,0.2,0.8,0,0.8,0
		s2.3,1.9,2.7,2.1c0.4,0.3,0.9,0.4,1.4,0.3c0.7-0.1,1.3-0.4,1.3-0.8c-0.1-0.7-0.5-1.3-1.1-1.6c-1.9-1.2-3.2-3.5-2.8-3.3
		L-1209.2-1396.7z"/>
	<path id="패스_14517" class="st1" d="M-1203.8-1432c0,0,0,0.1,0.1,0.3c0,0.2,0.1,0.5,0.2,0.9c0.1,0.8,0.3,1.9,0.5,3.3
		c0.1,0.7,0.2,1.4,0.2,2.2c0,0.2,0,0.4,0,0.6c0,0.1,0,0.2,0,0.3l0,0.1c0,0,0,0,0,0v0v0v0c0,0.1,0,0.1,0,0.2l0,0.3v0.1v0.1l0,0.1
		c0,0.1,0,0.2,0,0.3c0,0.1,0,0.2,0,0.3c0,0.8,0,1.7-0.1,2.6c-0.1,0.9-0.1,1.9-0.2,2.8c0,0.2,0,0.5-0.1,0.7s0,0.5,0,0.8
		c0,0.3,0,0.5,0,0.8l0,0.2v0.1c0,0.1,0-0.1,0-0.1v0v0v0l0,0.2l0,0.2c0,0.5,0,1,0,1.5v0.7v0.3v0.2c0,0.1,0,0.1,0,0.2l0,0.4
		c0,0.1,0,0.3,0,0.4c0,0.2,0,0.5,0,0.7c0,0.4,0.1,0.9,0.1,1.3c0.1,0.8,0.1,1.6,0.2,2.4c0.1,1.5,0.3,2.7,0.3,3.5l0.1,1.3
		c0.1,0.9,0.9,1.6,1.9,1.5c0.9-0.1,1.5-0.8,1.5-1.7v0c0,0,0-0.5,0-1.3s0-2,0.1-3.5c0-0.7,0-1.5,0.1-2.3c0-0.4,0-0.8,0.1-1.2
		c0-0.2,0-0.4,0-0.6c0-0.1,0-0.2,0-0.3c0-0.1,0-0.2,0-0.3l0-0.1l0-0.2c0-0.1,0-0.2,0-0.3v0v0c0,0,0,0,0,0v0l0-0.1l0-0.2
		c0-0.1,0-0.2,0-0.3c0.1-0.5,0.1-0.9,0.2-1.3l0-0.2l0-0.2l0,0v0v0c0,0,0-0.2,0-0.1l0-0.1l0-0.2c0-0.2,0.1-0.4,0.1-0.7
		s0.1-0.4,0.1-0.7l0.1-0.7c0.2-0.9,0.4-1.9,0.5-2.8c0.2-1,0.3-2,0.4-3c0-0.1,0-0.2,0-0.4c0-0.1,0-0.3,0-0.4c0-0.1,0-0.1,0-0.2l0-0.2
		c0-0.1,0-0.2,0-0.3l0-0.2v0v-0.1v-0.1c0-0.1,0-0.2,0-0.3c0-0.2,0-0.4,0-0.7c0-0.9,0-1.7,0-2.4c0-1.5,0-2.7-0.1-3.6
		c0-0.4,0-0.8-0.1-1s0-0.4,0-0.4l0,0c-0.2-1.9-1.9-3.4-3.8-3.2c-1.9,0.2-3.4,1.8-3.3,3.7C-1203.9-1432.3-1203.9-1432.1-1203.8-1432"
		/>
	<path id="패스_14516" class="st1" d="M-1204.9-1409.1L-1204.9-1409.1 M-1205.3-1406.9L-1205.3-1406.9 M-1206-1431
		c-0.8,0-1.5,0.3-2.1,0.8c0.3,0.1,0.4,0.5,0.3,0.8c0,0,0,0.1,0,0.1c-0.3,0.5-0.5,0.9-0.7,1.4c0,2.8,0.1,5.7,0.3,8.5
		c0,0.4-0.3,0.6-0.6,0.7v0.2v0.1c0,0.1,0,0.2,0,0.3c0,0.1,0,0.2,0,0.3c0,0.8-0.1,1.7-0.2,2.6c-0.1,0.9-0.2,1.8-0.4,2.8
		c0,0.2-0.1,0.5-0.1,0.7c0,0.2-0.1,0.5-0.1,0.8s-0.1,0.5-0.1,0.8l0,0.2l0,0.1l0,0c0,0,0-0.1,0-0.1v0v0l0,0l0,0.2l0,0.2
		c-0.1,0.5-0.1,1-0.1,1.5c0,0.2,0,0.5,0,0.7c0,0.1,0,0.2,0,0.3l0,0.2c0,0.1,0,0.1,0,0.2l0,0.4c0,0.1,0,0.3,0,0.4c0,0.2,0,0.5,0,0.7
		c0,0.4,0,0.9,0,1.3c0,0.8,0,1.6,0.1,2.4c0.1,1.5,0.1,2.7,0.2,3.5l0.1,1.3c0,0.9,0.9,1.7,1.8,1.6c0.9,0,1.6-0.7,1.6-1.6v0
		c0,0,0-0.5,0.1-1.3c0.1-0.8,0.1-2,0.3-3.4c0.1-0.7,0.1-1.5,0.2-2.3c0-0.4,0.1-0.8,0.1-1.2c0-0.2,0.1-0.4,0.1-0.6c0-0.1,0-0.2,0-0.3
		l0-0.3l0-0.1l0-0.2c0-0.1,0-0.2,0.1-0.3l0-0.1l0,0v0v0l0-0.1l0-0.2c0-0.1,0-0.2,0.1-0.3c0.1-0.4,0.2-0.9,0.3-1.3l0-0.1l0-0.2l0,0
		l0,0v0l0,0c0,0,0,0,0-0.1c0-0.1,0-0.1,0-0.1l0-0.1l0-0.2c0-0.2,0.1-0.4,0.1-0.6c0-0.2,0.1-0.4,0.2-0.7c0.1-0.2,0.1-0.5,0.2-0.7
		c0.2-0.9,0.5-1.8,0.7-2.8s0.4-1.9,0.6-2.9c0-0.1,0-0.2,0.1-0.4c0-0.1,0-0.3,0.1-0.4c0-0.1,0-0.1,0-0.2c0-0.1,0-0.1,0-0.2l0-0.3
		c0-0.1,0-0.1,0-0.2v0v0c0,0,0,0,0,0s0,0,0,0l0-0.1c0-0.1,0-0.2,0-0.3c0-0.2,0-0.4,0.1-0.7c0.1-0.9,0.1-1.7,0.2-2.4
		c0.1-1.5,0.1-2.7,0.1-3.6c0-0.4,0-0.8,0-1s0-0.4,0-0.4l0,0C-1202.4-1429.4-1204-1431-1206-1431L-1206-1431"/>
	<path id="합치기_145" class="st16" d="M-1182.5-1438.1l-9.3-1.7c-1.4-0.3-2.7-1-3.6-2.1l-6-7.6c-0.5-1.2,0.8-3.7,2.1-4.1l0,0
		c1-0.3,2,0.2,2.4,1.2l6,8.6l8.6,2.7c-0.4,0.5-0.7,1.2-0.7,1.8C-1183-1438.8-1182.8-1438.4-1182.5-1438.1L-1182.5-1438.1z"/>
	<path id="패스_14468" class="st4" d="M-1197.1-1451.6c-0.1-1.1-1-2-2.2-2c-0.2,0-0.4,0-0.6,0.1c-1.1,0.4-2.2,0.8-3.3,1.4
		c-1.4,0.9-2.8,2-4.1,3c-0.9,0.7-2.3,2.6-2.3,3.7c0.2,5.7,0.2,21-0.3,27.1c0,0,3.7,1.6,6.9,0.8s5.9-3.7,6.1-5c0.2-1.3,0-18.2,0-21
		C-1196.7-1445.1-1196.9-1448.9-1197.1-1451.6"/>
	<path id="패스_14518" class="st1" d="M-1203.1-1452c-0.8,0.5-1.7,1.1-2.4,1.7c2.3,1.3,5.9,5.8,5.9,5.8c-0.2-2.9-0.6-5.7-1.4-8.5
		C-1201.7-1452.7-1202.4-1452.4-1203.1-1452"/>
	<path id="패스_14470" class="st8" d="M-1205.3-1450.3c0.3-0.8,0.4-1.6,0.5-2.4c0.1-1.2,0-2.3,0-2.3l2.7-0.2l1,0.5l0.2,4l-0.2,2.1
		L-1205.3-1450.3z"/>
	<path id="패스_14471" class="st6" d="M-1204-1452.8c0.8,0.8,1.8,1.5,2.7,2.1c0.6,0.2,1.2,0.1,1.7-0.3c0.2-0.3,0.5-1.5,0.8-1.8
		c0.3-0.5,0.5-1,0.6-1.6c0-0.3,0-0.6,0.1-0.8c0.2-0.2,0.3-0.5,0.4-0.8c0.1-1.5-0.4-3-1.6-4.1c-1.8-1.6-3.6-1.4-4.9-0.5
		c-1,0.6-1.6,1.6-1.8,2.7C-1206-1457.1-1204.9-1453.6-1204-1452.8"/>
	<path id="패스_14472" class="st29" d="M-1199.6-1418.6c1.3-16.8,0-26-0.1-26.1l-0.1,0c0,0.1,1.3,9.3,0.1,26.1L-1199.6-1418.6z"/>
	<path id="패스_14473" class="st30" d="M-1199.8-1453.4c-1.1,0.4-2.2,0.8-3.3,1.4c-1.4,0.9-2.8,2-4.1,3c-0.9,0.7-1.9,1.5-1.8,2.6
		c0.2,5.7-0.2,22-0.7,28.2c0,0,3.7,1.6,6.9,0.8c3.2-0.8,5.9-3.7,6.1-5c0.2-1.3,0-18.2,0-21c0-1.7-0.2-5.6-0.4-8.2
		c-0.1-1.1-1-2-2.2-2C-1199.4-1453.5-1199.6-1453.5-1199.8-1453.4"/>
	<path id="패스_14474" class="st6" d="M-1198.6-1428.2c0.6-0.1,1.2-0.2,1.7-0.2c0.8,0.1,1.5,0.3,2.2,0.6c0.3,0.1-0.1,0.4-0.3,0.4
		c-0.2,0-0.9-0.1-1.1,0c0.5,0.3,1.1,0.4,1.7,0.5c0.6,0.2,1.1,0.5,1.4,1.1c0.2,0.3-2.1,1.4-2.6,1.5c-0.5,0.1-2.1-1-2.3-1.2
		c-0.4-0.4-0.8-0.7-1.2-1.1C-1199.6-1426.8-1198.6-1428.2-1198.6-1428.2"/>
	<path id="패스_14475" class="st16" d="M-1204.3-1444.1l-0.2,9.6l7.1,5.8c0,0-2,1.2-1.6,2.6l-9.2-6.2c-0.6-0.4-0.9-1-0.9-1.7
		l-0.4-10.9c0.1-1.4,1.2-2.4,2.5-2.4c0.1,0,0.2,0,0.2,0C-1205.2-1447-1204.1-1445.6-1204.3-1444.1
		C-1204.3-1444.1-1204.3-1444.1-1204.3-1444.1"/>
	<path id="패스_14476" class="st11" d="M-1200.2-1441.5c-0.8,0.4-1.6,0.7-2.5,1v0.6c0.8-0.2,1.7-0.6,2.5-0.9
		C-1200.2-1441.1-1200.2-1441.3-1200.2-1441.5"/>
	<path id="패스_14477" class="st9" d="M-1197.3-1459c-0.4-0.1-0.7-0.4-0.8-0.7c-0.2-1-1-1.8-1.9-2.1c-1.6-0.5-3.3-0.4-4.7,0.4
		c-1.1,0.6-1.8,1.8-1.8,3.1c0.3,1.2,0.8,2.4,1.4,3.6l0.3,0.8c-0.1-0.5-0.3-1.1-0.3-1.7c0-0.3,0.9-0.3,1-0.2c0.2,0.2,0.4,0.5,0.6,0.7
		c0,0.1,0.4,0.2,0.4,0.2c0-0.3,0-0.7,0.1-1c0.1-0.5,0.7-1.4,1.2-1.6s1.1,0.2,1.9-0.1C-1199.3-1457.8-1197-1458.5-1197.3-1459"/>
	<g id="모자" transform="translate(1.365)">
		<path id="패스_14480" class="st18" d="M-1206.7-1461.6c-1.7,1-1.7,2.6,0,3.6c2,1,4.3,1,6.2,0c1.7-1,1.7-2.6,0-3.6
			C-1202.4-1462.6-1204.7-1462.6-1206.7-1461.6"/>
		<rect id="사각형_9889" x="-1208" y="-1467.2" class="st18" width="8.8" height="7.5"/>
		<path id="패스_14481" class="st4" d="M-1206.8-1467.7c0,1.7,1.4,3.1,3.1,3.1c1.7,0,3.1-1.4,3.1-3.1c0-1.7-1.4-3.1-3.1-3.1
			C-1205.4-1470.8-1206.8-1469.4-1206.8-1467.7C-1206.8-1467.7-1206.8-1467.7-1206.8-1467.7"/>
		<path id="패스_14482" class="st18" d="M-1205.9-1465.5c0,1.4,1.2,2.6,2.6,2.6c1.4,0,2.6-1.2,2.6-2.6s-1.2-2.6-2.6-2.6
			c0,0,0,0,0,0C-1204.7-1468.1-1205.9-1466.9-1205.9-1465.5"/>
		<path id="패스_14483" class="st4" d="M-1210-1465.3c0,1.9,1.5,3.3,3.3,3.3c1.9,0,3.3-1.5,3.3-3.3c0-1.9-1.5-3.3-3.3-3.3
			C-1208.5-1468.6-1210-1467.1-1210-1465.3C-1210-1465.3-1210-1465.3-1210-1465.3"/>
		<path id="패스_14484" class="st4" d="M-1203.7-1465.5c0,1.9,1.5,3.3,3.4,3.3c1.9,0,3.3-1.5,3.3-3.3c0-1.9-1.5-3.3-3.3-3.3
			C-1202.2-1468.9-1203.7-1467.4-1203.7-1465.5L-1203.7-1465.5"/>
		<path id="패스_14485" class="st4" d="M-1206.4-1463.8c0,1.7,1.4,3.1,3.1,3.1c1.7,0,3.1-1.4,3.1-3.1s-1.4-3.1-3.1-3.1
			C-1205-1466.9-1206.4-1465.5-1206.4-1463.8L-1206.4-1463.8"/>
	</g>
	<path id="패스_14486" class="st6" d="M-1183.3-1439c0.4,0.4,0.8,0.8,1.3,1.2c0.7,0.4,1.4,0.6,2.1,0.8c0.3,0,0.1-0.4,0-0.6
		c-0.1-0.1-0.8-0.5-0.9-0.6c0.6,0.1,1.2,0.3,1.7,0.6c0.6,0.2,1.2,0.2,1.8-0.1c0.3-0.1-0.9-2.4-1.3-2.8c-0.3-0.4-2.3-0.4-2.6-0.4
		c-0.5,0.1-1.1,0.1-1.6,0.1C-1183.3-1440.7-1183.3-1439-1183.3-1439"/>
</g>
<g id="그룹_21291" transform="translate(1320 1501.797)">
	<g id="그룹_19976" transform="translate(23.579 9.973)">
		<g>
			<defs>
				<path id="SVGID_00000074412803938016605200000007147966918472566705_" d="M-1132.9-1480.3L-1132.9-1480.3l-11.7,31.3l-7.6,20.2
					l0.9,2.5c1.3,3.7,5.4,5.5,9.1,4.2c1.9-0.7,3.5-2.2,4.2-4.2l18.4-49c1.4-3.7-0.5-7.8-4.1-9.2
					C-1127.5-1485.8-1131.6-1483.9-1132.9-1480.3C-1132.9-1480.3-1132.9-1480.3-1132.9-1480.3"/>
			</defs>
			<clipPath id="SVGID_00000172430798680292445020000005189794714674421643_">
				<use xlink:href="#SVGID_00000074412803938016605200000007147966918472566705_"  style="overflow:visible;"/>
			</clipPath>
			<g id="그룹_19975" style="clip-path:url(#SVGID_00000172430798680292445020000005189794714674421643_);">
				
					<linearGradient id="패스_14090_00000087373606481121079550000001053910532711367098_" gradientUnits="userSpaceOnUse" x1="-1821.5244" y1="-979.7424" x2="-1822.0865" y2="-980.5184" gradientTransform="matrix(41.902 0 0 -80.196 75202.3594 -80056.6797)">
					<stop  offset="0" style="stop-color:#0177BF"/>
					<stop  offset="1" style="stop-color:#16C2F4"/>
				</linearGradient>
				<path id="패스_14090" style="fill:url(#패스_14090_00000087373606481121079550000001053910532711367098_);" d="
					M-1130.1-1390.6l27.5-72.2l-37.9-53l-27.5,72.2L-1130.1-1390.6z"/>
			</g>
		</g>
	</g>
	<g id="그룹_19978" transform="translate(14.271 20.34)">
		<g>
			<defs>
				<path id="SVGID_00000062174758880702856130000008039400618880426380_" d="M-1157.5-1466L-1157.5-1466L-1157.5-1466
					 M-1147.6-1479c-2.9,0-5.6,1.8-6.6,4.6l-1,2.5l-2.3,5.9c0.5-1.2,1.9-1.8,3.1-1.4c0.6,0.2,1.1,0.8,1.4,1.4l5.3,14.2l3.9,10.9
					l7.6-20.2l-4.8-13.3C-1142-1477.2-1144.7-1479-1147.6-1479L-1147.6-1479z"/>
			</defs>
			<clipPath id="SVGID_00000065060620336043755380000000393993335050489787_">
				<use xlink:href="#SVGID_00000062174758880702856130000008039400618880426380_"  style="overflow:visible;"/>
			</clipPath>
			<g id="그룹_19977" style="clip-path:url(#SVGID_00000065060620336043755380000000393993335050489787_);">
				
					<linearGradient id="패스_14092_00000183250467020035262900000011640550691442927282_" gradientUnits="userSpaceOnUse" x1="-1805.5237" y1="-992.0877" x2="-1805.1318" y2="-992.72" gradientTransform="matrix(26.807 0 0 -48.401 47248.2617 -49494.2109)">
					<stop  offset="0" style="stop-color:#16C2F4"/>
					<stop  offset="1" style="stop-color:#0177BF"/>
				</linearGradient>
				<path id="패스_14092" style="fill:url(#패스_14092_00000183250467020035262900000011640550691442927282_);" d="
					M-1167.8-1464.2l18.6,42l23.3-33.5l-18.6-42L-1167.8-1464.2z"/>
			</g>
		</g>
	</g>
	<g id="그룹_19980" transform="translate(7.723 27.708)">
		<g>
			<defs>
				<path id="SVGID_00000035496168411176896400000015167685968641577615_" d="M-1149.5-1474.7c-0.7,0.2-1.2,0.8-1.4,1.4l-2.6,6.8
					l-7.6,20l1,2.5c1,2.8,3.7,4.6,6.6,4.6h0c2.9,0,5.6-1.8,6.6-4.6l5.8-15.2l-5.3-14.2C-1146.9-1474.6-1148.3-1475.2-1149.5-1474.7
					C-1149.5-1474.7-1149.5-1474.7-1149.5-1474.7"/>
			</defs>
			<clipPath id="SVGID_00000065065853100433960460000008073315058853573055_">
				<use xlink:href="#SVGID_00000035496168411176896400000015167685968641577615_"  style="overflow:visible;"/>
			</clipPath>
			<g id="그룹_19979" style="clip-path:url(#SVGID_00000065065853100433960460000008073315058853573055_);">
				
					<linearGradient id="패스_14094_00000123443468986522286730000011563480269111734462_" gradientUnits="userSpaceOnUse" x1="-1797.1404" y1="-999.8646" x2="-1797.726" y2="-1000.6375" gradientTransform="matrix(25.024 0 0 -44.476 43828.6445 -45946.25)">
					<stop  offset="0" style="stop-color:#0177BF"/>
					<stop  offset="1" style="stop-color:#16C2F4"/>
				</linearGradient>
				<path id="패스_14094" style="fill:url(#패스_14094_00000123443468986522286730000011563480269111734462_);" d="
					M-1148.1-1422.4l16.5-40.1l-22.6-29.3l-16.5,40.1L-1148.1-1422.4z"/>
			</g>
		</g>
	</g>
	<g id="그룹_19981">
		<path id="패스_14096" class="st37" d="M-1096.7-1490.4c3.8,0,6.9,3,7,6.9c0,3.8-3,6.9-6.9,7c-3.8,0-6.9-3-7-6.9c0,0,0,0,0-0.1
			C-1103.6-1487.3-1100.6-1490.4-1096.7-1490.4"/>
	</g>
	<g id="그룹_19984" transform="translate(0 20.339)">
		<g>
			<defs>
				<path id="SVGID_00000104695788974976326800000001131638582564698788_" d="M-1160.9-1478.6L-1160.9-1478.6
					c-3.7,1.4-5.5,5.5-4.2,9.2l10.8,28.2l7.6-20l-5.2-13.2C-1153.1-1478.1-1157.2-1479.9-1160.9-1478.6
					C-1160.9-1478.6-1160.9-1478.6-1160.9-1478.6"/>
			</defs>
			<clipPath id="SVGID_00000122693878615537641070000006155126920997583789_">
				<use xlink:href="#SVGID_00000104695788974976326800000001131638582564698788_"  style="overflow:visible;"/>
			</clipPath>
			
				<g id="그룹_19983" transform="translate(0)" style="clip-path:url(#SVGID_00000122693878615537641070000006155126920997583789_);">
				
					<linearGradient id="패스_14097_00000039813501813690977240000005668963125979425412_" gradientUnits="userSpaceOnUse" x1="-1790.1685" y1="-992.1064" x2="-1789.7267" y2="-992.7232" gradientTransform="matrix(25 0 0 -47.946 43591.2539 -49044.8789)">
					<stop  offset="0" style="stop-color:#16C2F4"/>
					<stop  offset="1" style="stop-color:#0177BF"/>
				</linearGradient>
				<path id="패스_14097" style="fill:url(#패스_14097_00000039813501813690977240000005668963125979425412_);" d="
					M-1176-1464.3l17.3,41.6l21.7-33.2l-17.3-41.6L-1176-1464.3z"/>
			</g>
		</g>
	</g>
</g>
</svg>
