<svg xmlns="http://www.w3.org/2000/svg" width="120" height="120" viewBox="0 0 120 120"><defs><style>.a,.c{fill:none;}.b{fill:#999;stroke:rgba(0,0,0,0);}.c{stroke:#999;stroke-linecap:round;stroke-linejoin:round;stroke-width:4px;}.d{stroke:none;}</style></defs><g transform="translate(-787 -6120)"><rect class="a" width="120" height="120" transform="translate(787 6120)"/><g transform="translate(-349.89 48.461)"><path class="b" d="M52.642,100.964h-41.5a1.934,1.934,0,0,1-2-1.858V82.8a1.934,1.934,0,0,1,2-1.858,1.933,1.933,0,0,1,2,1.858V97.247h37.5V34.681h-37.5v33.7a1.933,1.933,0,0,1-2,1.858,1.934,1.934,0,0,1-2-1.858V32.822a1.933,1.933,0,0,1,2-1.858h41.5a1.933,1.933,0,0,1,2,1.858V99.106a1.934,1.934,0,0,1-2,1.858" transform="translate(1142.89 6079.036)"/><path class="b" d="M99.228,106.3H69.211a2,2,0,0,1-2-2V64.5a2,2,0,0,1,2-2H99.228a2,2,0,0,1,2,2v39.8a2,2,0,0,1-2,2m-28.017-4H97.228V66.5H71.211Z" transform="translate(1142.89 6073.808)"/><path class="b" d="M85.174,64.939a2,2,0,0,1-2-2V54.174a2,2,0,0,1,4,0v8.765a2,2,0,0,1-2,2" transform="translate(1142.643 6073.808)"/><path class="b" d="M84.927,36.99a2,2,0,0,1-2-2v-11.5L33.874,5.165V31.687a2,2,0,0,1-4,0V2A2,2,0,0,1,32.733.194L85.785,20.419a2,2,0,0,1,1.142,1.806V34.99a2,2,0,0,1-2,2" transform="translate(1142.89 6078.538)"/><path class="b" d="M107.11,106.385H2a2,2,0,0,1,0-4H107.11a2,2,0,0,1,0,4" transform="translate(1142.89 6073.615)"/><path class="b" d="M87.413,45.12a2,2,0,1,1-2-2,2,2,0,0,1,2,2" transform="translate(1142.403 6075.89)"/><path class="b" d="M13.376,80.184a2,2,0,1,1-2-2,2,2,0,0,1,2,2" transform="translate(1142.652 6074.808)"/><path class="b" d="M99.266,79.917H85.615a2,2,0,0,1,0-4H99.266a2,2,0,0,1,0,4" transform="translate(1142.89 6073.808)"/><path class="b" d="M38.66,88.339H25.009a2,2,0,0,1,0-4H38.66a2,2,0,0,1,0,4" transform="translate(1142.89 6079.67)"/><path class="b" d="M38.66,75.624H25.009a2,2,0,0,1,0-4H38.66a2,2,0,0,1,0,4" transform="translate(1142.89 6078.386)"/><path class="b" d="M38.66,61.917H25.009a2,2,0,0,1,0-4H38.66a2,2,0,0,1,0,4" transform="translate(1142.89 6078.093)"/><path class="b" d="M38.66,49.2H25.009a2,2,0,0,1,0-4H38.66a2,2,0,0,1,0,4" transform="translate(1142.89 6076.808)"/><path class="b" d="M99.266,93.871H85.615a2,2,0,0,1,0-4H99.266a2,2,0,0,1,0,4" transform="translate(1142.89 6073.808)"/><g class="c" transform="translate(1204 6108)"><rect class="d" width="14" height="21"/><rect class="a" x="2" y="2" width="10" height="17"/></g></g></g></svg>