<svg xmlns="http://www.w3.org/2000/svg" width="120" height="120" viewBox="0 0 120 120"><defs><style>.a{fill:none;}.b{fill:#999;}</style></defs><g transform="translate(-920 -6120)"><rect class="a" width="120" height="120" transform="translate(920 6120)"/><g transform="translate(926.107 6126.107)"><path class="b" d="M53.893,107.03A53.9,53.9,0,0,1,10.175,21.616a2.073,2.073,0,0,1,3.361,2.427A49.75,49.75,0,0,0,85.867,91.25a2.073,2.073,0,0,1,2.666,3.174,53.936,53.936,0,0,1-34.64,12.606" transform="translate(0 0.755)"/><path class="b" d="M97.314,82.99a2.072,2.072,0,0,1-1.766-3.156,49.756,49.756,0,0,0-70.33-67.153,2.072,2.072,0,1,1-2.325-3.43A53.9,53.9,0,0,1,99.084,82a2.075,2.075,0,0,1-1.769.99" transform="translate(0.8)"/><path class="b" d="M26.845,70.94a2.071,2.071,0,0,1-1.756-.968,33.259,33.259,0,0,1-4.316-24.816,2.072,2.072,0,0,1,4.048.89A29.124,29.124,0,0,0,28.6,67.762a2.073,2.073,0,0,1-1.752,3.178" transform="translate(0.728 1.584)"/><path class="b" d="M52.3,84.169a33.387,33.387,0,0,1-6.892-.717,2.073,2.073,0,1,1,.858-4.056,29.5,29.5,0,0,0,9.829.382,2.073,2.073,0,0,1,.538,4.11,33.46,33.46,0,0,1-4.333.281" transform="translate(1.593 2.888)"/><path class="b" d="M75.388,73.989a2.073,2.073,0,0,1-1.61-3.379A29.079,29.079,0,0,0,79.3,44.979a2.073,2.073,0,1,1,4.01-1.051A33.227,33.227,0,0,1,77,73.222a2.072,2.072,0,0,1-1.612.767" transform="translate(2.668 1.542)"/><path class="b" d="M36.472,89.593c-.064,0-.13,0-.195,0A6.972,6.972,0,0,1,30.1,85.346a2.064,2.064,0,0,1-.164-.886l1.287-35c-6.35-3.337-5.8-12.276-5.712-13.325.186-7.365,2.28-12.385,6.226-14.919a8.26,8.26,0,0,1,6.866-1.063,11.126,11.126,0,0,1,6.752,5.913,23.8,23.8,0,0,1,2.08,10.071c.088,1.055.635,9.988-5.712,13.324l1.288,35a2.093,2.093,0,0,1-.163.885,6.987,6.987,0,0,1-6.38,4.248M34.1,84.085a2.8,2.8,0,0,0,2.3,1.362,2.734,2.734,0,0,0,2.45-1.362l-1.319-35.9a2.07,2.07,0,0,1,1.413-2.041c5.049-1.691,4.367-9.621,4.359-9.7,0-.049-.007-.1-.008-.151a19.964,19.964,0,0,0-1.665-8.419,7.039,7.039,0,0,0-4.144-3.737,4.173,4.173,0,0,0-3.506.56c-2.729,1.754-4.184,5.656-4.324,11.6,0,.051,0,.1-.009.154-.007.075-.689,8,4.36,9.7a2.07,2.07,0,0,1,1.413,2.041Z" transform="translate(0.927 0.722)"/><path class="b" d="M66,89.478c-.064,0-.129,0-.194,0A6.972,6.972,0,0,1,59.636,85.3a2.1,2.1,0,0,1-.169-.9l1.287-34.111-6.412-5.264a2.072,2.072,0,0,1-.757-1.6V22.543a2.073,2.073,0,1,1,4.146,0v19.9l6.449,5.295a2.072,2.072,0,0,1,.756,1.681l-1.306,34.6a2.8,2.8,0,0,0,4.756,0L67.087,49.5a2.073,2.073,0,0,1,.744-1.671l6.455-5.377V22.543a2.073,2.073,0,0,1,4.146,0V43.422a2.077,2.077,0,0,1-.746,1.593l-6.417,5.346L72.55,84.4a2.076,2.076,0,0,1-.171.9A7.01,7.01,0,0,1,66,89.478" transform="translate(1.95 0.745)"/><path class="b" d="M62.3,43.561a2.074,2.074,0,0,1-2.073-2.073V22.543a2.073,2.073,0,1,1,4.146,0V41.488A2.074,2.074,0,0,1,62.3,43.561" transform="translate(2.192 0.745)"/><path class="b" d="M69.009,43.561a2.073,2.073,0,0,1-2.073-2.073V22.543a2.073,2.073,0,0,1,4.146,0V41.488a2.074,2.074,0,0,1-2.073,2.073" transform="translate(2.436 0.745)"/><path class="b" d="M19.307,16.463a2.073,2.073,0,1,1-2.073-2.073,2.072,2.072,0,0,1,2.073,2.073" transform="translate(0.552 0.524)"/><path class="b" d="M92.293,85.045a2.073,2.073,0,1,1-2.073-2.073,2.072,2.072,0,0,1,2.073,2.073" transform="translate(3.208 3.02)"/></g></g></svg>