<svg xmlns="http://www.w3.org/2000/svg" width="120" height="120" viewBox="0 0 120 120"><defs><style>.a{fill:none;}.b{fill:#999;}.c{fill:#fff;}</style></defs><g transform="translate(-653 -6120)"><rect class="a" width="120" height="120" transform="translate(653 6120)"/><g transform="translate(662 6130.001)"><path class="b" d="M34.8,99.786a2,2,0,0,1-1.009-.273L.991,80.354a2,2,0,0,1-.03-3.436L65.226,37.85a2,2,0,0,1,2.048-.018l32.8,19.159a2,2,0,0,1,.031,3.436L52.971,89.078a2,2,0,1,1-2.078-3.417L95.156,58.752,66.286,41.887,5.906,78.593,34.777,95.458l2.9-1.765a2,2,0,1,1,2.078,3.418L35.837,99.5a2,2,0,0,1-1.039.291"/><path class="c" d="M99.063,41.356,34.8,80.424,2,61.264,66.265,22.2Z"/><path class="b" d="M34.8,82.424a2,2,0,0,1-1.009-.273L.991,62.991a2,2,0,0,1-.03-3.436L65.226,20.487a2,2,0,0,1,2.048-.018l32.8,19.16a2,2,0,0,1,.03,3.436L35.837,82.133a2,2,0,0,1-1.039.291M5.906,61.23,34.777,78.1,95.156,41.39,66.285,24.524Z"/><path class="c" d="M63.852,3.467,66.265,2l32.8,19.159L34.8,60.227,2,41.068,50.125,11.812"/><path class="b" d="M34.8,62.227a2,2,0,0,1-1.009-.273L.991,42.794a2,2,0,0,1-.03-3.436L49.086,10.1a2,2,0,0,1,2.078,3.418L5.906,41.033,34.777,57.9,95.156,21.193,66.286,4.328l-1.4.847a2,2,0,0,1-2.078-3.418L65.226.29A2,2,0,0,1,67.274.272l32.8,19.16a2,2,0,0,1,.031,3.436L35.837,61.936a2,2,0,0,1-1.039.291"/><path class="c" d="M81.4,22.923,36.687,49.311,19.666,39.3,64.375,12.915Z"/><path class="b" d="M36.688,51.311a2,2,0,0,1-1.014-.276L18.653,41.028a2,2,0,0,1,0-3.447L63.359,11.194a2,2,0,0,1,2.03,0L82.41,21.2a2,2,0,0,1,0,3.446L37.7,51.033a2,2,0,0,1-1.016.278M23.607,39.3l13.079,7.69,40.77-24.064L64.378,15.237Z"/><path class="c" d="M27.612,25.629,58.6,44.75V83.321L75.447,72.937V35.189L44.071,15.739Z"/><path class="b" d="M58.6,85.321a2,2,0,0,1-2-2V45.866L26.561,27.331a2,2,0,0,1,.021-3.417l16.458-9.89a2,2,0,0,1,2.084.015L76.5,33.489a2,2,0,0,1,.947,1.7V72.936a2,2,0,0,1-.95,1.7L59.652,85.024a2.006,2.006,0,0,1-1.049.3M31.457,25.651l28.2,17.4a2,2,0,0,1,.95,1.7V79.738l12.844-7.919V36.3L44.054,18.082Z"/><path class="b" d="M47.5,91.33a2.188,2.188,0,1,1-2.188-2.188A2.189,2.189,0,0,1,47.5,91.33"/><path class="b" d="M59.222,7.688A2.188,2.188,0,1,1,57.034,5.5a2.189,2.189,0,0,1,2.188,2.188"/></g></g></svg>