<svg xmlns="http://www.w3.org/2000/svg" width="120" height="120" viewBox="0 0 120 120"><defs><style>.a{fill:none;}.b{fill:#999;}</style></defs><g transform="translate(-1054 -6120)"><rect class="a" width="120" height="120" transform="translate(1054 6120)"/><g transform="translate(1064 6133)"><path class="b" d="M4.11,71.221a2,2,0,1,1-2-2,2,2,0,0,1,2,2"/><path class="b" d="M100.3,45.129a2,2,0,1,1-2-2,2,2,0,0,1,2,2"/><path class="b" d="M98.33,98.267H2a2,2,0,0,1-2-2V79.67a2,2,0,0,1,4,0v14.6H96.33V53.056a2,2,0,0,1,4,0V96.267a2,2,0,0,1-2,2"/><path class="b" d="M2,64.166a2,2,0,0,1-2-2V20.174a2,2,0,0,1,1.128-1.8L48.475-4.572a4.214,4.214,0,0,1,3.714.006L99.207,18.376a2,2,0,0,1,1.123,1.8V36.817a2,2,0,0,1-4,0V21.423L50.436-.972a.241.241,0,0,0-.216,0L4,21.427V62.166a2,2,0,0,1-2,2"/><path class="b" d="M50.165,31.42a8.53,8.53,0,1,1,8.529-8.53,8.54,8.54,0,0,1-8.529,8.53m0-13.06a4.53,4.53,0,1,0,4.529,4.53,4.535,4.535,0,0,0-4.529-4.53" transform="translate(0 -4)"/><path class="b" d="M87.816,51.121h-75.3a2,2,0,0,1-2-2V40.2a2,2,0,0,1,2-2h75.3a2,2,0,0,1,2,2v8.918a2,2,0,0,1-2,2m-73.3-4h71.3V42.2h-71.3Z" transform="translate(0 -3.992)"/><path class="b" d="M84.1,98.267H16.229a2,2,0,0,1-2-2V45.111a2,2,0,0,1,2-2H84.1a2,2,0,0,1,2,2V96.267a2,2,0,0,1-2,2m-65.872-4H82.1V47.111H18.229Z"/><path class="b" d="M50.165,98.267H30.419a2,2,0,0,1-2-2V76.522a2,2,0,0,1,2-2H50.165a2,2,0,0,1,2,2V96.267a2,2,0,0,1-2,2m-17.746-4H48.165V78.522H32.419Z"/><path class="b" d="M69.91,98.267H50.165a2,2,0,0,1-2-2V76.522a2,2,0,0,1,2-2H69.91a2,2,0,0,1,2,2V96.267a2,2,0,0,1-2,2m-17.745-4H67.91V78.522H52.165Z"/><path class="b" d="M60.037,78.341H40.292a2,2,0,0,1-2-2V56.6a2,2,0,0,1,2-2H60.037a2,2,0,0,1,2,2V76.341a2,2,0,0,1-2,2m-17.745-4H58.037V58.6H42.292Z"/><path class="b" d="M53.5,68.377H46.834a2,2,0,0,1-2-2V56.6a2,2,0,0,1,2-2H53.5a2,2,0,0,1,2,2v9.781a2,2,0,0,1-2,2m-4.662-4H51.5V58.6H48.834Z"/><path class="b" d="M63.569,88.359H56.907a2,2,0,0,1-2-2V76.578a2,2,0,0,1,2-2h6.662a2,2,0,0,1,2,2v9.781a2,2,0,0,1-2,2m-4.662-4h2.662V78.578H58.907Z"/><path class="b" d="M43.313,88.359H36.65a2,2,0,0,1-2-2V76.578a2,2,0,0,1,2-2h6.663a2,2,0,0,1,2,2v9.781a2,2,0,0,1-2,2m-4.663-4h2.662V78.578H38.65Z"/></g></g></svg>