<svg xmlns="http://www.w3.org/2000/svg" width="21" height="21" viewBox="0 0 21 21"><defs><style>.a{fill:#666;}</style></defs><path class="a" d="M10.5,1.892c2.8,0,3.136.011,4.243.061a5.81,5.81,0,0,1,1.95.362A3.252,3.252,0,0,1,17.9,3.1a3.252,3.252,0,0,1,.785,1.207,5.81,5.81,0,0,1,.362,1.95c.051,1.107.061,1.439.061,4.243s-.011,3.136-.061,4.243a5.81,5.81,0,0,1-.362,1.95,3.477,3.477,0,0,1-1.993,1.993,5.81,5.81,0,0,1-1.95.362c-1.107.051-1.439.061-4.243.061s-3.136-.011-4.243-.061a5.81,5.81,0,0,1-1.95-.362A3.252,3.252,0,0,1,3.1,17.9a3.253,3.253,0,0,1-.785-1.207,5.81,5.81,0,0,1-.362-1.95C1.9,13.636,1.892,13.3,1.892,10.5s.011-3.136.061-4.243a5.81,5.81,0,0,1,.362-1.95A3.252,3.252,0,0,1,3.1,3.1a3.252,3.252,0,0,1,1.207-.785,5.81,5.81,0,0,1,1.95-.362C7.364,1.9,7.7,1.892,10.5,1.892M10.5,0C7.648,0,7.291.012,6.171.063A7.705,7.705,0,0,0,3.622.551a5.147,5.147,0,0,0-1.86,1.211A5.147,5.147,0,0,0,.551,3.622,7.705,7.705,0,0,0,.063,6.171C.012,7.291,0,7.648,0,10.5s.012,3.209.063,4.329a7.705,7.705,0,0,0,.488,2.549,5.147,5.147,0,0,0,1.211,1.86,5.147,5.147,0,0,0,1.86,1.211,7.707,7.707,0,0,0,2.549.488c1.12.051,1.478.063,4.329.063s3.209-.012,4.329-.063a7.707,7.707,0,0,0,2.549-.488,5.369,5.369,0,0,0,3.071-3.071,7.705,7.705,0,0,0,.488-2.549c.051-1.12.063-1.478.063-4.329s-.012-3.209-.063-4.329a7.705,7.705,0,0,0-.488-2.549,5.147,5.147,0,0,0-1.211-1.86A5.147,5.147,0,0,0,17.378.551,7.705,7.705,0,0,0,14.829.063C13.709.012,13.352,0,10.5,0"/><path class="a" d="M95.028,89.636a5.392,5.392,0,1,0,5.392,5.392,5.392,5.392,0,0,0-5.392-5.392m0,8.892a3.5,3.5,0,1,1,3.5-3.5,3.5,3.5,0,0,1-3.5,3.5" transform="translate(-84.528 -84.528)"/><path class="a" d="M263.016,65.048a1.26,1.26,0,1,1-1.26-1.26,1.26,1.26,0,0,1,1.26,1.26" transform="translate(-245.651 -60.153)"/></svg>