<svg xmlns="http://www.w3.org/2000/svg" width="22.445" height="15.711" viewBox="0 0 22.445 15.711"><defs><style>.a{fill:#666;}.b{fill:#fff;}</style></defs><path class="a" d="M21.976,2.452A2.811,2.811,0,0,0,19.991.468C18.241,0,11.222,0,11.222,0S4.2,0,2.453.468A2.811,2.811,0,0,0,.469,2.452,29.216,29.216,0,0,0,0,7.855a29.216,29.216,0,0,0,.469,5.4,2.811,2.811,0,0,0,1.984,1.984c1.75.469,8.769.469,8.769.469s7.019,0,8.769-.469a2.812,2.812,0,0,0,1.984-1.984,29.2,29.2,0,0,0,.469-5.4,29.2,29.2,0,0,0-.469-5.4" transform="translate(0 0.001)"/><path class="b" d="M73.583,43.525l5.831-3.367-5.831-3.367Z" transform="translate(-64.605 -32.302)"/></svg>