<svg xmlns="http://www.w3.org/2000/svg" xmlns:xlink="http://www.w3.org/1999/xlink" width="800" height="771" viewBox="0 0 800 771">
  <defs>
    <linearGradient id="linear-gradient" x1="0.085" y1="0.361" x2="0.915" y2="0.032" gradientUnits="objectBoundingBox">
      <stop offset="0" stop-color="#00c0f3"/>
      <stop offset="1" stop-color="#0077c0"/>
    </linearGradient>
  </defs>
  <g id="그룹_21453" data-name="그룹 21453" transform="translate(8681 15745.444)">
    <rect id="사각형_10185" data-name="사각형 10185" width="133" height="133" rx="66.5" transform="translate(-8014 -15745.444)" fill="#fdb933" opacity="0.6"/>
    <path id="합치기_155" data-name="합치기 155" d="M402.518,570.2l-9.394-23.032,113.67-279.388L598.081,43.405C608.729,17.3,635.869,0,666.191,0c50.791,0,85.943,46.65,68.112,90.379L538.9,570.594C528.248,596.7,501.108,614,470.784,614,438.513,614,412.581,595.156,402.518,570.2Zm-263.795,0-9.529-22.823,22.515-55.217,0,0L257.773,232.078l9.284-22.768,3.6-8.835.1-.251.017-.041a66.564,66.564,0,0,1,17.426-24.5c12.846-11.54,30.445-18.864,50.5-18.909h.895c22.73.2,42.279,9.746,55.261,24.163a66.949,66.949,0,0,1,7.172,9.514,64.983,64.983,0,0,1,5.726,11.591l54.61,133.916L384.772,526.7,338.888,414.179,275.1,570.594C264.457,596.7,237.315,614,206.992,614,174.722,614,148.787,595.157,138.723,570.2ZM4.7,247.156c-17.834-43.729,17.322-90.377,68.109-90.377,30.323,0,57.464,17.3,68.109,43.4l56.826,138.19-76.989,188.8Z" transform="translate(-8681 -15588.444)" opacity="0.4" fill="url(#linear-gradient)"/>
  </g>
</svg>
