<svg xmlns="http://www.w3.org/2000/svg" width="115" height="20" viewBox="0 0 115 20"><defs><style>.a{fill:none;}.b{fill:#666;}</style></defs><g transform="translate(7495 6577.73)"><rect class="a" width="115" height="20" transform="translate(-7495 -6577.73)"/><g transform="translate(-7495 -6575.56)"><path class="b" d="M6.153,10.71V0H7.448V10.71ZM0,8.575V3.645H3.172V1.437H0V.322H4.445V4.757H1.281v2.71h3.81V8.575Z" transform="translate(105.802 2.888)"/><path class="b" d="M313.214,18.377V16.19h2.7v-1.1h-5.389V13.74h5.27V12.628h-5.27V11.406h5.389v-1.1H309.22V16.19h2.668v2.187h-3.423V19.5h8.17V18.377Z" transform="translate(-212.097 -7.088)"/><path class="b" d="M0,9.3V8.183H8.149V9.3ZM4.094,3.225C3.425,4.869.982,6.082.982,6.082L.357,5.1A4.78,4.78,0,0,0,3.362.5c0-.132,0-.5,0-.5H4.834V.5a4.78,4.78,0,0,0,3,4.6l-.622.983S4.777,4.891,4.094,3.225Z" transform="translate(87.096 3.12)"/><path class="b" d="M1.375,10.766V8.217h5.3V7.762h-5.3V6.714h6.6v2.46H2.685v.547H8.009v1.045Zm.443-4.391V4.682H0V3.588H4.8V.111H6.039V6.357H4.8V5.966h-1.2V4.993H4.8V4.682H3.139V6.376Zm4.87-.018V.018H7.979V6.357ZM.384,1.7A1.858,1.858,0,0,1,2.365,0a1.855,1.855,0,0,1,1.98,1.7,1.856,1.856,0,0,1-1.98,1.693A1.859,1.859,0,0,1,.384,1.7Zm1.1,0a.829.829,0,0,0,.885.752A.83.83,0,0,0,3.25,1.7.826.826,0,0,0,2.365.947.824.824,0,0,0,1.48,1.7Z" transform="translate(78.022 2.825)"/><path class="b" d="M1.227,8.387c0-1.44,1.614-2.609,3.607-2.609S8.44,6.947,8.44,8.387,6.826,11,4.834,11,1.227,9.83,1.227,8.387Zm1.366,0c0,.805,1,1.457,2.241,1.457s2.243-.652,2.243-1.457S6.07,6.93,4.834,6.93,2.592,7.584,2.592,8.387ZM6.88,5.632V3.373H5.115V2.222H6.859V0H8.243V5.632Zm-4.1-2.638a5.736,5.736,0,0,1-2.067,2.4L0,4.413C2.318,3.253,2.138.2,2.138.2H3.417s-.181,3.049,2.136,4.21l-.708.979A5.724,5.724,0,0,1,2.778,2.995Z" transform="translate(68.499 2.843)"/><path class="b" d="M1.713,10.706V6.095H8.221v4.611ZM3.041,9.58H6.887V7.22H3.041Zm3.8-3.948V0H8.221V2.222H9.393v1.15H8.221V5.632ZM2.927,2.995a6.245,6.245,0,0,1-2.218,2.5L0,4.514C2.472,3.253,2.289.2,2.289.2H3.568S3.392,3.253,5.856,4.514l-.711.98A6.238,6.238,0,0,1,2.927,2.995Z" transform="translate(59.148 2.843)"/><path class="b" d="M13.037,16.663h0A33.659,33.659,0,0,1,3.93,15.639a8.789,8.789,0,0,1-2.718-1.244,2.747,2.747,0,0,1-1.181-1.7c-.18-1.037.419-2.172,1.781-3.372a23.024,23.024,0,0,1,5.8-3.436,1.2,1.2,0,0,0-.481.808,1.814,1.814,0,0,0,.01.7c.131.607.794.97,1.38,1.29.435.238.844.462.959.749a.709.709,0,0,1,.012.385.454.454,0,0,1-.506.349A.463.463,0,0,1,8.463,9.7v-.5H7.071v.4a1.329,1.329,0,0,0,.577,1.186,2.352,2.352,0,0,0,1.309.319c1.074,0,1.726-.421,1.835-1.185a2.674,2.674,0,0,0-.005-.853c-.126-.624-.821-.992-1.434-1.316-.451-.239-.839-.444-.9-.7a.7.7,0,0,1-.006-.273.431.431,0,0,1,.475-.349.442.442,0,0,1,.482.471v.321H10.7V6.851c0-.867-.589-1.307-1.75-1.307a3.177,3.177,0,0,0-.71.073,60.387,60.387,0,0,1,7.1-2.456A85.375,85.375,0,0,1,23.86,1.237,79.165,79.165,0,0,1,37.157,0a33.638,33.638,0,0,1,9.1,1.024,8.775,8.775,0,0,1,2.717,1.244,2.746,2.746,0,0,1,1.18,1.7c.178,1.017-.4,2.13-1.7,3.306a22.142,22.142,0,0,1-5.59,3.376,1.236,1.236,0,0,0,.5-.93,3.236,3.236,0,0,0,.018-.342V7.983h-1.84V8.74h.532v.754a1.156,1.156,0,0,1-.011.2.484.484,0,0,1-.531.377.478.478,0,0,1-.529-.377.918.918,0,0,1-.014-.2V7.121a1.2,1.2,0,0,1,.021-.244.543.543,0,0,1,1.034,0,1.133,1.133,0,0,1,.017.2v.29h1.309V7.192a3.029,3.029,0,0,0-.011-.342c-.105-1.06-1.048-1.283-1.821-1.283-1.093,0-1.724.444-1.824,1.283-.009.083-.021.248-.021.342V9.377c0,.1,0,.17.018.342C39.819,10.833,40.9,11,41.543,11a3.017,3.017,0,0,0,.7-.077,73.277,73.277,0,0,1-15.912,4.5A79.186,79.186,0,0,1,13.037,16.663ZM23.969,9.187l0,.4c0,1.3,1.171,1.492,1.869,1.492,1.064,0,1.708-.417,1.816-1.174a2.56,2.56,0,0,0,0-.844c-.125-.618-.813-.982-1.42-1.3h0c-.445-.235-.828-.438-.89-.694a.651.651,0,0,1-.006-.268.425.425,0,0,1,.47-.345.436.436,0,0,1,.476.464v.317h1.284v-.36c0-.858-.583-1.293-1.734-1.293-.736,0-1.644.2-1.795,1.139a1.742,1.742,0,0,0,.012.693c.127.6.783.96,1.362,1.277.431.236.837.459.95.743a.664.664,0,0,1,.01.379.446.446,0,0,1-.5.345.462.462,0,0,1-.517-.465v-.5Zm4.92-3.479V9.429c0,.1.007.294.011.341.081.851.69,1.283,1.812,1.283s1.731-.432,1.812-1.283c0-.047.013-.243.011-.341V5.708H31.221V9.547a.974.974,0,0,1-.012.2.518.518,0,0,1-1,0,1.232,1.232,0,0,1-.012-.2V5.708Zm-16.261,0L11.666,10.9h1.4l.711-4.709h.029L14.5,10.9h1.394L14.937,5.71Zm4.416,0L16.929,10.9h1.3l.032-4.666h.029l.868,4.666h1.317l.867-4.666h.028L21.4,10.9h1.3L22.586,5.71H20.47l-.64,3.966H19.8L19.16,5.71Zm18.143.921h.027L36.5,10.846h1.846V5.71H37.058l.072,4.073H37.1L35.908,5.71H33.98v5.136h1.277l-.071-4.214Z" transform="translate(0 0)"/></g></g></svg>